<?xml version="1.0" encoding="utf-8"?>
<!-- Generator: Adobe Illustrator 16.0.0, SVG Export Plug-In . SVG Version: 6.00 Build 0)  -->
<!DOCTYPE svg PUBLIC "-//W3C//DTD SVG 1.1//EN" "http://www.w3.org/Graphics/SVG/1.1/DTD/svg11.dtd">
<svg version="1.1" id="Layer_1" xmlns="http://www.w3.org/2000/svg" xmlns:xlink="http://www.w3.org/1999/xlink" x="0px" y="0px"
	 width="47px" height="64px" viewBox="0 0 47 64" enable-background="new 0 0 47 64" xml:space="preserve">
<path fill-rule="evenodd" clip-rule="evenodd" fill="#939598" d="M0.026,61.907c0,0.982,0.795,1.775,1.773,1.775V13.597
	c-0.979,0-1.773,0.793-1.773,1.775V61.907z"/>
<path fill-rule="evenodd" clip-rule="evenodd" fill="#CCCCCC" d="M45.199,0.317H14.925c-0.979,0-1.773,0.793-1.773,1.775v11.504H1.8
	c-0.979,0-1.773,0.793-1.773,1.775v46.535c0,0.982,0.795,1.775,1.773,1.775h43.399c0.978,0,1.774-0.793,1.774-1.775V2.093
	C46.974,1.11,46.177,0.317,45.199,0.317z"/>
<path fill-rule="evenodd" clip-rule="evenodd" fill="#939598" d="M13.151,51.901c0,0.982,0.795,1.775,1.773,1.775V0.317
	c-0.979,0-1.773,0.793-1.773,1.775V51.901z"/>
<path fill-rule="evenodd" clip-rule="evenodd" fill="#939598" d="M0.026,61.907c0,0.982,0.795,1.775,1.773,1.775V13.597
	c-0.979,0-1.773,0.793-1.773,1.775V61.907z"/>
<path fill-rule="evenodd" clip-rule="evenodd" fill="#939598" d="M0.026,14.636c0,0.982,0.795,1.775,1.773,1.775v-6.156
	c-0.979,0-1.773,0.793-1.773,1.775V14.636z"/>
<path fill-rule="evenodd" clip-rule="evenodd" fill="#E8E9EA" d="M45.193,6.606H23.824h-0.407h-9.406v12.084
	c0,0.568-0.456,0.905-0.901,0.905H1.147v10.476v30.412v2.149c0,0.497,0.404,0.905,0.905,0.905h21.364h0.407h21.369
	c0.497,0,0.901-0.408,0.901-0.905v-2.149V30.072V7.509C46.095,7.009,45.69,6.606,45.193,6.606z"/>
<path fill-rule="evenodd" clip-rule="evenodd" fill="#E8E9EA" d="M1.175,16.412h8.959c0.497,0,0.901-0.408,0.901-0.905V6.473
	L1.175,16.412z"/>
<path fill-rule="evenodd" clip-rule="evenodd" fill="#CCCCCC" d="M1.175,16.412v-6.028L9.55,1.575c0,0,1.485-0.75,1.485,0.875v4.023
	L1.175,16.412z"/>
</svg>
