<?xml version="1.0" encoding="utf-8"?>
<!-- Generator: Adobe Illustrator 16.0.0, SVG Export Plug-In . SVG Version: 6.00 Build 0)  -->
<!DOCTYPE svg PUBLIC "-//W3C//DTD SVG 1.1//EN" "http://www.w3.org/Graphics/SVG/1.1/DTD/svg11.dtd">
<svg version="1.1" id="Layer_1" xmlns="http://www.w3.org/2000/svg" xmlns:xlink="http://www.w3.org/1999/xlink" x="0px" y="0px"
	 width="94px" height="20px" viewBox="0 0 94 20" enable-background="new 0 0 94 20" xml:space="preserve">
<g>
	<g>
		<path fill="#00B9F2" d="M5.361,17.742c0.693-3.093,0.938-5.49,4.106-3.446c2.374,1.531,4.628,2.96,7.154,4.267
			c3.321,1.718,5.494,1.778,8.135-0.996c1.964-2.063,4.111-3.923,6.073-5.992c0.824-0.869,0.141-0.734,1.578,0.251
			c1.419,0.973,3.093,1.781,4.366,2.936c3.587,3.253,7.053,6.084,11.815,2.384c0.453-0.353,0.787-1.106,0.984-1.622
			c0.563-1.476,1.371-2.327,2.488-3.461c0.973-0.987,1.761-2.175,2.609-3.267c1.2-1.544,3.881,0.786,4.875,1.648
			c3.548,3.077,4.508,8.564,10.307,7.364c4.716-0.976,6.93-6.362,6.986-10.568c0.066-4.836,5.572,0.144,6.884,1.875
			c1.895,2.499,3.342,5.318,5.066,7.932c1.768,2.678,6.1,0.176,4.318-2.523C90.16,10.056,87.196,2.675,81.653,0.82
			c-4.94-1.653-9.628,0.173-9.812,5.629c-0.118,3.546-2.48,9.025-5.811,4.243c-1.979-2.844-3.9-4.782-6.939-6.527
			c-6.009-3.451-8.656,2.563-12.377,6.157c-1.701,1.643-1.8,6.104-5.279,2.231c-2.11-2.349-4.651-3.777-7.255-5.562
			c-4.82-3.303-8.398,2.651-11.573,5.627c-2.916,2.734-1.804,2.482-5.723,0.456c-2.413-1.247-4.462-3.065-6.906-4.24
			c-5.671-2.727-8.402,2.95-9.438,7.577C-0.164,19.554,4.657,20.888,5.361,17.742L5.361,17.742z"/>
	</g>
</g>
</svg>
