<?xml version="1.0" encoding="utf-8"?>
<!-- Generator: Adobe Illustrator 16.0.0, SVG Export Plug-In . SVG Version: 6.00 Build 0)  -->
<!DOCTYPE svg PUBLIC "-//W3C//DTD SVG 1.1//EN" "http://www.w3.org/Graphics/SVG/1.1/DTD/svg11.dtd">
<svg version="1.1" xmlns="http://www.w3.org/2000/svg" xmlns:xlink="http://www.w3.org/1999/xlink" x="0px" y="0px"
	 width="34.001px" height="34.001px" viewBox="0 0 34.001 34.001" enable-background="new 0 0 34.001 34.001" xml:space="preserve">
<g id="Layer_1">
</g>
<g id="btns_home">
	<circle fill="#00B9F2" cx="17" cy="17.001" r="17"/>
	<polygon fill="#FFFFFF" points="25.961,8.023 20.854,8.022 22.419,9.587 19.099,12.906 21.079,14.887 24.399,11.566 25.962,13.13 
		25.962,8.023 	"/>
	<polygon fill="#FFFFFF" points="9.57,22.435 8.007,20.87 8.008,25.977 8.008,25.978 13.114,25.978 11.551,24.415 14.871,21.095 
		12.891,19.114 	"/>
	<polygon fill="#FFFFFF" points="8.008,8.023 13.114,8.022 11.55,9.587 14.87,12.906 12.89,14.887 9.569,11.566 8.007,13.13 
		8.007,8.023 	"/>
	<polygon fill="#FFFFFF" points="24.398,22.435 25.962,20.87 25.961,25.977 25.961,25.978 20.854,25.978 22.418,24.415 
		19.098,21.095 21.078,19.114 	"/>
</g>
</svg>
