<?xml version="1.0" encoding="utf-8"?>
<!-- Generator: Adobe Illustrator 16.0.0, SVG Export Plug-In . SVG Version: 6.00 Build 0)  -->
<!DOCTYPE svg PUBLIC "-//W3C//DTD SVG 1.1//EN" "http://www.w3.org/Graphics/SVG/1.1/DTD/svg11.dtd">
<svg version="1.1" id="Layer_1" xmlns="http://www.w3.org/2000/svg" xmlns:xlink="http://www.w3.org/1999/xlink" x="0px" y="0px"
	 width="35px" height="72px" viewBox="0 0 35 72" enable-background="new 0 0 35 72" xml:space="preserve">
<g>
	<path fill-rule="evenodd" clip-rule="evenodd" fill="#7592FC" d="M8.212,59.448c0,1.102,0.889,1.99,1.986,1.99H27.21
		c1.097,0,1.986-0.889,1.986-1.99V2.271c0-1.101-0.89-1.985-1.986-1.985H10.198c-1.098,0-1.986,0.885-1.986,1.985V59.448z"/>
	<path fill-rule="evenodd" clip-rule="evenodd" fill="#556EE8" d="M8.292,59.682c0,0.939,0.759,1.697,1.694,1.697V0.286
		c-0.936,0-1.694,0.756-1.694,1.693V59.682z"/>
	<path fill="#5F78FF" d="M28.214,60.266c0,0.56-0.454,1.009-1.013,1.009h-16.95c-0.56,0-1.013-0.449-1.013-1.009V8.338
		c0-0.557,0.453-1.014,1.013-1.014h16.95c0.559,0,1.013,0.457,1.013,1.014V60.266z"/>
</g>
<path fill-rule="evenodd" clip-rule="evenodd" fill="#FFFFFF" d="M3.464,70.019c0,0.938,0.759,1.695,1.694,1.695h18.317
	c0.938,0,1.698-0.757,1.698-1.695V19.594c0-0.938-0.761-1.696-1.698-1.696H5.158c-0.936,0-1.694,0.759-1.694,1.696V70.019z"/>
<path fill-rule="evenodd" clip-rule="evenodd" fill="#DCE2E1" d="M3.464,70.019c0,0.938,0.759,1.695,1.694,1.695V17.897
	c-0.936,0-1.694,0.759-1.694,1.696V70.019z"/>
<path fill-rule="evenodd" clip-rule="evenodd" fill="#F9FBFA" d="M23.474,23.904h-8.941h-0.39H5.205
	c-0.479,0-0.864,0.386-0.864,0.86v40.651v3.241v2.054c0,0.475,0.386,0.866,0.864,0.866h8.938h0.39h8.941
	c0.476,0,0.86-0.392,0.86-0.866v-2.054v-3.241V24.765C24.334,24.29,23.949,23.904,23.474,23.904z"/>
<g>
	<path fill-rule="evenodd" clip-rule="evenodd" fill="#CCD7C8" d="M19.232,32.485c0,2.714-2.197,4.915-4.915,4.915
		c-2.715,0-4.914-2.201-4.914-4.915s2.199-4.915,4.914-4.915C17.035,27.57,19.232,29.771,19.232,32.485z"/>
	<path fill-rule="evenodd" clip-rule="evenodd" fill="#D9DCD5" d="M10.634,32.14c0,2.337,1.893,4.229,4.23,4.229
		c2.339,0,4.235-1.893,4.235-4.229c0-2.339-1.896-4.233-4.235-4.233C12.526,27.906,10.634,29.801,10.634,32.14z"/>
	<path fill-rule="evenodd" clip-rule="evenodd" fill="#E7E9E7" d="M11.702,31.721c0,1.978,1.604,3.582,3.583,3.582
		c1.979,0,3.584-1.604,3.584-3.582c0-1.981-1.604-3.585-3.584-3.585C13.307,28.136,11.702,29.739,11.702,31.721z"/>
	<circle fill-rule="evenodd" clip-rule="evenodd" fill="#242524" cx="14.317" cy="30.896" r="2.136"/>
</g>
<g>
	<path fill-rule="evenodd" clip-rule="evenodd" fill="#5A73FC" d="M29.196,21.604c0.116,0.205,0.663,0.245,0.799,0.419l0.033,0.025
		c0.222,0.339,0.479,0.64,0.865,0.805l0.003,0.003c0.114,0.189,0.152,0.415,0.295,0.591c0.075,0.087,0.15,0.178,0.221,0.265
		c0.075,0.096,0.138,0.195,0.192,0.298c0.058,0.112,0.098,0.23,0.131,0.352c0.225,0.93,0.543,1.831,0.786,2.758
		c0.043,0.135,0.075,0.271,0.098,0.409c0.087,1.391,0.076,2.779,0.019,4.168c-0.019,0.139-0.052,0.272-0.094,0.408
		c-0.064,0.194-0.149,0.377-0.24,0.557c-0.052,0.123-0.112,0.235-0.175,0.349c-0.229,0.374-0.346,0.802-0.489,1.214
		c-0.154,0.353-0.323,0.696-0.512,1.029c-0.072,0.111-0.16,0.211-0.263,0.298c-0.557,0.308-1.3,0.543-1.34,0.038
		c1.506-1.429,1.825-4.054,0.413-7.664c0.645-0.083,0.898-1.139-0.136-3.451c-0.101-0.225-0.606-1.277-0.606-1.277V21.604z"/>
	<path fill-rule="evenodd" clip-rule="evenodd" fill="#5F7BFC" d="M3.464,30.363c0.067,1.355,1.341,4.766,2.726,5.919
		c1.221,1.021,3.479,4.345,4.553,5.512c0.19,0.209,0.415,0.381,0.428,0.696c-0.021,0.145,0.111,0.248-0.184,0.365
		c-4.269,0.357-6.756-3.873-7.459-4.778c-0.093-0.107-0.171-0.223-0.242-0.346c-0.765-1.298-1.586-2.555-2.196-3.944
		c-0.923-2.11-0.567-4.243-0.301-6.385c0.015-0.211,2.004-3.51,2.676-4.507V30.363z"/>
	<path fill-rule="evenodd" clip-rule="evenodd" fill="#5270DF" d="M5.912,40.461c0.798,0.818,1.798,1.323,2.799,1.842
		c0.652,0.336,1.311,0.476,2.03,0.429c0.087,0.075,0.245,0.124,0.245,0.124c-6.997,1.003-10.507-8.909-10.507-8.909
		c0.763-0.423,0.862,0.279,1.062,0.681c0.581,1.174,1.259,2.279,2.104,3.277l0,0C4.223,38.917,5.26,39.518,5.912,40.461z"/>
	<path fill-rule="evenodd" clip-rule="evenodd" fill="#5773EC" d="M3.646,37.904c-1.268-0.628-1.655-1.921-2.272-3.031
		c-0.224-0.401-0.28-0.92-0.894-0.927c-0.586-2.215-0.623-4.402,0.309-6.544c0.404,0.313,0.349,0.755,0.243,1.153
		c-0.649,2.419,0.064,4.556,1.169,6.687C2.665,36.138,3.532,36.825,3.646,37.904z"/>
	<path fill-rule="evenodd" clip-rule="evenodd" fill="#627EFD" d="M30.282,35.02c0.004,0.451,0.222,0.531,0.596,0.336
		c0.485,0.615,0.049,1.051-0.308,1.476c-0.548,0.654-1.231,1.167-1.844,1.747c-0.304,0.291-0.694,0.629-0.312,1.069
		c0.351,0.408,0.771,0.212,1.115-0.093c0.472-0.409,1.962-0.426,2.622-0.382c0,0-1.98,1.831-4.044,3.33
		c-0.313,0.228,0.036-0.197-1.432-0.244c-1.916-0.059-2.435-0.741-1.835-2.433C25.922,39.035,29.68,35.257,30.282,35.02z"/>
	<path fill-rule="evenodd" clip-rule="evenodd" fill="#6883FE" d="M31.785,39.362c-0.879-0.712-1.744,0.952-2.363,1.379
		c-0.282,0.195-0.086-0.188-0.591-0.454c-0.348-0.182-0.926,0.041-1.04-0.549c-0.094-0.491,0.021-0.898,0.455-1.246
		c0.694-0.559,1.328-1.194,1.998-1.791c0.401-0.362,0.711-0.758,0.634-1.346l0,0c1.915-2.695,2.875-5.591,1.769-8.886
		c-0.121-0.37-3.45-1.832-3.45-1.832v-3.184c0.731,0.486,3.099,2.015,4.892,5.967c1.578,4.262,0.984,8.212-1.936,11.752
		C32.152,39.173,31.909,39.3,31.785,39.362z"/>
	<path fill-rule="evenodd" clip-rule="evenodd" fill="#445AE7" d="M30.924,30.545c-0.246-1.323-1.18-2.697-1.728-3.9v-3.672
		c1.371,1.236,1.538,2.899,2.033,4.43c0.496,1.543,0.577,3.202,0.087,4.822C30.924,31.736,31.434,31.014,30.924,30.545z"/>
	<path fill-rule="evenodd" clip-rule="evenodd" fill="#627EFD" d="M32.282,24.589c0.091,0.093,0.182,0.189,0.277,0.285
		c0.021,0.222,0.078,0.429,0.279,0.566c-0.059,0.221-0.216,0.472-0.033,0.67c1.277,1.391,0.484,3.023,0.526,4.551
		c0.042,1.461-1.028,2.556-1.395,3.896c-0.125,0.467-0.525,0.776-1.06,0.799c0.046-0.449,0.202-0.847,0.569-1.134
		c0.272-0.44,0.318-0.971,0.564-1.42l0,0c0.173-0.148,0.121-0.41,0.283-0.567l0,0c0.474-1.702,0.43-3.404,0-5.106l0,0
		c-0.043-0.977-0.637-1.841-0.565-2.836C31.914,24.39,32.097,24.488,32.282,24.589z"/>
	<path fill-rule="evenodd" clip-rule="evenodd" fill="#5F78FF" d="M32.295,27.128c0.328,0.233,0.519,0.598,0.535,0.96
		c0.04,1.13,0.026,2.262,0.016,3.391c-0.004,0.363-0.233,0.6-0.551,0.756C32.295,30.532,32.295,28.83,32.295,27.128z"/>
	<path fill-rule="evenodd" clip-rule="evenodd" fill="#5F78FF" d="M31.164,23.724c0.094,0.094,0.186,0.187,0.28,0.283
		C31.35,23.91,31.258,23.817,31.164,23.724z"/>
	<path fill-rule="evenodd" clip-rule="evenodd" fill="#6783FC" d="M10.986,42.855c-0.554-0.653-0.874-1.628-1.93-1.667
		c-0.19-0.004-0.384-0.237-0.562-0.382c-1.181-0.956-2.393-1.871-3.508-2.899c-0.529-0.485-0.946-1.166-0.215-1.902
		c0.154-0.155,0.385-1.075,0.478-0.856C5.953,36.801,13.859,41.723,10.986,42.855z"/>
	<path fill-rule="evenodd" clip-rule="evenodd" fill="#5773EC" d="M5.912,40.461c-0.864-0.752-2.039-1.232-2.267-2.557
		c0.967,0.433,1.328,1.613,2.406,1.934C6.227,39.891,5.972,40.247,5.912,40.461z"/>
	<path fill-rule="evenodd" clip-rule="evenodd" fill="#5A76EF" d="M22.681,43.419c-2.821-0.962,0.372-2.678,0.372-2.678
		c1.419,0.212,2.371,1.65,3.899,1.305c0.287-0.063,1.065,0.115,1.156,0.457C26.953,43.598,23.311,43.655,22.681,43.419z"/>
	<path fill-rule="evenodd" clip-rule="evenodd" fill="#5B75FB" d="M22.43,41.234c0.648-0.71,1.867-0.993,2.985-1.88
		c0.092,0.002-0.501,2.504,1.052,2.525c0.096,0,0.194-0.013,0.282,0.003c0.548,0.103,1.21-0.34,1.622,0.048
		c0.512,0.487-1.931,1.386-1.225,1.038c0.189-0.091,0.286-0.23,0.262-0.435c-0.028-0.222-0.228-0.382-0.383-0.315
		c-1.104,0.476-2.082-0.134-3.109-0.313c-0.367-0.063-0.75,0.006-1.116-0.047C22.414,41.809,22.289,41.389,22.43,41.234z"/>
	<path fill-rule="evenodd" clip-rule="evenodd" fill="#627EFD" d="M24.35,40.175c-0.101,0.09-0.203,0.182-0.303,0.272
		C24.146,40.356,24.249,40.265,24.35,40.175z"/>
	<path fill-rule="evenodd" clip-rule="evenodd" fill="#627EFD" d="M24.638,39.899c-0.097,0.094-0.194,0.184-0.292,0.275
		C24.443,40.083,24.541,39.993,24.638,39.899z"/>
</g>
</svg>
