<?xml version="1.0" encoding="utf-8"?>
<!-- Generator: Adobe Illustrator 16.0.0, SVG Export Plug-In . SVG Version: 6.00 Build 0)  -->
<!DOCTYPE svg PUBLIC "-//W3C//DTD SVG 1.1//EN" "http://www.w3.org/Graphics/SVG/1.1/DTD/svg11.dtd">
<svg version="1.1" id="Layer_1" xmlns="http://www.w3.org/2000/svg" xmlns:xlink="http://www.w3.org/1999/xlink" x="0px" y="0px"
	 width="89px" height="76px" viewBox="0 0 89 76" enable-background="new 0 0 89 76" xml:space="preserve">
<rect x="1.557" y="1.566" fill-rule="evenodd" clip-rule="evenodd" fill="#C9C9C9" stroke="#C68C58" stroke-width="3" stroke-miterlimit="10" width="85.887" height="53.261"/>
<g>
	<path fill-rule="evenodd" clip-rule="evenodd" fill="#19CFF9" d="M35.4,74.159c0,0.982,0.795,1.775,1.773,1.775h19.182
		c0.979,0,1.775-0.793,1.775-1.775V41.362c0-0.982-0.797-1.775-1.775-1.775H37.174c-0.979,0-1.773,0.793-1.773,1.775V74.159z"/>
	<path fill-rule="evenodd" clip-rule="evenodd" fill="#5F78FF" d="M35.4,74.159c0,0.982,0.795,1.775,1.773,1.775V39.586
		c-0.979,0-1.773,0.793-1.773,1.775V74.159z"/>
	<path fill-rule="evenodd" clip-rule="evenodd" fill="#00B9F2" d="M56.35,45.875h-9.361h-0.406h-9.357
		c-0.502,0-0.906,0.403-0.906,0.903V69.34v3.395v2.149c0,0.497,0.404,0.905,0.906,0.905h9.357h0.406h9.361
		c0.498,0,0.902-0.408,0.902-0.905v-2.149V69.34V46.778C57.252,46.278,56.848,45.875,56.35,45.875z"/>
</g>
<circle fill-rule="evenodd" clip-rule="evenodd" fill="#CCD7C8" cx="46.766" cy="58.194" r="5.146"/>
<circle fill-rule="evenodd" clip-rule="evenodd" fill="#D9DCD5" cx="47.339" cy="57.83" r="4.431"/>
<circle fill-rule="evenodd" clip-rule="evenodd" fill="#E7E9E7" cx="47.777" cy="57.391" r="3.752"/>
<circle fill-rule="evenodd" clip-rule="evenodd" fill="#242524" cx="46.766" cy="56.529" r="2.236"/>
<g>
	<text transform="matrix(1 0 0 1 7.2588 27.356)" fill="#FFFFFF" font-family="'CFAstyStd-Book'" font-size="22">Αα</text>
</g>
</svg>
