<?xml version="1.0" encoding="utf-8"?>
<!-- Generator: Adobe Illustrator 16.0.0, SVG Export Plug-In . SVG Version: 6.00 Build 0)  -->
<!DOCTYPE svg PUBLIC "-//W3C//DTD SVG 1.1//EN" "http://www.w3.org/Graphics/SVG/1.1/DTD/svg11.dtd">
<svg version="1.1" id="Layer_1" xmlns="http://www.w3.org/2000/svg" xmlns:xlink="http://www.w3.org/1999/xlink" x="0px" y="0px"
	 width="64px" height="66px" viewBox="0 0 64 66" enable-background="new 0 0 64 66" xml:space="preserve">
<g>
	<circle fill-rule="evenodd" clip-rule="evenodd" fill="#04D075" cx="58.017" cy="56.885" r="5.916"/>
	<circle fill-rule="evenodd" clip-rule="evenodd" fill="#03DB7C" cx="58.675" cy="56.467" r="5.094"/>
	<circle fill-rule="evenodd" clip-rule="evenodd" fill="#01E682" cx="59.179" cy="55.962" r="4.312"/>
	<circle fill-rule="evenodd" clip-rule="evenodd" fill="#03EE89" cx="59.864" cy="55.276" r="3.262"/>
</g>
<g>
	<circle fill-rule="evenodd" clip-rule="evenodd" fill="#04D075" cx="42.007" cy="55.884" r="5.917"/>
	<circle fill-rule="evenodd" clip-rule="evenodd" fill="#03DB7C" cx="42.666" cy="55.466" r="5.093"/>
	<circle fill-rule="evenodd" clip-rule="evenodd" fill="#01E682" cx="43.17" cy="54.961" r="4.312"/>
	<circle fill-rule="evenodd" clip-rule="evenodd" fill="#03EE89" cx="43.854" cy="54.275" r="3.262"/>
</g>
<g>
	<circle fill-rule="evenodd" clip-rule="evenodd" fill="#04D075" cx="5.984" cy="54.887" r="5.917"/>
	<circle fill-rule="evenodd" clip-rule="evenodd" fill="#03DB7C" cx="6.642" cy="54.469" r="5.093"/>
	<circle fill-rule="evenodd" clip-rule="evenodd" fill="#01E682" cx="7.147" cy="53.964" r="4.312"/>
	<circle fill-rule="evenodd" clip-rule="evenodd" fill="#03EE89" cx="7.831" cy="53.278" r="3.261"/>
</g>
<g>
	<path fill-rule="evenodd" clip-rule="evenodd" fill="#7592FC" d="M16.835,59.359c0,1.102,0.889,1.99,1.986,1.99h17.012
		c1.098,0,1.986-0.889,1.986-1.99V2.182c0-1.101-0.889-1.986-1.986-1.986H18.821c-1.097,0-1.986,0.885-1.986,1.986V59.359z"/>
	<path fill-rule="evenodd" clip-rule="evenodd" fill="#556EE8" d="M16.915,59.592c0,0.939,0.759,1.697,1.695,1.697V0.196
		c-0.936,0-1.695,0.756-1.695,1.694V59.592z"/>
	<path fill="#5F78FF" d="M36.837,60.176c0,0.56-0.454,1.009-1.012,1.009H18.874c-0.559,0-1.012-0.449-1.012-1.009V8.248
		c0-0.556,0.453-1.014,1.012-1.014h16.951c0.558,0,1.012,0.458,1.012,1.014V60.176z"/>
</g>
<g>
	<circle fill-rule="evenodd" clip-rule="evenodd" fill="#04D075" cx="27.349" cy="36.522" r="10.271"/>
	<path fill-rule="evenodd" clip-rule="evenodd" fill="#03DB7C" d="M19.65,35.797c0,4.885,3.959,8.842,8.84,8.842
		c4.888,0,8.843-3.957,8.843-8.842c0-4.885-3.956-8.842-8.843-8.842C23.609,26.955,19.65,30.912,19.65,35.797z"/>
	<circle fill-rule="evenodd" clip-rule="evenodd" fill="#01E682" cx="29.368" cy="34.921" r="7.486"/>
	<circle fill-rule="evenodd" clip-rule="evenodd" fill="#03EE89" cx="30.556" cy="33.731" r="5.662"/>
</g>
<g>
	<circle fill-rule="evenodd" clip-rule="evenodd" fill="#04D075" cx="13.989" cy="59.888" r="5.917"/>
	<circle fill-rule="evenodd" clip-rule="evenodd" fill="#03DB7C" cx="14.647" cy="59.47" r="5.093"/>
	<circle fill-rule="evenodd" clip-rule="evenodd" fill="#01E682" cx="15.152" cy="58.965" r="4.312"/>
	<circle fill-rule="evenodd" clip-rule="evenodd" fill="#03EE89" cx="15.837" cy="58.279" r="3.261"/>
</g>
<g>
	<circle fill-rule="evenodd" clip-rule="evenodd" fill="#04D075" cx="54.015" cy="59.888" r="5.916"/>
	<circle fill-rule="evenodd" clip-rule="evenodd" fill="#03DB7C" cx="54.673" cy="59.47" r="5.094"/>
	<circle fill-rule="evenodd" clip-rule="evenodd" fill="#01E682" cx="55.177" cy="58.965" r="4.312"/>
	<circle fill-rule="evenodd" clip-rule="evenodd" fill="#03EE89" cx="55.862" cy="58.279" r="3.262"/>
</g>
<g>
	<path fill-rule="evenodd" clip-rule="evenodd" fill="#5A73FC" d="M37.851,21.515c0.116,0.205,0.664,0.245,0.799,0.419l0.033,0.025
		c0.222,0.338,0.479,0.64,0.865,0.805l0.004,0.003c0.113,0.189,0.151,0.415,0.295,0.591c0.074,0.087,0.149,0.178,0.221,0.265
		c0.074,0.095,0.137,0.195,0.191,0.298c0.058,0.112,0.098,0.23,0.131,0.351c0.225,0.93,0.543,1.832,0.786,2.758
		c0.044,0.135,0.075,0.271,0.099,0.409c0.086,1.391,0.076,2.779,0.018,4.168c-0.018,0.139-0.052,0.273-0.094,0.408
		c-0.064,0.194-0.149,0.377-0.24,0.557c-0.052,0.123-0.112,0.235-0.174,0.349c-0.23,0.374-0.346,0.801-0.49,1.213
		c-0.154,0.354-0.323,0.697-0.512,1.029c-0.072,0.111-0.16,0.211-0.263,0.299c-0.556,0.307-1.3,0.543-1.339,0.037
		c1.505-1.429,1.824-4.054,0.412-7.664c0.645-0.083,0.898-1.139-0.136-3.451c-0.101-0.225-0.606-1.278-0.606-1.278V21.515z"/>
	<path fill-rule="evenodd" clip-rule="evenodd" fill="#627EFD" d="M38.937,34.93c0.004,0.451,0.223,0.532,0.596,0.336
		c0.486,0.615,0.049,1.051-0.308,1.476c-0.548,0.654-1.231,1.167-1.844,1.747c-0.304,0.292-0.694,0.629-0.312,1.069
		c0.352,0.408,0.771,0.212,1.115-0.093c0.473-0.409,1.963-0.426,2.622-0.382c0,0-1.98,1.831-4.044,3.33
		c-0.313,0.228,0.036-0.197-1.432-0.244c-1.916-0.059-2.434-0.741-1.834-2.433C34.576,38.945,38.335,35.167,38.937,34.93z"/>
	<path fill-rule="evenodd" clip-rule="evenodd" fill="#6883FE" d="M40.44,39.272c-0.88-0.711-1.745,0.953-2.364,1.379
		c-0.282,0.195-0.085-0.188-0.591-0.454c-0.348-0.182-0.926,0.042-1.039-0.548c-0.095-0.492,0.021-0.898,0.454-1.246
		c0.694-0.56,1.328-1.195,1.999-1.792c0.4-0.362,0.71-0.758,0.633-1.346l0,0c1.915-2.695,2.875-5.59,1.77-8.885
		c-0.122-0.37-3.451-1.832-3.451-1.832v-3.184c0.731,0.486,3.1,2.015,4.892,5.967c1.578,4.261,0.984,8.211-1.936,11.751
		C40.807,39.083,40.563,39.21,40.44,39.272z"/>
	<path fill-rule="evenodd" clip-rule="evenodd" fill="#445AE7" d="M39.579,30.456c-0.246-1.324-1.18-2.698-1.729-3.901v-3.672
		c1.371,1.236,1.539,2.9,2.033,4.43c0.496,1.543,0.578,3.202,0.087,4.822C39.579,31.646,40.088,30.924,39.579,30.456z"/>
	<path fill-rule="evenodd" clip-rule="evenodd" fill="#627EFD" d="M40.937,24.5c0.092,0.092,0.182,0.189,0.277,0.285
		c0.021,0.222,0.078,0.429,0.279,0.566c-0.059,0.221-0.216,0.472-0.033,0.67c1.277,1.391,0.484,3.024,0.526,4.551
		c0.042,1.46-1.028,2.556-1.394,3.895c-0.125,0.468-0.525,0.776-1.061,0.799c0.047-0.448,0.203-0.847,0.569-1.134
		c0.272-0.439,0.318-0.971,0.565-1.419l0,0c0.172-0.148,0.121-0.41,0.283-0.568l0,0c0.473-1.702,0.429-3.404,0-5.106l0,0
		c-0.044-0.977-0.637-1.841-0.566-2.836C40.569,24.3,40.751,24.398,40.937,24.5z"/>
	<path fill-rule="evenodd" clip-rule="evenodd" fill="#5F78FF" d="M40.95,27.039c0.327,0.233,0.518,0.597,0.534,0.96
		c0.04,1.129,0.026,2.261,0.016,3.39c-0.004,0.364-0.233,0.6-0.55,0.756C40.95,30.443,40.95,28.74,40.95,27.039z"/>
	<path fill-rule="evenodd" clip-rule="evenodd" fill="#5F78FF" d="M39.818,23.634c0.095,0.094,0.187,0.186,0.28,0.283
		C40.005,23.82,39.913,23.728,39.818,23.634z"/>
	<path fill-rule="evenodd" clip-rule="evenodd" fill="#5A76EF" d="M31.335,43.33c-2.821-0.963,0.372-2.679,0.372-2.679
		c1.419,0.212,2.371,1.65,3.899,1.305c0.287-0.063,1.066,0.115,1.156,0.457C35.607,43.508,31.965,43.566,31.335,43.33z"/>
	<path fill-rule="evenodd" clip-rule="evenodd" fill="#5B75FB" d="M31.084,41.146c0.648-0.711,1.867-0.994,2.985-1.881
		c0.092,0.002-0.501,2.504,1.052,2.525c0.097,0,0.194-0.012,0.282,0.004c0.548,0.102,1.211-0.341,1.623,0.047
		c0.512,0.487-1.932,1.386-1.226,1.038c0.189-0.091,0.286-0.23,0.263-0.435c-0.029-0.222-0.229-0.381-0.383-0.314
		c-1.104,0.475-2.082-0.135-3.11-0.314c-0.367-0.063-0.75,0.006-1.116-0.047C31.069,41.72,30.944,41.3,31.084,41.146z"/>
	<path fill-rule="evenodd" clip-rule="evenodd" fill="#627EFD" d="M33.004,40.085c-0.101,0.09-0.203,0.182-0.302,0.273
		C32.801,40.267,32.903,40.175,33.004,40.085z"/>
	<path fill-rule="evenodd" clip-rule="evenodd" fill="#627EFD" d="M33.292,39.81c-0.097,0.094-0.194,0.184-0.292,0.275
		C33.098,39.993,33.195,39.903,33.292,39.81z"/>
</g>
<g>
	<path fill-rule="evenodd" clip-rule="evenodd" fill="#5A73FC" d="M16.894,21.515c-0.116,0.205-0.664,0.245-0.799,0.419
		l-0.034,0.025c-0.221,0.338-0.479,0.64-0.865,0.805l-0.003,0.003c-0.114,0.189-0.152,0.415-0.295,0.591
		c-0.075,0.087-0.15,0.178-0.221,0.265c-0.075,0.095-0.138,0.195-0.192,0.298c-0.057,0.112-0.097,0.23-0.131,0.351
		c-0.224,0.93-0.542,1.832-0.786,2.758c-0.043,0.135-0.075,0.271-0.098,0.409c-0.087,1.391-0.076,2.779-0.018,4.168
		c0.018,0.139,0.052,0.273,0.093,0.408c0.064,0.194,0.15,0.377,0.241,0.557c0.052,0.123,0.112,0.235,0.174,0.349
		c0.229,0.374,0.346,0.801,0.49,1.213c0.154,0.354,0.323,0.697,0.511,1.029c0.073,0.111,0.161,0.211,0.263,0.299
		c0.556,0.307,1.299,0.543,1.339,0.037c-1.505-1.429-1.825-4.054-0.413-7.664c-0.645-0.083-0.899-1.139,0.136-3.451
		c0.101-0.225,0.606-1.278,0.606-1.278V21.515z"/>
	<path fill-rule="evenodd" clip-rule="evenodd" fill="#6883FE" d="M14.305,39.272c0.879-0.711,1.745,0.953,2.364,1.379
		c0.282,0.195,0.085-0.188,0.59-0.454c0.348-0.182,0.926,0.042,1.04-0.548c0.094-0.492-0.021-0.898-0.455-1.246
		c-0.694-0.56-1.328-1.195-1.999-1.792c-0.401-0.362-0.71-0.758-0.633-1.346l0,0c-1.915-2.695-2.875-5.59-1.769-8.885
		c0.122-0.37,3.451-1.832,3.451-1.832v-3.184c-0.731,0.486-3.099,2.015-4.892,5.967c-1.578,4.261-0.984,8.211,1.936,11.751
		C13.938,39.083,14.181,39.21,14.305,39.272z"/>
	<path fill-rule="evenodd" clip-rule="evenodd" fill="#445AE7" d="M15.166,30.456c0.246-1.324,1.18-2.698,1.728-3.901v-3.672
		c-1.371,1.236-1.539,2.9-2.033,4.43c-0.496,1.543-0.578,3.202-0.087,4.822C15.166,31.646,14.657,30.924,15.166,30.456z"/>
	<path fill-rule="evenodd" clip-rule="evenodd" fill="#627EFD" d="M13.808,24.5c-0.091,0.092-0.182,0.189-0.277,0.285
		c-0.021,0.222-0.078,0.429-0.28,0.566c0.059,0.221,0.216,0.472,0.034,0.67c-1.278,1.391-0.484,3.024-0.526,4.551
		c-0.042,1.46,1.028,2.556,1.394,3.895c0.125,0.468,0.525,0.776,1.06,0.799c-0.046-0.448-0.203-0.847-0.569-1.134
		c-0.273-0.439-0.318-0.971-0.565-1.419l0,0c-0.173-0.148-0.121-0.41-0.283-0.568l0,0c-0.473-1.702-0.429-3.404,0-5.106l0,0
		c0.043-0.977,0.637-1.841,0.566-2.836C14.176,24.3,13.994,24.398,13.808,24.5z"/>
	<path fill-rule="evenodd" clip-rule="evenodd" fill="#5F78FF" d="M13.795,27.039c-0.328,0.233-0.518,0.597-0.535,0.96
		c-0.04,1.129-0.026,2.261-0.016,3.39c0.004,0.364,0.233,0.6,0.55,0.756C13.795,30.443,13.795,28.74,13.795,27.039z"/>
	<path fill-rule="evenodd" clip-rule="evenodd" fill="#5F78FF" d="M14.926,23.634c-0.094,0.094-0.186,0.186-0.28,0.283
		C14.74,23.82,14.832,23.728,14.926,23.634z"/>
	<path fill-rule="evenodd" clip-rule="evenodd" fill="#627EFD" d="M20.677,39.267c-1.497-1.244-4.348-4.131-4.87-4.337
		c-0.003,0.451-0.222,0.532-0.595,0.336c-0.486,0.615-0.049,1.051,0.308,1.476c0.548,0.654,1.231,1.167,1.844,1.747
		c0.303,0.292,0.694,0.629,0.312,1.069c-0.351,0.408-0.771,0.212-1.115-0.093c-0.472-0.409-1.962-0.426-2.622-0.382
		c0,0,5.201,5.229,9.472,4.247C26.314,42.661,21.483,39.937,20.677,39.267z"/>
</g>
</svg>
