<?xml version="1.0" encoding="utf-8"?>
<!-- Generator: Adobe Illustrator 16.0.0, SVG Export Plug-In . SVG Version: 6.00 Build 0)  -->
<!DOCTYPE svg PUBLIC "-//W3C//DTD SVG 1.1//EN" "http://www.w3.org/Graphics/SVG/1.1/DTD/svg11.dtd">
<svg version="1.1" id="Layer_1" xmlns="http://www.w3.org/2000/svg" xmlns:xlink="http://www.w3.org/1999/xlink" x="0px" y="0px"
	 width="32px" height="80px" viewBox="0 0 32 80" enable-background="new 0 0 32 80" xml:space="preserve">
<g>
	<path fill-rule="evenodd" clip-rule="evenodd" fill="#19CFF9" d="M4.084,37.572c0,1.03,0.835,1.861,1.861,1.861h20.122
		c1.026,0,1.862-0.831,1.862-1.861V2.119c0-1.031-0.836-1.863-1.862-1.863H5.946c-1.026,0-1.861,0.832-1.861,1.863V37.572z"/>
	<path fill-rule="evenodd" clip-rule="evenodd" fill="#5F78FF" d="M4.084,37.572c0,1.03,0.835,1.861,1.861,1.861V0.255
		c-1.026,0-1.861,0.832-1.861,1.863V37.572z"/>
	<path fill-rule="evenodd" clip-rule="evenodd" fill="#00B9F2" d="M26.063,7.902h-9.821h-0.427H5.999
		c-0.526,0-0.951,0.423-0.951,0.946v23.669v3.562v2.255c0,0.521,0.425,0.95,0.951,0.95h9.816h0.427h9.821
		c0.522,0,0.945-0.429,0.945-0.95v-2.255v-3.562V8.848C27.008,8.325,26.585,7.902,26.063,7.902z"/>
</g>
<line fill="none" stroke="#5F78FF" stroke-width="0.5" stroke-miterlimit="10" x1="15.999" y1="48.93" x2="15.999" y2="39.284"/>
<g>
	<g>
		<path fill="#5F78FF" d="M15.999,79.745c-8.692,0-15.765-7.073-15.765-15.764c0-8.694,7.072-15.765,15.765-15.765
			c8.694,0,15.767,7.07,15.767,15.765C31.766,72.671,24.693,79.745,15.999,79.745z M15.999,51.187
			c-7.054,0-12.792,5.739-12.792,12.794c0,7.054,5.738,12.792,12.792,12.792c7.055,0,12.792-5.738,12.792-12.792
			C28.791,56.926,23.054,51.187,15.999,51.187z"/>
	</g>
</g>
<g>
	<rect x="15.627" y="51.843" fill="#ABBBFF" width="0.744" height="24.274"/>
</g>
<g>
	<rect x="3.862" y="63.609" fill="#ABBBFF" width="24.272" height="0.743"/>
</g>
<g>
	
		<rect x="3.861" y="63.608" transform="matrix(0.7071 0.7071 -0.7071 0.7071 49.9269 7.4281)" fill="#ABBBFF" width="24.272" height="0.744"/>
</g>
<g>
	
		<rect x="15.627" y="51.842" transform="matrix(0.7074 0.7068 -0.7068 0.7074 49.9004 7.4105)" fill="#ABBBFF" width="0.743" height="24.275"/>
</g>
<g>
	<circle fill-rule="evenodd" clip-rule="evenodd" fill="#CCD7C8" cx="15.997" cy="20.061" r="5.399"/>
	<path fill-rule="evenodd" clip-rule="evenodd" fill="#D9DCD5" d="M11.951,19.679c0,2.568,2.08,4.646,4.646,4.646
		c2.568,0,4.652-2.078,4.652-4.646s-2.084-4.647-4.652-4.647C14.03,15.032,11.951,17.111,11.951,19.679z"/>
	<circle fill-rule="evenodd" clip-rule="evenodd" fill="#E7E9E7" cx="17.059" cy="19.218" r="3.935"/>
	<path fill-rule="evenodd" clip-rule="evenodd" fill="#242524" d="M18.344,18.313c0,1.298-1.051,2.349-2.347,2.349
		s-2.346-1.051-2.346-2.349c0-1.294,1.05-2.346,2.346-2.346S18.344,17.019,18.344,18.313z"/>
</g>
</svg>
