<?xml version="1.0" encoding="utf-8"?>
<!-- Generator: Adobe Illustrator 16.0.0, SVG Export Plug-In . SVG Version: 6.00 Build 0)  -->
<!DOCTYPE svg PUBLIC "-//W3C//DTD SVG 1.1//EN" "http://www.w3.org/Graphics/SVG/1.1/DTD/svg11.dtd">
<svg version="1.1" id="Layer_1" xmlns="http://www.w3.org/2000/svg" xmlns:xlink="http://www.w3.org/1999/xlink" x="0px" y="0px"
	 width="51px" height="53px" viewBox="0 0 51 53" enable-background="new 0 0 51 53" xml:space="preserve">
<path fill-rule="evenodd" clip-rule="evenodd" fill="#FFE379" d="M48.837,0.254H30.375c-0.941,0-1.707,0.764-1.707,1.709v11.08
	h-7.242c-0.943,0-1.709,0.764-1.709,1.709v11.08h-7.242c-0.943,0-1.708,0.764-1.708,1.708v11.084H2.244
	c-0.944,0-1.707,0.764-1.707,1.709v10.619c0,0.943,0.763,1.707,1.707,1.707h46.594c0.942,0,1.708-0.764,1.708-1.707V1.963
	C50.545,1.018,49.78,0.254,48.837,0.254z"/>
<path fill-rule="evenodd" clip-rule="evenodd" fill="#EFCC60" d="M0.455,51.031c0,0.947,0.768,1.715,1.713,1.715V38.664
	c-0.945,0-1.713,0.766-1.713,1.715V51.031z"/>
<path fill-rule="evenodd" clip-rule="evenodd" fill="#EFCC60" d="M10.766,48.395c0,0.945,0.765,1.709,1.708,1.709V25.833
	c-0.943,0-1.708,0.764-1.708,1.708V48.395z"/>
<path fill-rule="evenodd" clip-rule="evenodd" fill="#EFCC60" d="M19.716,48.395c0,0.945,0.766,1.709,1.709,1.709v-37.06
	c-0.943,0-1.709,0.764-1.709,1.709V48.395z"/>
<path fill-rule="evenodd" clip-rule="evenodd" fill="#EFCC60" d="M28.667,48.395c0,0.945,0.766,1.709,1.707,1.709V0.254
	c-0.941,0-1.707,0.764-1.707,1.709V48.395z"/>
<path fill-rule="evenodd" clip-rule="evenodd" fill="#FFB160" d="M48.831,6.307h-9.009h-0.394h-9.006
	c-0.48,0-0.872,0.387-0.872,0.869v11.92h-8.079c-0.48,0-0.87,0.389-0.87,0.869v11.921h-8.08c-0.482,0-0.871,0.387-0.871,0.869v11.92
	h-0.353H2.291c-0.481,0-0.87,0.389-0.87,0.871v6.242c0,0.479,0.389,0.871,0.87,0.871h46.54c0.479,0,0.87-0.393,0.87-0.871V7.176
	C49.701,6.694,49.31,6.307,48.831,6.307z"/>
<path fill-rule="evenodd" clip-rule="evenodd" fill="#CCD7C8" d="M44.56,18.165c0,2.734-2.218,4.951-4.953,4.951
	s-4.954-2.217-4.954-4.951c0-2.738,2.219-4.955,4.954-4.955S44.56,15.426,44.56,18.165z"/>
<circle fill-rule="evenodd" clip-rule="evenodd" fill="#D9DCD5" cx="40.159" cy="17.813" r="4.265"/>
<circle fill-rule="evenodd" clip-rule="evenodd" fill="#E7E9E7" cx="40.581" cy="17.391" r="3.611"/>
<circle fill-rule="evenodd" clip-rule="evenodd" fill="#FAFCFC" cx="41.153" cy="16.817" r="2.731"/>
<circle fill-rule="evenodd" clip-rule="evenodd" fill="#242524" cx="39.607" cy="16.561" r="2.153"/>
</svg>
