<?xml version="1.0" encoding="utf-8"?>
<!-- Generator: Adobe Illustrator 16.0.0, SVG Export Plug-In . SVG Version: 6.00 Build 0)  -->
<!DOCTYPE svg PUBLIC "-//W3C//DTD SVG 1.1//EN" "http://www.w3.org/Graphics/SVG/1.1/DTD/svg11.dtd">
<svg version="1.1" id="Layer_1" xmlns="http://www.w3.org/2000/svg" xmlns:xlink="http://www.w3.org/1999/xlink" x="0px" y="0px"
	 width="16px" height="16px" viewBox="82 102 16 16" enable-background="new 82 102 16 16" xml:space="preserve">
<title>X</title>
<desc>Created with Sketch.</desc>
<g>
	<g>
		<path fill="#FFFFFF" d="M88.927,110l-6.705-6.705c-0.296-0.296-0.296-0.776,0-1.073s0.777-0.296,1.073,0L90,108.927l6.705-6.705
			c0.296-0.296,0.776-0.296,1.073,0c0.296,0.296,0.296,0.777,0,1.073L91.073,110l6.705,6.705c0.296,0.296,0.296,0.776,0,1.073
			c-0.297,0.296-0.777,0.296-1.073,0L90,111.073l-6.705,6.705c-0.296,0.296-0.776,0.296-1.073,0s-0.296-0.776,0-1.073L88.927,110z"
			/>
	</g>
</g>
</svg>
