<?xml version="1.0" encoding="utf-8"?>
<!-- Generator: Adobe Illustrator 16.0.0, SVG Export Plug-In . SVG Version: 6.00 Build 0)  -->
<!DOCTYPE svg PUBLIC "-//W3C//DTD SVG 1.1//EN" "http://www.w3.org/Graphics/SVG/1.1/DTD/svg11.dtd">
<svg version="1.1" id="Layer_1" xmlns="http://www.w3.org/2000/svg" xmlns:xlink="http://www.w3.org/1999/xlink" x="0px" y="0px"
	 width="91.737px" height="8.768px" viewBox="0 0 91.737 8.768" enable-background="new 0 0 91.737 8.768" xml:space="preserve">
<g>
	<g>
		<path fill="#00B9F2" d="M2.869,7.811c2.495-3.544,12.193,0.37,15.787,0.848c2.865,0.381,6.549-1.689,9.09-2.657
			c5.222-1.988,14.779,6.006,19.221,1.208c2.215-2.393,7.246-2.953,10.106-2.386c3.826,0.758,7.121,3.872,11.216,3.061
			c2.172-0.431,5.635-1.034,6.111-3.711c0.686-3.853,12.779,2.492,15.075,3.75c1.701,0.933,3.218-1.663,1.518-2.596
			c-2.808-1.54-19.311-9.918-19.536-1.915c-0.113,4.012-14.131-1.645-16.112-1.924c-2.963-0.418-6.567,1.075-9.084,2.499
			c-4.317,2.443-8.595,0.148-13.132-0.955c-3.957-0.962-5.954,0.126-9.821,1.354c-1.31,0.416-2.69,1.239-4.084,1.3
			c-2.76,0.123-6.004-0.985-8.65-1.665C6.535,2.986,2.882,2.586,0.273,6.293C-0.846,7.883,1.763,9.383,2.869,7.811L2.869,7.811z"/>
	</g>
</g>
</svg>
