<?xml version="1.0" encoding="utf-8"?>
<!-- Generator: Adobe Illustrator 16.0.0, SVG Export Plug-In . SVG Version: 6.00 Build 0)  -->
<!DOCTYPE svg PUBLIC "-//W3C//DTD SVG 1.1//EN" "http://www.w3.org/Graphics/SVG/1.1/DTD/svg11.dtd">
<svg version="1.1" xmlns="http://www.w3.org/2000/svg" xmlns:xlink="http://www.w3.org/1999/xlink" x="0px" y="0px" width="168px"
	 height="64px" viewBox="0 0 168 64" enable-background="new 0 0 168 64" xml:space="preserve">
<g id="Layer_1">
</g>
<g id="btns_home">
	<g>
		<path fill="#00B9F2" d="M4.91,27.806c-0.457,0-0.828-0.375-0.828-0.828V7.97c0-0.454-0.38-0.83-0.835-0.83H0.834
			C0.374,7.14,0,6.769,0,6.315V1.3c0-0.457,0.374-0.829,0.834-0.829h14.112c0.455,0,0.827,0.372,0.827,0.829v5.016
			c0,0.453-0.372,0.825-0.827,0.825h-2.602c-0.456,0-0.833,0.376-0.833,0.83v19.008c0,0.454-0.372,0.828-0.828,0.828H4.91z
			 M26.234,0c7.538,0,10.488,7.466,10.488,14.137c0,6.672-2.95,14.139-10.488,14.139c-7.547,0-10.499-7.467-10.499-14.139
			C15.736,7.466,18.687,0,26.234,0z M26.234,21.388c2.803,0,2.912-5.549,2.912-7.25c0-1.7-0.109-7.249-2.912-7.249
			c-2.811,0-2.918,5.549-2.918,7.249C23.316,15.838,23.424,21.388,26.234,21.388z M46.921,1.3c0-0.457,0.381-0.829,0.834-0.829
			h5.403c0.458,0,0.961,0.349,1.113,0.777l5.375,14.903c0.158,0.425,0.297,0.764,0.323,0.743c0.016-0.021-0.019-0.405-0.078-0.858
			c0,0-0.727-5.416-0.727-8.606V1.3c0-0.457,0.373-0.829,0.832-0.829h5.477c0.456,0,0.832,0.372,0.832,0.829v25.678
			c0,0.454-0.376,0.828-0.832,0.828h-5.477c-0.458,0-0.958-0.353-1.11-0.783l-4.984-14.204c-0.154-0.431-0.294-0.765-0.314-0.749
			c-0.021,0.023,0,0.409,0.046,0.86c0,0,0.43,4.254,0.43,6.863v7.185c0,0.454-0.375,0.828-0.834,0.828h-5.475
			c-0.454,0-0.834-0.375-0.834-0.828V1.3z M68.49,1.3c0-0.457,0.372-0.829,0.831-0.829h12.144c0.46,0,0.832,0.372,0.832,0.829v4.797
			c0,0.456-0.372,0.828-0.832,0.828h-4.711c-0.455,0-0.832,0.371-0.832,0.829v2.149c0,0.458,0.376,0.826,0.832,0.826h4.055
			c0.457,0,0.835,0.375,0.835,0.831v4.797c0,0.454-0.379,0.829-0.835,0.829h-4.055c-0.455,0-0.832,0.369-0.832,0.828v2.511
			c0,0.458,0.376,0.825,0.832,0.825h4.711c0.46,0,0.832,0.376,0.832,0.83v4.799c0,0.454-0.372,0.828-0.832,0.828H69.321
			c-0.459,0-0.831-0.375-0.831-0.828V1.3z M84.828,27.806c-0.458,0-0.828-0.375-0.828-0.828V1.3c0-0.457,0.37-0.829,0.828-0.829
			h5.113c0.46,0,4.857,0.131,6.539,0.72c1.684,0.587,5.771,1.383,5.771,8.561c0,7.104-4.376,9.281-10.816,9.097v8.129
			c0,0.454-0.38,0.828-0.838,0.828H84.828z M91.974,6.343L91.974,6.343c-0.302,0.02-0.54,0.411-0.54,0.865v4.65
			c0,0.453,0.353,0.717,0.791,0.583c0,0,2.522-0.769,2.522-2.803C94.748,7.903,93.796,6.234,91.974,6.343z M13.389,45.898
			l1.054,1.888c0.219,0.398,0.25,1.063,0.07,1.483l-2.33,5.366c-0.397,0.873-0.545,1.45-0.945,2.284
			c1.346-0.111,3.324-0.111,3.324-0.111c0.456,0,1.202,0,1.664,0h2.559c0.462,0,0.832,0.376,0.832,0.83v4.799
			c0,0.453-0.37,0.828-0.832,0.828H1.54c-0.455,0-0.687-0.343-0.512-0.768l5.521-13.223c0.175-0.421,0.162-1.103-0.028-1.518
			l-5.1-11.072c-0.193-0.421,0.027-0.756,0.483-0.756h16.52c0.456,0,0.831,0.373,0.831,0.827v4.799c0,0.455-0.375,0.83-0.831,0.83
			h-1.619c-0.457,0-1.203,0-1.662,0h-1.5c-0.765,0-1.494-0.038-2.222-0.075C12.183,43.581,12.766,44.775,13.389,45.898z
			 M24.93,63.265c-0.459,0-0.836-0.375-0.836-0.828V43.429c0-0.457-0.37-0.829-0.828-0.829h-2.417c-0.458,0-0.832-0.372-0.832-0.827
			v-5.017c0-0.454,0.374-0.827,0.832-0.827H34.96c0.455,0,0.833,0.373,0.833,0.827v5.017c0,0.455-0.377,0.827-0.833,0.827h-2.599
			c-0.458,0-0.831,0.372-0.831,0.829v19.008c0,0.453-0.377,0.828-0.832,0.828H24.93z M48.389,63.265
			c-0.458,0-0.829-0.375-0.829-0.828v-9.435c0-0.46-0.372-0.832-0.833-0.832h-1.867c-0.46,0-0.837,0.372-0.837,0.832v9.435
			c0,0.453-0.373,0.828-0.83,0.828h-5.771c-0.454,0-0.83-0.375-0.83-0.828V36.756c0-0.454,0.376-0.827,0.83-0.827h5.771
			c0.457,0,0.83,0.373,0.83,0.827v8.135c0,0.454,0.377,0.825,0.837,0.825h1.867c0.46,0,0.833-0.371,0.833-0.825v-8.135
			c0-0.454,0.371-0.827,0.829-0.827h5.767c0.46,0,0.833,0.373,0.833,0.827v25.681c0,0.453-0.372,0.828-0.833,0.828H48.389z
			 M57.213,36.756c0-0.454,0.373-0.827,0.832-0.827h5.401c0.457,0,0.959,0.349,1.116,0.779l5.377,14.9
			c0.151,0.426,0.299,0.766,0.316,0.742c0.022-0.021-0.012-0.403-0.073-0.856c0,0-0.729-5.416-0.729-8.606v-6.132
			c0-0.454,0.376-0.827,0.833-0.827h5.479c0.454,0,0.83,0.373,0.83,0.827v25.681c0,0.453-0.376,0.828-0.83,0.828h-5.479
			c-0.458,0-0.956-0.352-1.107-0.784l-4.991-14.204c-0.15-0.431-0.29-0.766-0.31-0.748c-0.018,0.024,0,0.409,0.051,0.86
			c0,0,0.421,4.254,0.421,6.863v7.185c0,0.453-0.371,0.828-0.83,0.828h-5.476c-0.458,0-0.832-0.375-0.832-0.828V36.756z
			 M99.364,63.368c-0.456,0-0.83-0.373-0.83-0.826v-19.31c0-0.452-0.374-0.825-0.83-0.825h-1.887c-0.456,0-0.83,0.373-0.83,0.825
			v19.31c0,0.453-0.373,0.826-0.828,0.826h-5.804c-0.456,0-0.828-0.373-0.828-0.826V36.754c0-0.453,0.372-0.825,0.828-0.825h16.811
			c0.453,0,0.829,0.372,0.829,0.825v25.787c0,0.453-0.376,0.826-0.829,0.826H99.364z M142.493,63.265
			c-0.457,0-0.891-0.368-0.962-0.82l-0.293-1.878c-0.065-0.454-0.172-1.19-0.23-1.638l-1.461-11.325
			c-0.259-1.706-0.56-4.328-0.56-4.328c-0.055-0.449-0.13-0.82-0.169-0.82l0,0c-0.259,1.707-0.646,4.326-0.646,4.326
			c-0.063,0.453-0.178,1.188-0.247,1.64l-1.675,10.508c-0.073,0.45-0.194,1.184-0.271,1.634l-0.331,1.886
			c-0.08,0.448-0.522,0.816-0.98,0.816h-5.987c-0.457,0-0.739-0.363-0.637-0.805l6.208-25.728c0.106-0.442,0.572-0.804,1.028-0.804
			h7.407c0.459,0,0.905,0.363,1.003,0.809l5.486,25.719c0.097,0.443-0.204,0.809-0.659,0.809H142.493z M167.167,35.929h-5.773
			c-0.455,0-0.832,0.373-0.832,0.827v8.135c0,0.454-0.37,0.825-0.827,0.825h-1.87c-0.456,0-0.836-0.371-0.836-0.825v-8.135
			c0-0.454-0.372-0.827-0.827-0.827h-5.771c-0.456,0-0.832,0.373-0.832,0.827v25.681c0,0.453,0.376,0.828,0.832,0.828h5.771
			c0.455,0,0.827-0.375,0.827-0.828v-9.435c0-0.46,0.38-0.832,0.836-0.832h1.87c0.457,0,0.827,0.372,0.827,0.832v9.435
			c0,0.453,0.377,0.828,0.832,0.828h5.773c0.458,0,0.832-0.375,0.832-0.828V36.756C168,36.302,167.625,35.929,167.167,35.929z
			 M152.707,56.595c0,0.101-0.082,0.182-0.185,0.182h-1.114c-0.1,0-0.181-0.081-0.181-0.182v-2.058c0-0.101,0.081-0.181,0.181-0.181
			h1.114c0.103,0,0.185,0.08,0.185,0.181V56.595z M152.707,52.903c0,0.102-0.082,0.182-0.185,0.182h-1.114
			c-0.1,0-0.181-0.08-0.181-0.182v-2.058c0-0.101,0.081-0.181,0.181-0.181h1.114c0.103,0,0.185,0.08,0.185,0.181V52.903z
			 M152.707,49.211c0,0.099-0.082,0.182-0.185,0.182h-1.114c-0.1,0-0.181-0.083-0.181-0.182v-2.059c0-0.101,0.081-0.183,0.181-0.183
			h1.114c0.103,0,0.185,0.082,0.185,0.183V49.211z M152.707,45.518c0,0.101-0.082,0.182-0.185,0.182h-1.114
			c-0.1,0-0.181-0.081-0.181-0.182v-2.059c0-0.098,0.081-0.181,0.181-0.181h1.114c0.103,0,0.185,0.083,0.185,0.181V45.518z
			 M152.707,41.825c0,0.101-0.082,0.182-0.185,0.182h-1.114c-0.1,0-0.181-0.081-0.181-0.182v-2.057c0-0.101,0.081-0.182,0.181-0.182
			h1.114c0.103,0,0.185,0.081,0.185,0.182V41.825z M155.401,60.288c0,0.101-0.082,0.183-0.183,0.183h-1.112
			c-0.103,0-0.185-0.082-0.185-0.183V58.23c0-0.1,0.082-0.181,0.185-0.181h1.112c0.101,0,0.183,0.081,0.183,0.181V60.288z
			 M155.401,56.595c0,0.101-0.082,0.182-0.183,0.182h-1.112c-0.103,0-0.185-0.081-0.185-0.182v-2.058
			c0-0.101,0.082-0.181,0.185-0.181h1.112c0.101,0,0.183,0.08,0.183,0.181V56.595z M155.401,52.903c0,0.102-0.082,0.182-0.183,0.182
			h-1.112c-0.103,0-0.185-0.08-0.185-0.182v-2.058c0-0.101,0.082-0.181,0.185-0.181h1.112c0.101,0,0.183,0.08,0.183,0.181V52.903z
			 M155.401,45.518c0,0.101-0.082,0.182-0.183,0.182h-1.112c-0.103,0-0.185-0.081-0.185-0.182v-2.059
			c0-0.098,0.082-0.181,0.185-0.181h1.112c0.101,0,0.183,0.083,0.183,0.181V45.518z M155.401,41.825
			c0,0.101-0.082,0.182-0.183,0.182h-1.112c-0.103,0-0.185-0.081-0.185-0.182v-2.057c0-0.101,0.082-0.182,0.185-0.182h1.112
			c0.101,0,0.183,0.081,0.183,0.182V41.825z M112.743,0c-7.543,0-10.496,7.466-10.496,14.137c0,6.672,2.953,14.139,10.496,14.139
			c7.536,0,10.489-7.467,10.489-14.139C123.232,7.466,120.279,0,112.743,0z M112.831,21.029c-1.995,0-3.615-1.754-3.615-5.086
			c0-3.331,2.814-10.182,3.615-10.182s3.616,6.851,3.616,10.182C116.447,19.275,114.827,21.029,112.831,21.029z M117.87,35.458
			c7.617,0,10.595,7.537,10.595,14.272c0,6.732-2.978,14.27-10.595,14.27c-7.61,0-10.592-7.537-10.592-14.27
			C107.278,42.996,110.259,35.458,117.87,35.458z M117.87,57.046c2.836,0,2.943-5.599,2.943-7.315c0-1.722-0.107-7.32-2.943-7.32
			c-2.83,0-2.939,5.599-2.939,7.32C114.93,51.448,115.04,57.046,117.87,57.046z"/>
	</g>
</g>
</svg>
