<?xml version="1.0" encoding="utf-8"?>
<!-- Generator: Adobe Illustrator 16.0.0, SVG Export Plug-In . SVG Version: 6.00 Build 0)  -->
<!DOCTYPE svg PUBLIC "-//W3C//DTD SVG 1.1//EN" "http://www.w3.org/Graphics/SVG/1.1/DTD/svg11.dtd">
<svg version="1.1" id="Layer_1" xmlns="http://www.w3.org/2000/svg" xmlns:xlink="http://www.w3.org/1999/xlink" x="0px" y="0px"
	 width="49px" height="61px" viewBox="0 0 49 61" enable-background="new 0 0 49 61" xml:space="preserve">
<g>
	<path fill-rule="evenodd" clip-rule="evenodd" fill="#6FE085" d="M10.939,53.408c0,1.048,0.848,1.896,1.893,1.896h20.473
		c1.045,0,1.895-0.848,1.895-1.896V1.923c0-1.049-0.85-1.895-1.895-1.895H12.832c-1.045,0-1.893,0.846-1.893,1.895V53.408z"/>
	<path fill-rule="evenodd" clip-rule="evenodd" fill="#65CC71" d="M10.939,53.408c0,1.048,0.848,1.896,1.893,1.896V0.028
		c-1.045,0-1.893,0.846-1.893,1.895V53.408z"/>
	<path fill-rule="evenodd" clip-rule="evenodd" fill="#69D97E" d="M33.298,6.74h-9.99h-0.435h-9.988
		c-0.534,0-0.966,0.43-0.966,0.964v20.718v3.622v22.139c0,0.53,0.432,0.965,0.966,0.965h9.988h0.435h9.99
		c0.531,0,0.965-0.435,0.965-0.965V32.044v-3.622V7.704C34.263,7.169,33.829,6.74,33.298,6.74z"/>
	<circle fill-rule="evenodd" clip-rule="evenodd" fill="#CCD7C8" cx="23.069" cy="19.888" r="5.493"/>
	<circle fill-rule="evenodd" clip-rule="evenodd" fill="#D9DCD5" cx="23.68" cy="19.5" r="4.729"/>
	<circle fill-rule="evenodd" clip-rule="evenodd" fill="#E7E9E7" cx="24.149" cy="19.031" r="4.004"/>
	<circle fill-rule="evenodd" clip-rule="evenodd" fill="#FAFCFC" cx="24.784" cy="18.396" r="3.028"/>
	<circle fill-rule="evenodd" clip-rule="evenodd" fill="#242524" cx="23.069" cy="18.111" r="2.388"/>
</g>
<polygon fill="#B871D9" points="24.153,60.972 24.153,35.581 43.153,27.217 43.153,52.585 "/>
<polygon fill="#B36AE2" points="26.932,33.997 40.153,25.54 40.153,27.846 "/>
<polygon fill="#B871D9" points="21.153,60.972 21.153,35.581 4.153,27.217 4.153,52.585 "/>
<polygon fill="#B36AE2" points="20.374,33.997 7.153,25.54 7.153,27.846 "/>
<g>
	<path fill="#69D97E" d="M44.304,46.874c-1.935,0-4.813-0.494-9.143-1.973c-1.11-0.381-1.703-1.588-1.323-2.699
		c0.379-1.111,1.589-1.702,2.698-1.324c2.729,0.931,5.681,1.604,7.381,1.73c-0.234-0.307-0.554-0.688-0.991-1.156l-0.003-5.371
		c0.421,0.057,0.827,0.238,1.161,0.547c3.131,2.895,5.814,5.928,4.275,8.508C48.04,45.672,47.323,46.874,44.304,46.874z"/>
</g>
<g>
	<path fill="#69D97E" d="M4.695,46.874c1.935,0,4.815-0.494,9.144-1.973c1.11-0.381,1.702-1.588,1.323-2.699
		c-0.38-1.111-1.589-1.702-2.698-1.324c-2.73,0.931-5.682,1.604-7.383,1.73c0.235-0.307,0.557-0.688,0.994-1.156v-5.371
		c-0.418,0.057-0.825,0.238-1.16,0.547c-3.131,2.895-5.814,5.928-4.275,8.508C0.96,45.672,1.677,46.874,4.695,46.874z"/>
</g>
</svg>
