<?xml version="1.0" encoding="utf-8"?>
<!-- Generator: Adobe Illustrator 16.0.0, SVG Export Plug-In . SVG Version: 6.00 Build 0)  -->
<!DOCTYPE svg PUBLIC "-//W3C//DTD SVG 1.1//EN" "http://www.w3.org/Graphics/SVG/1.1/DTD/svg11.dtd">
<svg version="1.1" id="Layer_1" xmlns="http://www.w3.org/2000/svg" xmlns:xlink="http://www.w3.org/1999/xlink" x="0px" y="0px"
	 width="62px" height="72px" viewBox="0 0 62 72" enable-background="new 0 0 62 72" xml:space="preserve">
<path fill-rule="evenodd" clip-rule="evenodd" fill="#19CFF9" d="M0.062,59.098c0,1.009,0.816,1.826,1.823,1.826h19.714
	c1.005,0,1.825-0.817,1.825-1.826V25.395c0-1.008-0.819-1.824-1.825-1.824H1.885c-1.007,0-1.823,0.816-1.823,1.824V59.098z"/>
<path fill-rule="evenodd" clip-rule="evenodd" fill="#5F78FF" d="M0.062,59.098c0,1.009,0.816,1.826,1.823,1.826V23.57
	c-1.007,0-1.823,0.816-1.823,1.824V59.098z"/>
<path fill-rule="evenodd" clip-rule="evenodd" fill="#00B9F2" d="M21.594,30.035h-9.622h-0.418H1.937
	c-0.515,0-0.931,0.413-0.931,0.926v23.185v3.489v2.208c0,0.512,0.416,0.932,0.931,0.932h9.617h0.418h9.622
	c0.512,0,0.927-0.42,0.927-0.932v-2.208v-3.489V30.961C22.521,30.448,22.105,30.035,21.594,30.035z"/>
<g>
	<path fill-rule="evenodd" clip-rule="evenodd" fill="#CCD7C8" d="M17.044,42.688c0,2.92-2.367,5.289-5.29,5.289
		c-2.921,0-5.289-2.369-5.289-5.289c0-2.918,2.368-5.287,5.289-5.287C14.677,37.4,17.044,39.77,17.044,42.688z"/>
	<path fill-rule="evenodd" clip-rule="evenodd" fill="#D9DCD5" d="M7.79,42.318c0,2.513,2.038,4.549,4.552,4.549
		c2.516,0,4.556-2.036,4.556-4.549c0-2.518-2.041-4.557-4.556-4.557C9.828,37.762,7.79,39.801,7.79,42.318z"/>
	<circle fill-rule="evenodd" clip-rule="evenodd" fill="#E7E9E7" cx="12.795" cy="41.865" r="3.856"/>
	<circle fill-rule="evenodd" clip-rule="evenodd" fill="#242524" cx="11.754" cy="40.979" r="2.298"/>
</g>
<g>
	<path fill-rule="evenodd" clip-rule="evenodd" fill="#7592FC" d="M35.211,59.446c0,1.102,0.889,1.99,1.986,1.99h17.012
		c1.097,0,1.986-0.889,1.986-1.99V2.273c0-1.1-0.89-1.985-1.986-1.985H37.197c-1.098,0-1.986,0.886-1.986,1.985V59.446z"/>
	<path fill-rule="evenodd" clip-rule="evenodd" fill="#556EE8" d="M35.291,59.68c0,0.938,0.759,1.696,1.694,1.696V0.288
		c-0.936,0-1.694,0.756-1.694,1.694V59.68z"/>
	<path fill="#5F78FF" d="M55.213,60.263c0,0.561-0.455,1.01-1.013,1.01H37.25c-0.56,0-1.013-0.449-1.013-1.01V8.34
		c0-0.557,0.453-1.014,1.013-1.014H54.2c0.558,0,1.013,0.457,1.013,1.014V60.263z"/>
</g>
<path fill-rule="evenodd" clip-rule="evenodd" fill="#FFFFFF" d="M30.463,70.017c0,0.938,0.758,1.695,1.693,1.695h18.318
	c0.938,0,1.698-0.757,1.698-1.695V19.596c0-0.938-0.761-1.695-1.698-1.695H32.156c-0.936,0-1.693,0.758-1.693,1.695V70.017z"/>
<path fill-rule="evenodd" clip-rule="evenodd" fill="#DCE2E1" d="M30.463,70.017c0,0.938,0.758,1.695,1.693,1.695V17.9
	c-0.936,0-1.693,0.758-1.693,1.695V70.017z"/>
<path fill-rule="evenodd" clip-rule="evenodd" fill="#F9FBFA" d="M50.473,23.906h-8.941h-0.39h-8.938
	c-0.479,0-0.863,0.387-0.863,0.861v40.646v3.241v2.054c0,0.475,0.385,0.866,0.863,0.866h8.938h0.39h8.941
	c0.475,0,0.859-0.392,0.859-0.866v-2.054v-3.241V24.768C51.332,24.293,50.947,23.906,50.473,23.906z"/>
<g>
	<circle fill-rule="evenodd" clip-rule="evenodd" fill="#CCD7C8" cx="41.317" cy="32.488" r="4.915"/>
	<path fill-rule="evenodd" clip-rule="evenodd" fill="#D9DCD5" d="M37.633,32.143c0,2.336,1.893,4.229,4.23,4.229
		s4.234-1.893,4.234-4.229c0-2.34-1.896-4.234-4.234-4.234S37.633,29.803,37.633,32.143z"/>
	<circle fill-rule="evenodd" clip-rule="evenodd" fill="#E7E9E7" cx="42.284" cy="31.723" r="3.583"/>
	<circle fill-rule="evenodd" clip-rule="evenodd" fill="#242524" cx="41.316" cy="30.898" r="2.136"/>
</g>
<g>
	<path fill-rule="evenodd" clip-rule="evenodd" fill="#5A73FC" d="M56.195,21.606c0.115,0.205,0.663,0.245,0.799,0.419l0.033,0.025
		c0.221,0.339,0.479,0.641,0.865,0.805l0.003,0.004c0.114,0.189,0.151,0.414,0.295,0.59c0.075,0.088,0.149,0.178,0.221,0.266
		c0.075,0.095,0.138,0.195,0.192,0.297c0.057,0.112,0.098,0.23,0.131,0.352c0.225,0.93,0.543,1.832,0.785,2.758
		c0.044,0.135,0.076,0.271,0.099,0.409c0.087,1.391,0.076,2.779,0.019,4.168c-0.019,0.139-0.053,0.272-0.094,0.408
		c-0.064,0.194-0.15,0.378-0.24,0.558c-0.053,0.122-0.113,0.234-0.175,0.348c-0.229,0.375-0.346,0.802-0.489,1.214
		c-0.154,0.353-0.324,0.696-0.512,1.029c-0.072,0.111-0.16,0.212-0.264,0.298c-0.556,0.309-1.299,0.543-1.339,0.038
		c1.505-1.429,1.825-4.054,0.413-7.663c0.645-0.084,0.898-1.14-0.137-3.451c-0.1-0.226-0.605-1.278-0.605-1.278V21.606z"/>
	<path fill-rule="evenodd" clip-rule="evenodd" fill="#5F7BFC" d="M30.463,30.365c0.066,1.355,1.341,4.766,2.725,5.92
		c1.222,1.02,3.48,4.343,4.554,5.51c0.19,0.207,0.415,0.381,0.427,0.695c-0.021,0.145,0.111,0.248-0.183,0.365
		c-4.269,0.357-6.757-3.871-7.459-4.776c-0.093-0.108-0.171-0.224-0.242-0.345c-0.765-1.299-1.586-2.555-2.196-3.945
		c-0.924-2.109-0.568-4.242-0.301-6.385c0.014-0.211,2.004-3.51,2.676-4.506V30.365z"/>
	<path fill-rule="evenodd" clip-rule="evenodd" fill="#5270DF" d="M32.911,40.462c0.798,0.817,1.798,1.321,2.798,1.841
		c0.652,0.336,1.312,0.477,2.031,0.43c0.087,0.074,0.245,0.123,0.245,0.123c-6.997,1.004-10.507-8.906-10.507-8.906
		c0.763-0.424,0.862,0.279,1.061,0.68c0.582,1.174,1.26,2.279,2.105,3.277l0,0C31.221,38.918,32.258,39.52,32.911,40.462z"/>
	<path fill-rule="evenodd" clip-rule="evenodd" fill="#5773EC" d="M30.645,37.906c-1.268-0.629-1.656-1.921-2.273-3.031
		c-0.223-0.4-0.279-0.92-0.893-0.926c-0.586-2.216-0.623-4.402,0.309-6.545c0.404,0.314,0.348,0.755,0.242,1.153
		c-0.648,2.419,0.065,4.556,1.17,6.687C29.664,36.141,30.531,36.827,30.645,37.906z"/>
	<path fill-rule="evenodd" clip-rule="evenodd" fill="#627EFD" d="M57.281,35.021c0.004,0.451,0.222,0.531,0.596,0.336
		c0.485,0.615,0.049,1.051-0.309,1.477c-0.547,0.654-1.23,1.166-1.844,1.746c-0.303,0.291-0.693,0.629-0.311,1.068
		c0.351,0.407,0.771,0.213,1.115-0.092c0.472-0.41,1.962-0.426,2.621-0.383c0,0-1.98,1.83-4.043,3.33
		c-0.313,0.227,0.035-0.197-1.432-0.246c-1.916-0.059-2.435-0.74-1.835-2.43C52.92,39.037,56.679,35.26,57.281,35.021z"/>
	<path fill-rule="evenodd" clip-rule="evenodd" fill="#6883FE" d="M58.784,39.363c-0.88-0.711-1.745,0.952-2.364,1.379
		c-0.281,0.193-0.085-0.188-0.59-0.454c-0.348-0.182-0.926,0.041-1.04-0.548c-0.095-0.492,0.021-0.898,0.454-1.246
		c0.695-0.559,1.328-1.193,1.999-1.791c0.401-0.362,0.71-0.758,0.634-1.346l0,0c1.914-2.695,2.875-5.59,1.769-8.885
		c-0.122-0.371-3.45-1.832-3.45-1.832v-3.184c0.73,0.485,3.099,2.014,4.891,5.967c1.578,4.261,0.984,8.211-1.936,11.75
		C59.15,39.174,58.908,39.301,58.784,39.363z"/>
	<path fill-rule="evenodd" clip-rule="evenodd" fill="#445AE7" d="M57.923,30.547c-0.246-1.323-1.18-2.697-1.728-3.9v-3.672
		c1.371,1.236,1.538,2.9,2.033,4.43c0.496,1.543,0.577,3.202,0.086,4.822C57.923,31.738,58.432,31.016,57.923,30.547z"/>
	<path fill-rule="evenodd" clip-rule="evenodd" fill="#627EFD" d="M59.281,24.592c0.091,0.092,0.182,0.189,0.277,0.284
		c0.021,0.222,0.078,0.429,0.279,0.566c-0.059,0.221-0.217,0.472-0.033,0.67c1.277,1.392,0.484,3.024,0.525,4.552
		c0.043,1.46-1.027,2.555-1.394,3.895c-0.125,0.467-0.525,0.777-1.06,0.799c0.046-0.449,0.202-0.846,0.568-1.134
		c0.273-0.44,0.318-0.971,0.565-1.419l0,0c0.173-0.148,0.121-0.41,0.283-0.568l0,0c0.474-1.701,0.429-3.404,0-5.105l0,0
		c-0.044-0.977-0.637-1.842-0.565-2.836C58.913,24.392,59.096,24.49,59.281,24.592z"/>
	<path fill-rule="evenodd" clip-rule="evenodd" fill="#5F78FF" d="M59.294,27.131c0.327,0.232,0.519,0.597,0.534,0.959
		c0.041,1.13,0.027,2.262,0.016,3.391c-0.004,0.363-0.232,0.6-0.55,0.756C59.294,30.535,59.294,28.832,59.294,27.131z"/>
	<path fill-rule="evenodd" clip-rule="evenodd" fill="#5F78FF" d="M58.162,23.727c0.095,0.094,0.187,0.186,0.281,0.283
		C58.349,23.912,58.257,23.82,58.162,23.727z"/>
	<path fill-rule="evenodd" clip-rule="evenodd" fill="#6783FC" d="M37.985,42.855c-0.554-0.652-0.874-1.627-1.931-1.666
		c-0.189-0.006-0.383-0.238-0.561-0.382c-1.182-0.956-2.393-1.87-3.508-2.899c-0.529-0.484-0.947-1.164-0.215-1.901
		c0.154-0.155,0.385-1.075,0.478-0.856C32.951,36.803,40.857,41.723,37.985,42.855z"/>
	<path fill-rule="evenodd" clip-rule="evenodd" fill="#5773EC" d="M32.911,40.462c-0.864-0.751-2.039-1.231-2.267-2.556
		c0.967,0.432,1.328,1.613,2.406,1.934C33.225,39.893,32.971,40.247,32.911,40.462z"/>
	<path fill-rule="evenodd" clip-rule="evenodd" fill="#5A76EF" d="M49.68,43.42c-2.822-0.963,0.371-2.678,0.371-2.678
		c1.42,0.211,2.371,1.648,3.9,1.305c0.287-0.064,1.065,0.113,1.156,0.457C53.951,43.598,50.309,43.656,49.68,43.42z"/>
	<path fill-rule="evenodd" clip-rule="evenodd" fill="#5B75FB" d="M49.429,41.234c0.647-0.709,1.867-0.993,2.985-1.879
		c0.092,0.002-0.502,2.504,1.051,2.525c0.097,0,0.195-0.014,0.283,0.002c0.547,0.104,1.21-0.34,1.622,0.047
		c0.512,0.488-1.931,1.387-1.226,1.039c0.189-0.092,0.287-0.23,0.263-0.436c-0.028-0.221-0.228-0.381-0.383-0.314
		c-1.104,0.475-2.082-0.135-3.109-0.314c-0.367-0.061-0.751,0.008-1.116-0.045C49.413,41.809,49.288,41.389,49.429,41.234z"/>
	<path fill-rule="evenodd" clip-rule="evenodd" fill="#627EFD" d="M51.348,40.176c-0.1,0.09-0.203,0.182-0.302,0.272
		C51.145,40.357,51.248,40.266,51.348,40.176z"/>
	<path fill-rule="evenodd" clip-rule="evenodd" fill="#627EFD" d="M51.637,39.9c-0.098,0.094-0.194,0.184-0.293,0.275
		C51.442,40.084,51.539,39.994,51.637,39.9z"/>
</g>
</svg>
