<?xml version="1.0" encoding="utf-8"?>
<!-- Generator: Adobe Illustrator 16.0.0, SVG Export Plug-In . SVG Version: 6.00 Build 0)  -->
<!DOCTYPE svg PUBLIC "-//W3C//DTD SVG 1.1//EN" "http://www.w3.org/Graphics/SVG/1.1/DTD/svg11.dtd">
<svg version="1.1" id="Layer_1" xmlns="http://www.w3.org/2000/svg" xmlns:xlink="http://www.w3.org/1999/xlink" x="0px" y="0px"
	 width="23px" height="37px" viewBox="0 0 23 37" enable-background="new 0 0 23 37" xml:space="preserve">
<g>
	<path fill-rule="evenodd" clip-rule="evenodd" fill="#19CFF9" d="M0.135,34.898c0,0.982,0.795,1.775,1.774,1.775H21.09
		c0.979,0,1.775-0.793,1.775-1.775V2.102c0-0.982-0.797-1.775-1.775-1.775H1.909c-0.979,0-1.774,0.793-1.774,1.775V34.898z"/>
	<path fill-rule="evenodd" clip-rule="evenodd" fill="#5F78FF" d="M0.135,34.898c0,0.982,0.795,1.775,1.774,1.775V0.327
		c-0.979,0-1.774,0.793-1.774,1.775V34.898z"/>
	<path fill-rule="evenodd" clip-rule="evenodd" fill="#00B9F2" d="M21.084,6.616h-9.361h-0.407H1.958
		c-0.5,0-0.905,0.402-0.905,0.902V30.08v3.395v2.15c0,0.496,0.405,0.904,0.905,0.904h9.357h0.407h9.361
		c0.498,0,0.902-0.408,0.902-0.904v-2.15V30.08V7.518C21.986,7.018,21.582,6.616,21.084,6.616z"/>
</g>
<circle fill-rule="evenodd" clip-rule="evenodd" fill="#CCD7C8" cx="11.5" cy="18.934" r="5.147"/>
<circle fill-rule="evenodd" clip-rule="evenodd" fill="#D9DCD5" cx="12.073" cy="18.571" r="4.431"/>
<circle fill-rule="evenodd" clip-rule="evenodd" fill="#E7E9E7" cx="12.511" cy="18.131" r="3.752"/>
<circle fill-rule="evenodd" clip-rule="evenodd" fill="#242524" cx="11.5" cy="17.269" r="2.237"/>
</svg>
