<?xml version="1.0" encoding="utf-8"?>
<!-- Generator: Adobe Illustrator 16.0.0, SVG Export Plug-In . SVG Version: 6.00 Build 0)  -->
<!DOCTYPE svg PUBLIC "-//W3C//DTD SVG 1.1//EN" "http://www.w3.org/Graphics/SVG/1.1/DTD/svg11.dtd">
<svg version="1.1" id="Layer_1" xmlns="http://www.w3.org/2000/svg" xmlns:xlink="http://www.w3.org/1999/xlink" x="0px" y="0px"
	 width="61px" height="54.992px" viewBox="0 0 61 54.992" enable-background="new 0 0 61 54.992" xml:space="preserve">
<path fill-rule="evenodd" clip-rule="evenodd" fill="#01E881" d="M29.571,51.982c0,1.021,0.826,1.842,1.846,1.842h19.937
	c1.019,0,1.847-0.82,1.847-1.842V1.848C53.2,0.826,52.372,0,51.353,0H31.417c-1.02,0-1.846,0.826-1.846,1.848V51.982z"/>
<path fill-rule="evenodd" clip-rule="evenodd" fill="#01DA76" d="M29.571,51.982c0,1.021,0.826,1.842,1.846,1.842V0
	c-1.02,0-1.846,0.826-1.846,1.848V51.982z"/>
<path fill-rule="evenodd" clip-rule="evenodd" fill="#00DF7E" d="M51.348,6.534H41.62h-0.425h-9.728
	c-0.522,0-0.939,0.422-0.939,0.939v20.182v3.532v21.549c0,0.521,0.417,0.947,0.939,0.947h9.728h0.425h9.729
	c0.516,0,0.939-0.426,0.939-0.947V31.188v-3.532V7.474C52.288,6.956,51.864,6.534,51.348,6.534z"/>
<circle fill-rule="evenodd" clip-rule="evenodd" fill="#CCD7C8" cx="41.385" cy="19.342" r="5.349"/>
<path fill-rule="evenodd" clip-rule="evenodd" fill="#D9DCD5" d="M37.376,18.964c0,2.546,2.063,4.608,4.603,4.608
	c2.547,0,4.609-2.063,4.609-4.608s-2.063-4.604-4.609-4.604C39.44,14.36,37.376,16.418,37.376,18.964z"/>
<path fill-rule="evenodd" clip-rule="evenodd" fill="#E7E9E7" d="M38.538,18.507c0,2.153,1.746,3.899,3.898,3.899
	c2.158,0,3.904-1.746,3.904-3.899s-1.746-3.898-3.904-3.898C40.284,14.608,38.538,16.354,38.538,18.507z"/>
<path fill-rule="evenodd" clip-rule="evenodd" fill="#FAFCFC" d="M40.11,17.889c0,1.631,1.319,2.95,2.944,2.95
	c1.631,0,2.951-1.319,2.951-2.95c0-1.625-1.32-2.95-2.951-2.95C41.429,14.938,40.11,16.264,40.11,17.889z"/>
<circle fill-rule="evenodd" clip-rule="evenodd" fill="#242524" cx="41.389" cy="17.613" r="2.325"/>
<path fill="#B871D9" d="M25.54,42.447c0,6.924-5.615,12.545-12.544,12.545S0.452,49.371,0.452,42.447
	c0-6.926,5.615-12.536,12.544-12.536S25.54,35.521,25.54,42.447z"/>
<path fill="none" stroke="#00DF7E" stroke-width="4" stroke-linecap="round" stroke-miterlimit="10" d="M15.227,30.113
	c0,0,5.506,5.559,16.189-0.636"/>
<path fill="none" stroke="#00DF7E" stroke-width="4" stroke-linecap="round" stroke-miterlimit="10" d="M57.323,45.459
	c0,0,5.118-9.787-5.565-15.981"/>
</svg>
