<?xml version="1.0" encoding="utf-8"?>
<!-- Generator: Adobe Illustrator 16.0.0, SVG Export Plug-In . SVG Version: 6.00 Build 0)  -->
<!DOCTYPE svg PUBLIC "-//W3C//DTD SVG 1.1//EN" "http://www.w3.org/Graphics/SVG/1.1/DTD/svg11.dtd">
<svg version="1.1" xmlns="http://www.w3.org/2000/svg" xmlns:xlink="http://www.w3.org/1999/xlink" x="0px" y="0px" width="36px"
	 height="24px" viewBox="0 0 36 24" enable-background="new 0 0 36 24" xml:space="preserve">
<g id="Layer_1">
</g>
<g id="activity_context">
	<g>
		<path fill="#939598" d="M35.015,0c-0.552,0-1,0.445-1,1.006v11.372h-9.662c-0.554,0-0.998,0.454-0.998,1.006
			c0,0.555,0.444,0.999,0.998,0.999h1.239l-1.429,8.436c-0.095,0.546,0.274,1.063,0.813,1.16c0.057,0.003,0.888,0.225,1.157-0.82
			l0.439-2.61h6.203l0.439,2.61c0.143,0.661,0.729,0.895,1.156,0.82c0.546-0.103,0.913-0.614,0.815-1.16l-1.434-8.436H35
			c0.555,0,0.999-0.444,0.999-0.999V1.006C36.015,0.445,35.57,0,35.015,0z M26.92,18.543l0.702-4.152h4.119l0.702,4.152H26.92z"/>
		<path fill="#939598" d="M24.305,7.886c0-0.56-0.449-1.008-1.003-1.008H1c-0.554,0-1,0.456-1,1.008C0,8.43,0.445,8.884,1,8.884
			h2.538V22.99c0,0.552,0.446,0.998,1.001,0.998c0.55,0,0.999-0.446,0.999-0.998v-7.265h13.228v7.265
			c0,0.552,0.446,0.998,1.001,0.998c0.552,0,1-0.446,1-0.998V8.894h2.536C23.856,8.894,24.305,8.438,24.305,7.886z M18.765,13.715
			H5.538V8.894h13.228V13.715z"/>
	</g>
</g>
</svg>
