<?xml version="1.0" encoding="utf-8"?>
<!-- Generator: Adobe Illustrator 16.0.0, SVG Export Plug-In . SVG Version: 6.00 Build 0)  -->
<!DOCTYPE svg PUBLIC "-//W3C//DTD SVG 1.1//EN" "http://www.w3.org/Graphics/SVG/1.1/DTD/svg11.dtd">
<svg version="1.1" xmlns="http://www.w3.org/2000/svg" xmlns:xlink="http://www.w3.org/1999/xlink" x="0px" y="0px" width="28px"
	 height="28px" viewBox="0 0 28 28" enable-background="new 0 0 28 28" xml:space="preserve">
<g id="Layer_1">
</g>
<g id="activity_context">
	<g>
		<path fill="#939598" d="M14,28C6.281,28,0,21.72,0,14.001C0,6.281,6.281,0,14,0c7.72,0,14,6.281,14,14.001
			C28,21.72,21.72,28,14,28z M14,1.622c-6.825,0-12.378,5.553-12.378,12.379c0,6.824,5.553,12.378,12.378,12.378
			s12.378-5.554,12.378-12.378C26.378,7.174,20.825,1.622,14,1.622z"/>
		<path fill="#939598" d="M14.001,14.811c-0.047,0-0.094-0.003-0.141-0.012c-0.388-0.068-0.67-0.405-0.67-0.798V8.067
			c0-0.448,0.363-0.811,0.81-0.811c0.448,0,0.811,0.363,0.811,0.811v1.321l1.793-4.942c0.153-0.42,0.619-0.64,1.037-0.484
			c0.421,0.152,0.64,0.616,0.486,1.037l-3.363,9.278C14.645,14.601,14.337,14.811,14.001,14.811z"/>
		<circle fill="#939598" cx="14" cy="2.626" r="0.533"/>
		<path fill="#939598" d="M14,3.227c-0.332,0-0.602-0.271-0.602-0.602c0-0.333,0.27-0.601,0.602-0.601s0.602,0.269,0.602,0.601
			C14.602,2.957,14.332,3.227,14,3.227z M14,2.159c-0.257,0-0.466,0.208-0.466,0.466c0,0.257,0.209,0.466,0.466,0.466
			s0.466-0.208,0.466-0.466C14.466,2.367,14.257,2.159,14,2.159z"/>
		<circle fill="#939598" cx="8.833" cy="5.05" r="0.485"/>
		<path fill="#939598" d="M5.293,8.412c0.232,0.135,0.313,0.431,0.178,0.662C5.336,9.307,5.04,9.388,4.808,9.251
			C4.576,9.12,4.497,8.821,4.63,8.59C4.764,8.357,5.061,8.279,5.293,8.412z"/>
		<circle fill="#939598" cx="2.625" cy="14" r="0.534"/>
		<path fill="#939598" d="M2.625,14.603c-0.331,0-0.601-0.27-0.601-0.602s0.271-0.602,0.601-0.602c0.333,0,0.603,0.27,0.603,0.602
			C3.228,14.333,2.958,14.603,2.625,14.603z M2.625,13.533c-0.256,0.002-0.465,0.212-0.466,0.468c0,0.256,0.209,0.465,0.466,0.465
			c0.257,0,0.466-0.209,0.466-0.465C3.091,13.743,2.882,13.533,2.625,13.533z"/>
		<path fill="#939598" d="M4.808,18.746c0.233-0.133,0.529-0.054,0.663,0.179c0.135,0.231,0.055,0.528-0.178,0.664
			c-0.232,0.134-0.531,0.053-0.663-0.178C4.497,19.177,4.577,18.88,4.808,18.746z"/>
		<path fill="#939598" d="M8.412,22.709c0.136-0.234,0.432-0.313,0.665-0.178c0.232,0.134,0.312,0.43,0.177,0.66
			c-0.134,0.233-0.431,0.313-0.663,0.178C8.357,23.235,8.28,22.941,8.412,22.709z"/>
		<path fill="#939598" d="M13.467,25.375c0-0.297,0.239-0.533,0.533-0.533c0.295-0.002,0.533,0.238,0.533,0.533
			s-0.24,0.534-0.533,0.534C13.705,25.908,13.467,25.67,13.467,25.375z"/>
		<path fill="#939598" d="M14,25.977L14,25.977c-0.33,0-0.6-0.271-0.602-0.602c0-0.332,0.27-0.602,0.602-0.602
			s0.602,0.27,0.602,0.602C14.602,25.706,14.332,25.977,14,25.977z M14.002,24.908c-0.259,0-0.468,0.21-0.468,0.467
			c0.001,0.257,0.209,0.466,0.466,0.466s0.466-0.209,0.466-0.466S14.259,24.908,14.002,24.908z"/>
		<path fill="#939598" d="M18.748,23.191c-0.135-0.23-0.056-0.526,0.178-0.66c0.231-0.135,0.527-0.057,0.662,0.178
			c0.133,0.23,0.054,0.528-0.178,0.66C19.178,23.503,18.882,23.423,18.748,23.191z"/>
		<path fill="#939598" d="M22.709,19.589c-0.232-0.136-0.313-0.433-0.178-0.664c0.132-0.232,0.43-0.312,0.661-0.179
			c0.232,0.134,0.313,0.434,0.179,0.665C23.234,19.642,22.94,19.721,22.709,19.589z"/>
		<path fill="#939598" d="M25.375,14.534c-0.296,0-0.534-0.239-0.534-0.533s0.239-0.535,0.534-0.535
			c0.295-0.002,0.533,0.24,0.533,0.535C25.907,14.295,25.67,14.532,25.375,14.534z"/>
		<path fill="#939598" d="M25.375,14.603L25.375,14.603c-0.332-0.002-0.603-0.272-0.603-0.602c0-0.162,0.063-0.313,0.177-0.425
			c0.113-0.114,0.266-0.177,0.426-0.177c0.331,0,0.601,0.27,0.601,0.602C25.975,14.331,25.704,14.601,25.375,14.603z M25.377,13.533
			c-0.126,0-0.244,0.048-0.332,0.139c-0.089,0.088-0.136,0.205-0.136,0.33c0,0.256,0.208,0.465,0.466,0.466
			c0.256-0.001,0.464-0.211,0.466-0.466C25.841,13.743,25.633,13.533,25.377,13.533z"/>
		<path fill="#939598" d="M23.192,9.251c-0.231,0.136-0.529,0.055-0.661-0.177c-0.136-0.231-0.057-0.527,0.178-0.662
			c0.23-0.136,0.528-0.055,0.662,0.176C23.504,8.822,23.424,9.119,23.192,9.251z"/>
		<path fill="#939598" d="M19.588,5.293c-0.135,0.23-0.432,0.312-0.662,0.175c-0.233-0.133-0.313-0.429-0.179-0.662
			c0.134-0.232,0.432-0.312,0.663-0.177C19.643,4.765,19.72,5.061,19.588,5.293z"/>
	</g>
</g>
</svg>
