<?xml version="1.0" encoding="utf-8"?>
<!-- Generator: Adobe Illustrator 16.0.0, SVG Export Plug-In . SVG Version: 6.00 Build 0)  -->
<!DOCTYPE svg PUBLIC "-//W3C//DTD SVG 1.1//EN" "http://www.w3.org/Graphics/SVG/1.1/DTD/svg11.dtd">
<svg version="1.1" xmlns="http://www.w3.org/2000/svg" xmlns:xlink="http://www.w3.org/1999/xlink" x="0px" y="0px" width="34px"
	 height="34px" viewBox="0 0 34 34" enable-background="new 0 0 34 34" xml:space="preserve">
<g id="Layer_1">
</g>
<g id="btns_home">
	<path fill="none" d="M17,13.223c-1.039,0-1.879-0.84-1.887-1.876c0,0.005-0.002,0.009-0.002,0.013c0,1.044,0.846,1.889,1.889,1.889
		c1.044,0,1.889-0.845,1.889-1.889c0-0.004-0.002-0.008-0.002-0.013C18.88,12.383,18.041,13.223,17,13.223z"/>
	<path fill="#00B9F2" d="M17,0C7.609,0,0,7.611,0,17c0,9.388,7.609,17,17,17c9.387,0,17-7.612,17-17C34,7.611,26.387,0,17,0z
		 M18.889,26.116h-3.777V14.783h3.777V26.116z M18.889,11.359c0,1.044-0.845,1.889-1.889,1.889c-1.043,0-1.889-0.845-1.889-1.889
		c0-0.004,0.002-0.008,0.002-0.013c0-0.006-0.002-0.01-0.002-0.014c0-1.044,0.846-1.889,1.889-1.889
		c1.044,0,1.889,0.845,1.889,1.889c0,0.004-0.002,0.008-0.002,0.014C18.887,11.352,18.889,11.355,18.889,11.359z"/>
	<path fill="#FFFFFF" d="M17,9.471c-1.039,0-1.879,0.839-1.887,1.876c0.008,1.036,0.848,1.876,1.887,1.876
		c1.041,0,1.88-0.84,1.887-1.876C18.88,10.31,18.041,9.471,17,9.471z"/>
	<path fill="#FFFFFF" d="M17,8.443c-1.043,0-1.889,0.845-1.889,1.889c0,0.004,0.002,0.008,0.002,0.014
		C15.121,9.309,15.961,8.47,17,8.47c1.041,0,1.88,0.839,1.887,1.876c0-0.006,0.002-0.01,0.002-0.014
		C18.889,9.288,18.044,8.443,17,8.443z"/>
	<rect x="15.111" y="14.783" fill="#FFFFFF" width="3.777" height="11.333"/>
</g>
</svg>
