<?xml version="1.0" encoding="utf-8"?>
<!-- Generator: Adobe Illustrator 16.0.0, SVG Export Plug-In . SVG Version: 6.00 Build 0)  -->
<!DOCTYPE svg PUBLIC "-//W3C//DTD SVG 1.1//EN" "http://www.w3.org/Graphics/SVG/1.1/DTD/svg11.dtd">
<svg version="1.1" xmlns="http://www.w3.org/2000/svg" xmlns:xlink="http://www.w3.org/1999/xlink" x="0px" y="0px" width="26px"
	 height="33px" viewBox="0 0 26 33" enable-background="new 0 0 26 33" xml:space="preserve">
<g id="Layer_1">
</g>
<g id="activity_context">
	<g>
		<g>
			<path fill="#939598" d="M13.066,24.52c-5.271,0-9.561-4.361-9.561-9.725h1.866c0,4.327,3.452,7.847,7.694,7.847
				c4.244,0,7.696-3.52,7.696-7.847h1.866C22.629,20.159,18.339,24.52,13.066,24.52z"/>
		</g>
		<g>
			<ellipse fill="#939598" cx="8.663" cy="13.799" rx="0.899" ry="0.906"/>
		</g>
		<g>
			<path fill="#939598" d="M13.066,16.671c-0.829,0-1.479-0.456-1.479-1.037h0.623c0,0.166,0.334,0.409,0.856,0.409
				c0.523,0,0.858-0.243,0.858-0.409h0.621C14.546,16.215,13.896,16.671,13.066,16.671z"/>
		</g>
		<g>
			<rect x="12.321" y="19.287" fill="#939598" width="1.492" height="0.628"/>
		</g>
		<g>
			<path fill="#939598" d="M4.113,11.31H2.248C2.248,5.073,7.081,0,13.022,0v1.88C8.11,1.88,4.113,6.111,4.113,11.31z"/>
		</g>
		<g>
			<path fill="#939598" d="M13.022,27.871c-2.472,0-4.483-2.249-4.483-5.015h1.866c0,1.729,1.174,3.135,2.617,3.135
				c1.445,0,2.618-1.406,2.618-3.135h1.867C17.507,25.622,15.494,27.871,13.022,27.871z"/>
		</g>
		<g>
			<path fill="#939598" d="M1.866,33H0v-3.714c0-3.716,3.521-5.481,3.671-5.555l4.223-2.081l0.82,1.688l-4.226,2.083
				c-0.106,0.054-2.624,1.337-2.624,3.864V33z"/>
		</g>
		<g>
			<path fill="#939598" d="M4.518,18.518c-2.14-0.234-3.753-2.049-3.753-4.22c0-2.341,1.891-4.246,4.214-4.246
				c0.087,0,2.287-0.053,3.188-2.149l1.713,0.747c-1.396,3.245-4.759,3.283-4.901,3.283c-1.294,0-2.348,1.063-2.348,2.366
				c0,1.209,0.899,2.219,2.09,2.352L4.518,18.518z"/>
		</g>
		<g>
			<ellipse fill="#939598" cx="17.292" cy="13.799" rx="0.899" ry="0.906"/>
		</g>
		<g>
			<path fill="#939598" d="M21.438,18.518l-0.202-1.868c1.192-0.132,2.09-1.142,2.09-2.352c0-0.849-0.457-1.639-1.19-2.06
				l0.921-1.634c1.317,0.754,2.136,2.169,2.136,3.694C25.191,16.469,23.578,18.284,21.438,18.518z"/>
		</g>
		<g>
			<path fill="#939598" d="M23.753,11.31h-1.866c0-5.199-3.997-9.43-8.909-9.43V0C18.92,0,23.753,5.073,23.753,11.31z"/>
		</g>
		<g>
			<path fill="#939598" d="M26,33h-1.866v-3.714c0-2.527-2.517-3.811-2.624-3.866l-4.224-2.081l0.82-1.688l4.226,2.082
				C22.479,23.804,26,25.57,26,29.286V33z"/>
		</g>
		<g>
			<path fill="#939598" d="M22.864,12.476c-2.548,0-5.364-2.464-6.696-3.792c-4.214,4.617-8.945,2.361-8.995,2.337l0.816-1.69
				c0.162,0.077,3.979,1.834,7.395-2.626l0.686-0.894l0.748,0.842c0.976,1.097,3.962,3.943,6.046,3.943V12.476z"/>
		</g>
	</g>
</g>
</svg>
