<?xml version="1.0" encoding="utf-8"?>
<!-- Generator: Adobe Illustrator 16.0.0, SVG Export Plug-In . SVG Version: 6.00 Build 0)  -->
<!DOCTYPE svg PUBLIC "-//W3C//DTD SVG 1.1//EN" "http://www.w3.org/Graphics/SVG/1.1/DTD/svg11.dtd">
<svg version="1.1" id="Layer_1" xmlns="http://www.w3.org/2000/svg" xmlns:xlink="http://www.w3.org/1999/xlink" x="0px" y="0px"
	 width="38px" height="45px" viewBox="16 40 38 45" enable-background="new 16 40 38 45" xml:space="preserve">
<g>
	<path fill="#7592FC" d="M19.623,83.946c0,0.584,0.471,1.054,1.052,1.054h9.004c0.581,0,1.051-0.471,1.051-1.054v-30.27
		c0-0.583-0.471-1.052-1.051-1.052h-9.004c-0.581,0-1.052,0.469-1.052,1.052V83.946z"/>
	<path fill="#556EE8" d="M19.665,84.07c0,0.496,0.402,0.897,0.897,0.897V52.625c-0.496,0-0.897,0.4-0.897,0.896V84.07z"/>
	<path fill="#5F78FF" d="M30.211,84.379c0,0.297-0.241,0.534-0.537,0.534h-8.973c-0.296,0-0.536-0.237-0.536-0.534V56.888
		c0-0.295,0.24-0.537,0.536-0.537h8.973c0.296,0,0.537,0.242,0.537,0.537V84.379z"/>
</g>
<g>
	<path fill="#5A73FC" d="M30.747,63.911c0.062,0.108,0.352,0.13,0.423,0.222l0.018,0.014c0.117,0.18,0.254,0.339,0.457,0.426
		l0.002,0.002c0.061,0.1,0.08,0.219,0.156,0.313c0.04,0.047,0.08,0.095,0.117,0.141c0.04,0.051,0.073,0.104,0.102,0.157
		c0.03,0.061,0.051,0.122,0.069,0.187c0.118,0.493,0.287,0.97,0.416,1.46c0.023,0.072,0.04,0.144,0.052,0.217
		c0.045,0.736,0.04,1.472,0.009,2.207c-0.009,0.073-0.027,0.144-0.05,0.216c-0.034,0.103-0.078,0.199-0.127,0.295
		c-0.027,0.065-0.059,0.124-0.092,0.185c-0.121,0.198-0.183,0.425-0.259,0.643c-0.081,0.188-0.17,0.369-0.27,0.545
		c-0.039,0.059-0.086,0.111-0.14,0.158c-0.295,0.163-0.688,0.287-0.709,0.02c0.797-0.757,0.966-2.146,0.218-4.058
		c0.342-0.044,0.476-0.603-0.071-1.826c-0.054-0.12-0.322-0.677-0.322-0.677V63.911z"/>
	<path fill="#627EFD" d="M31.323,71.013c0.001,0.239,0.117,0.282,0.314,0.178c0.257,0.326,0.027,0.557-0.163,0.782
		c-0.291,0.347-0.652,0.618-0.976,0.925c-0.161,0.154-0.368,0.333-0.166,0.566c0.187,0.216,0.408,0.111,0.59-0.05
		c0.25-0.216,1.04-0.226,1.389-0.202c0,0-1.048,0.969-2.14,1.763c-0.166,0.121,0.019-0.104-0.758-0.129
		c-1.016-0.031-1.289-0.393-0.972-1.288C29.013,73.14,31.003,71.139,31.323,71.013z"/>
	<path fill="#6883FE" d="M32.118,73.313c-0.466-0.377-0.923,0.504-1.251,0.73c-0.149,0.104-0.045-0.1-0.312-0.241
		c-0.186-0.097-0.492,0.022-0.551-0.29c-0.05-0.26,0.011-0.476,0.241-0.66c0.367-0.296,0.703-0.632,1.058-0.948
		c0.211-0.19,0.376-0.401,0.335-0.713l0,0c1.014-1.426,1.522-2.959,0.937-4.703c-0.064-0.196-1.827-0.97-1.827-0.97v-1.687
		c0.388,0.258,1.641,1.067,2.59,3.159c0.835,2.257,0.521,4.347-1.025,6.222C32.312,73.212,32.184,73.279,32.118,73.313z"/>
	<path fill="#445AE7" d="M31.662,68.645c-0.13-0.7-0.625-1.429-0.916-2.065v-1.944c0.726,0.654,0.815,1.535,1.077,2.346
		c0.262,0.816,0.306,1.695,0.046,2.553C31.662,69.274,31.932,68.893,31.662,68.645z"/>
	<path fill="#627EFD" d="M32.38,65.491c0.049,0.049,0.096,0.1,0.147,0.15c0.011,0.117,0.041,0.228,0.147,0.3
		c-0.031,0.117-0.114,0.249-0.018,0.354c0.677,0.736,0.256,1.602,0.279,2.41c0.021,0.773-0.545,1.354-0.739,2.062
		c-0.066,0.248-0.278,0.411-0.562,0.423c0.025-0.237,0.107-0.448,0.302-0.6c0.145-0.232,0.168-0.514,0.298-0.752l0,0
		c0.091-0.078,0.064-0.217,0.15-0.301l0,0c0.25-0.9,0.228-1.802,0-2.702l0,0c-0.022-0.518-0.337-0.975-0.299-1.501
		C32.186,65.386,32.283,65.438,32.38,65.491z"/>
	<path fill="#5F78FF" d="M32.388,66.835c0.174,0.124,0.274,0.317,0.284,0.509c0.021,0.598,0.013,1.197,0.008,1.795
		c-0.002,0.192-0.124,0.317-0.292,0.399C32.388,68.638,32.388,67.736,32.388,66.835z"/>
	<path fill="#5F78FF" d="M31.789,65.033c0.05,0.05,0.099,0.099,0.147,0.149C31.888,65.132,31.839,65.083,31.789,65.033z"/>
	<path fill="#5A76EF" d="M27.298,75.46c-1.493-0.51,0.197-1.418,0.197-1.418c0.75,0.111,1.255,0.874,2.063,0.69
		c0.154-0.032,0.565,0.062,0.614,0.242C29.56,75.555,27.632,75.585,27.298,75.46z"/>
	<path fill="#5B75FB" d="M27.166,74.304c0.343-0.376,0.987-0.525,1.579-0.995c0.048,0.001-0.265,1.325,0.557,1.336
		c0.051,0,0.104-0.006,0.149,0.003c0.291,0.054,0.641-0.182,0.86,0.024c0.271,0.258-1.023,0.734-0.648,0.549
		c0.1-0.048,0.152-0.121,0.139-0.229c-0.016-0.118-0.12-0.202-0.203-0.166c-0.584,0.251-1.102-0.071-1.646-0.166
		c-0.195-0.034-0.397,0.003-0.591-0.025C27.157,74.607,27.091,74.386,27.166,74.304z"/>
	<path fill="#627EFD" d="M28.181,73.742c-0.054,0.048-0.107,0.097-0.16,0.145C28.074,73.839,28.128,73.79,28.181,73.742z"/>
	<path fill="#627EFD" d="M28.333,73.597c-0.051,0.051-0.102,0.098-0.154,0.146C28.231,73.694,28.283,73.647,28.333,73.597z"/>
</g>
<g>
	<path fill="#5A73FC" d="M19.654,63.911c-0.062,0.108-0.352,0.13-0.423,0.222l-0.018,0.014c-0.117,0.18-0.253,0.339-0.458,0.426
		l-0.001,0.002c-0.06,0.1-0.081,0.219-0.156,0.313c-0.04,0.047-0.079,0.095-0.117,0.141c-0.04,0.051-0.073,0.104-0.102,0.157
		c-0.03,0.061-0.051,0.122-0.069,0.187c-0.119,0.493-0.287,0.97-0.416,1.46c-0.022,0.072-0.04,0.144-0.052,0.217
		c-0.046,0.736-0.04,1.472-0.01,2.207c0.01,0.073,0.028,0.144,0.049,0.216c0.034,0.103,0.08,0.199,0.127,0.295
		c0.028,0.065,0.06,0.124,0.092,0.185c0.122,0.198,0.183,0.425,0.259,0.643c0.082,0.188,0.171,0.369,0.271,0.545
		c0.038,0.059,0.085,0.111,0.139,0.158c0.294,0.163,0.688,0.287,0.709,0.02c-0.797-0.757-0.966-2.146-0.219-4.058
		c-0.342-0.044-0.476-0.603,0.072-1.826c0.053-0.12,0.321-0.677,0.321-0.677L19.654,63.911L19.654,63.911z"/>
	<path fill="#6883FE" d="M18.283,73.313c0.465-0.377,0.924,0.504,1.251,0.73c0.149,0.104,0.045-0.1,0.313-0.241
		c0.184-0.097,0.49,0.022,0.551-0.29c0.05-0.26-0.011-0.476-0.241-0.66c-0.367-0.296-0.703-0.632-1.058-0.948
		c-0.212-0.19-0.376-0.401-0.335-0.713l0,0c-1.014-1.426-1.522-2.959-0.937-4.703c0.064-0.196,1.827-0.97,1.827-0.97v-1.687
		c-0.387,0.258-1.641,1.067-2.59,3.159c-0.835,2.257-0.521,4.347,1.025,6.222C18.089,73.212,18.218,73.279,18.283,73.313z"/>
	<path fill="#445AE7" d="M18.739,68.645c0.13-0.7,0.625-1.429,0.915-2.065v-1.944c-0.726,0.654-0.814,1.535-1.076,2.346
		c-0.263,0.816-0.306,1.695-0.046,2.553C18.739,69.274,18.47,68.893,18.739,68.645z"/>
	<path fill="#627EFD" d="M18.02,65.491c-0.048,0.049-0.096,0.1-0.146,0.15c-0.011,0.117-0.042,0.228-0.148,0.3
		c0.031,0.117,0.114,0.249,0.018,0.354c-0.676,0.736-0.256,1.602-0.278,2.41c-0.022,0.773,0.544,1.354,0.738,2.062
		c0.066,0.248,0.278,0.411,0.562,0.423c-0.024-0.237-0.108-0.448-0.301-0.6c-0.145-0.232-0.168-0.514-0.299-0.752l0,0
		c-0.092-0.078-0.064-0.217-0.15-0.301l0,0c-0.25-0.9-0.227-1.802,0-2.702l0,0c0.023-0.518,0.337-0.975,0.3-1.501
		C18.215,65.386,18.119,65.438,18.02,65.491z"/>
	<path fill="#5F78FF" d="M18.013,66.835c-0.173,0.124-0.274,0.317-0.283,0.509c-0.021,0.598-0.014,1.197-0.008,1.795
		c0.002,0.192,0.124,0.317,0.291,0.399C18.013,68.638,18.013,67.736,18.013,66.835z"/>
	<path fill="#5F78FF" d="M18.612,65.033c-0.049,0.05-0.098,0.099-0.148,0.149C18.514,65.132,18.563,65.083,18.612,65.033z"/>
	<path fill="#627EFD" d="M21.657,73.31c-0.792-0.659-2.302-2.188-2.579-2.297c-0.001,0.239-0.117,0.282-0.314,0.178
		c-0.257,0.326-0.026,0.557,0.163,0.782c0.29,0.347,0.651,0.618,0.976,0.925c0.161,0.154,0.367,0.333,0.165,0.566
		c-0.186,0.216-0.408,0.111-0.59-0.05c-0.25-0.216-1.039-0.226-1.388-0.202c0,0,2.753,2.769,5.015,2.248
		C24.642,75.106,22.083,73.664,21.657,73.31z"/>
</g>
<g>
	<g>
		<path fill="#5F78FF" d="M36.141,60.469c-5.091-3.362-6.497-10.241-3.134-15.33c3.364-5.091,10.243-6.495,15.332-3.133
			c5.09,3.363,6.494,10.24,3.132,15.331C48.107,62.427,41.229,63.832,36.141,60.469z M47.632,43.075
			c-4.5-2.974-10.581-1.731-13.556,2.771c-2.973,4.499-1.731,10.58,2.771,13.554c4.5,2.973,10.582,1.731,13.555-2.768
			C53.375,52.13,52.132,46.049,47.632,43.075z"/>
		<path fill="#5F78FF" d="M41.888,51.772c-0.03-0.02-0.063-0.044-0.087-0.069c-0.227-0.214-0.266-0.56-0.096-0.816l2.586-3.914
			c0.195-0.295,0.592-0.377,0.887-0.183c0.295,0.195,0.375,0.594,0.181,0.888l-0.575,0.872l3.335-2.479
			c0.284-0.209,0.688-0.152,0.896,0.134c0.211,0.283,0.153,0.686-0.131,0.895l-6.259,4.652
			C42.402,51.914,42.107,51.918,41.888,51.772z"/>
		<path fill="#5F78FF" d="M47.427,43.386c0.195,0.129,0.248,0.39,0.119,0.584c-0.129,0.195-0.389,0.248-0.583,0.119
			c-0.196-0.128-0.248-0.389-0.119-0.583C46.973,43.311,47.232,43.257,47.427,43.386z"/>
		<path fill="#5F78FF" d="M46.933,44.135c-0.22-0.146-0.278-0.441-0.136-0.659c0.146-0.22,0.44-0.279,0.66-0.134
			c0.219,0.145,0.28,0.439,0.135,0.658C47.448,44.218,47.151,44.279,46.933,44.135z M47.396,43.431
			c-0.168-0.111-0.396-0.066-0.51,0.104c-0.111,0.17-0.064,0.398,0.104,0.511c0.171,0.112,0.398,0.065,0.51-0.104
			C47.614,43.771,47.567,43.544,47.396,43.431z"/>
		<circle fill="#5F78FF" cx="42.731" cy="43.084" r="0.383"/>
		<path fill="#5F78FF" d="M38.933,43.76c0.095,0.19,0.018,0.421-0.173,0.515c-0.188,0.094-0.42,0.019-0.512-0.174
			c-0.097-0.186-0.018-0.419,0.17-0.513C38.607,43.493,38.837,43.571,38.933,43.76z"/>
		<path fill="#5F78FF" d="M34.972,45.929c0.196,0.128,0.248,0.391,0.118,0.586c-0.128,0.194-0.388,0.248-0.583,0.119
			c-0.194-0.128-0.248-0.39-0.12-0.584C34.515,45.855,34.779,45.8,34.972,45.929z"/>
		<path fill="#5F78FF" d="M34.477,46.679c-0.219-0.145-0.279-0.44-0.136-0.658c0.145-0.218,0.442-0.279,0.66-0.136
			c0.219,0.146,0.279,0.439,0.134,0.66C34.992,46.762,34.694,46.824,34.477,46.679z M34.943,45.974
			c-0.169-0.11-0.4-0.063-0.513,0.105c-0.11,0.168-0.064,0.398,0.105,0.51c0.169,0.112,0.399,0.064,0.51-0.104
			C35.158,46.314,35.112,46.086,34.943,45.974z"/>
		<path fill="#5F78FF" d="M34.11,50.361c0.211,0.015,0.372,0.195,0.359,0.407s-0.192,0.371-0.407,0.36
			c-0.211-0.014-0.374-0.196-0.359-0.406C33.718,50.51,33.899,50.35,34.11,50.361z"/>
		<path fill="#5F78FF" d="M34.761,54.545c0.191-0.095,0.421-0.018,0.514,0.172c0.096,0.19,0.02,0.419-0.169,0.513
			c-0.19,0.095-0.422,0.019-0.515-0.171C34.495,54.868,34.573,54.641,34.761,54.545z"/>
		<path fill="#5F78FF" d="M36.934,58.505c0.128-0.195,0.389-0.248,0.583-0.119c0.194,0.128,0.246,0.39,0.119,0.583
			c-0.129,0.195-0.391,0.249-0.584,0.121C36.857,58.96,36.805,58.699,36.934,58.505z"/>
		<path fill="#5F78FF" d="M37.022,59.134L37.022,59.134c-0.217-0.144-0.279-0.439-0.135-0.659c0.144-0.219,0.439-0.279,0.659-0.135
			c0.218,0.145,0.278,0.441,0.136,0.659C37.536,59.219,37.242,59.278,37.022,59.134z M37.488,58.431
			c-0.17-0.112-0.399-0.065-0.512,0.103c-0.111,0.171-0.064,0.399,0.104,0.511c0.171,0.113,0.398,0.065,0.51-0.104
			C37.703,58.771,37.657,58.543,37.488,58.431z"/>
		<path fill="#5F78FF" d="M41.367,59.366c0.011-0.212,0.191-0.372,0.404-0.358c0.21,0.013,0.372,0.193,0.36,0.406
			c-0.015,0.209-0.195,0.371-0.406,0.358C41.514,59.758,41.353,59.576,41.367,59.366z"/>
		<path fill="#5F78FF" d="M45.547,58.717c-0.094-0.192-0.018-0.422,0.172-0.517c0.188-0.095,0.42-0.017,0.514,0.171
			c0.095,0.19,0.017,0.422-0.172,0.516C45.87,58.98,45.643,58.903,45.547,58.717z"/>
		<path fill="#5F78FF" d="M49.507,56.545c-0.196-0.13-0.248-0.39-0.12-0.584c0.128-0.195,0.391-0.25,0.585-0.122
			c0.195,0.129,0.247,0.392,0.118,0.587C49.962,56.62,49.702,56.674,49.507,56.545z"/>
		<path fill="#5F78FF" d="M49.478,56.59L49.478,56.59c-0.219-0.146-0.278-0.442-0.136-0.659c0.07-0.106,0.178-0.18,0.302-0.202
			c0.125-0.025,0.252-0.002,0.357,0.067c0.22,0.145,0.279,0.439,0.134,0.659C49.991,56.672,49.695,56.732,49.478,56.59z
			 M49.945,55.886c-0.085-0.056-0.184-0.074-0.28-0.054c-0.097,0.02-0.179,0.075-0.233,0.159c-0.11,0.168-0.064,0.396,0.104,0.51
			c0.169,0.11,0.398,0.063,0.511-0.104C50.159,56.226,50.114,55.997,49.945,55.886z"/>
		<path fill="#5F78FF" d="M50.369,52.109c-0.212-0.009-0.373-0.192-0.359-0.403c0.012-0.212,0.192-0.372,0.406-0.359
			c0.211,0.012,0.373,0.195,0.359,0.403C50.762,51.964,50.579,52.125,50.369,52.109z"/>
		<path fill="#5F78FF" d="M49.718,47.931c-0.19,0.093-0.421,0.017-0.514-0.173c-0.097-0.188-0.019-0.419,0.171-0.514
			c0.188-0.096,0.419-0.017,0.514,0.171C49.982,47.605,49.906,47.835,49.718,47.931z"/>
	</g>
	<g>
		<path fill="#8DC3F1" d="M36.229,60.898c-5.091-3.362-6.497-10.24-3.134-15.33c3.365-5.091,10.242-6.495,15.333-3.132
			c5.089,3.362,6.493,10.239,3.131,15.33C48.195,62.856,41.317,64.262,36.229,60.898z M47.72,43.505
			c-4.5-2.974-10.581-1.732-13.557,2.77c-2.973,4.499-1.73,10.579,2.772,13.554c4.499,2.973,10.581,1.731,13.553-2.768
			C53.462,52.56,52.22,46.478,47.72,43.505z"/>
		<path fill="#8DC3F1" d="M41.976,52.201c-0.03-0.02-0.062-0.044-0.087-0.069c-0.227-0.214-0.267-0.559-0.097-0.816l2.587-3.915
			c0.194-0.294,0.592-0.377,0.887-0.182c0.296,0.195,0.375,0.593,0.181,0.888l-0.575,0.872l3.335-2.479
			c0.284-0.21,0.688-0.152,0.895,0.134c0.212,0.283,0.154,0.686-0.13,0.895l-6.26,4.652C42.489,52.344,42.195,52.348,41.976,52.201z
			"/>
		<path fill="#8DC3F1" d="M47.515,43.816c0.194,0.128,0.248,0.388,0.119,0.582c-0.128,0.195-0.389,0.249-0.583,0.12
			c-0.196-0.129-0.249-0.39-0.12-0.584S47.319,43.687,47.515,43.816z"/>
		<path fill="#8DC3F1" d="M47.021,44.564c-0.221-0.146-0.278-0.441-0.135-0.659c0.145-0.22,0.438-0.28,0.659-0.134
			c0.218,0.143,0.28,0.439,0.135,0.658C47.536,44.647,47.238,44.708,47.021,44.564z M47.485,43.86
			c-0.169-0.111-0.398-0.066-0.511,0.104s-0.063,0.398,0.104,0.511c0.171,0.112,0.398,0.065,0.51-0.104
			C47.702,44.2,47.655,43.973,47.485,43.86z"/>
		<circle fill="#8DC3F1" cx="42.819" cy="43.513" r="0.382"/>
		<path fill="#8DC3F1" d="M39.021,44.188c0.095,0.191,0.018,0.42-0.173,0.515c-0.188,0.095-0.42,0.019-0.513-0.173
			c-0.097-0.187-0.018-0.419,0.17-0.514C38.695,43.923,38.924,44,39.021,44.188z"/>
		<path fill="#8DC3F1" d="M35.06,46.358c0.194,0.129,0.248,0.391,0.118,0.587c-0.128,0.193-0.388,0.247-0.583,0.118
			c-0.194-0.129-0.249-0.391-0.121-0.584C34.604,46.284,34.866,46.23,35.06,46.358z"/>
		<path fill="#8DC3F1" d="M34.564,47.108c-0.219-0.145-0.279-0.441-0.135-0.658c0.145-0.22,0.442-0.28,0.66-0.136
			c0.219,0.145,0.279,0.439,0.133,0.66C35.078,47.191,34.783,47.254,34.564,47.108z M35.03,46.402
			c-0.169-0.111-0.399-0.063-0.512,0.106c-0.11,0.168-0.063,0.397,0.106,0.51c0.168,0.111,0.398,0.064,0.508-0.104
			C35.246,46.743,35.199,46.515,35.03,46.402z"/>
		<path fill="#8DC3F1" d="M34.198,50.791c0.211,0.015,0.372,0.194,0.359,0.406s-0.193,0.372-0.407,0.361
			c-0.212-0.013-0.374-0.196-0.359-0.406C33.807,50.939,33.987,50.779,34.198,50.791z"/>
		<path fill="#8DC3F1" d="M34.848,54.975c0.192-0.096,0.421-0.019,0.516,0.171s0.019,0.419-0.17,0.513
			c-0.19,0.095-0.422,0.02-0.515-0.171C34.584,55.297,34.66,55.069,34.848,54.975z"/>
		<path fill="#8DC3F1" d="M37.021,58.935c0.129-0.195,0.39-0.248,0.584-0.12c0.195,0.129,0.246,0.391,0.119,0.584
			c-0.129,0.194-0.391,0.248-0.584,0.12C36.945,59.39,36.893,59.128,37.021,58.935z"/>
		<path fill="#8DC3F1" d="M37.11,59.563L37.11,59.563c-0.218-0.144-0.279-0.438-0.135-0.658c0.144-0.218,0.438-0.28,0.659-0.135
			c0.218,0.144,0.278,0.441,0.136,0.659C37.625,59.648,37.328,59.707,37.11,59.563z M37.576,58.859
			c-0.17-0.111-0.4-0.065-0.513,0.104c-0.11,0.17-0.063,0.398,0.105,0.511c0.171,0.112,0.398,0.065,0.51-0.104
			C37.791,59.2,37.745,58.972,37.576,58.859z"/>
		<path fill="#8DC3F1" d="M41.454,59.795c0.012-0.21,0.192-0.371,0.404-0.357c0.211,0.012,0.372,0.192,0.36,0.406
			c-0.014,0.209-0.195,0.371-0.406,0.357C41.601,60.188,41.441,60.007,41.454,59.795z"/>
		<path fill="#8DC3F1" d="M45.635,59.146c-0.094-0.192-0.018-0.422,0.172-0.517c0.188-0.096,0.42-0.018,0.514,0.17
			c0.095,0.191,0.017,0.422-0.172,0.517C45.957,59.41,45.729,59.333,45.635,59.146z"/>
		<path fill="#8DC3F1" d="M49.595,56.975c-0.196-0.13-0.249-0.391-0.121-0.584c0.129-0.196,0.392-0.251,0.586-0.121
			c0.195,0.127,0.247,0.391,0.118,0.586C50.05,57.05,49.79,57.102,49.595,56.975z"/>
		<path fill="#8DC3F1" d="M49.565,57.02L49.565,57.02c-0.219-0.146-0.279-0.442-0.137-0.659c0.071-0.106,0.179-0.18,0.303-0.203
			c0.124-0.026,0.253-0.001,0.357,0.068c0.22,0.145,0.279,0.438,0.133,0.659C50.079,57.101,49.782,57.162,49.565,57.02z
			 M50.032,56.314c-0.084-0.056-0.182-0.074-0.279-0.054c-0.097,0.02-0.18,0.077-0.232,0.159c-0.112,0.168-0.064,0.396,0.104,0.51
			c0.169,0.11,0.398,0.063,0.51-0.104C50.247,56.655,50.201,56.426,50.032,56.314z"/>
		<path fill="#8DC3F1" d="M50.456,52.54c-0.211-0.01-0.372-0.193-0.358-0.404c0.012-0.211,0.192-0.372,0.406-0.359
			c0.212,0.012,0.372,0.194,0.359,0.404C50.85,52.392,50.667,52.555,50.456,52.54z"/>
		<path fill="#8DC3F1" d="M49.806,48.36c-0.19,0.092-0.422,0.017-0.514-0.173c-0.097-0.189-0.02-0.419,0.171-0.513
			c0.188-0.098,0.419-0.018,0.514,0.169C50.07,48.035,49.993,48.264,49.806,48.36z"/>
	</g>
	<path fill="#8DC3F1" d="M29.633,72.813c-0.477,0.392-2.138,1.229-2.138,1.229l-0.205-0.18l8.851-13.395l1.367,0.904l-6.574,9.949
		C30.934,71.321,30.016,72.499,29.633,72.813z"/>
</g>
</svg>
