<?xml version="1.0" encoding="utf-8"?>
<!-- Generator: Adobe Illustrator 16.0.0, SVG Export Plug-In . SVG Version: 6.00 Build 0)  -->
<!DOCTYPE svg PUBLIC "-//W3C//DTD SVG 1.1//EN" "http://www.w3.org/Graphics/SVG/1.1/DTD/svg11.dtd">
<svg version="1.1" id="Layer_1" xmlns="http://www.w3.org/2000/svg" xmlns:xlink="http://www.w3.org/1999/xlink" x="0px" y="0px"
	 width="37px" height="85px" viewBox="-1 -6.5 37 85" enable-background="new -1 -6.5 37 85" xml:space="preserve">
<g>
	<path fill="#7592FC" d="M8.212,66.234c0,1.102,0.889,1.989,1.986,1.989H27.21c1.097,0,1.985-0.889,1.985-1.989V9.057
		c0-1.101-0.889-1.985-1.985-1.985H10.198c-1.098,0-1.986,0.885-1.986,1.985V66.234z"/>
	<path fill="#556EE8" d="M8.292,66.468c0,0.939,0.759,1.697,1.694,1.697V7.072c-0.936,0-1.694,0.756-1.694,1.693V66.468z"/>
	<path fill="#5F78FF" d="M28.214,67.052c0,0.561-0.454,1.01-1.013,1.01h-16.95c-0.56,0-1.013-0.449-1.013-1.01V15.124
		c0-0.557,0.453-1.014,1.013-1.014h16.95c0.559,0,1.013,0.457,1.013,1.014V67.052z"/>
</g>
<path fill="#FFFFFF" d="M3.464,76.806c0,0.938,0.759,1.694,1.694,1.694h18.316c0.938,0,1.698-0.757,1.698-1.694V26.38
	c0-0.938-0.761-1.696-1.698-1.696H5.158c-0.936,0-1.694,0.759-1.694,1.696V76.806z"/>
<path fill="#DCE2E1" d="M3.464,76.806c0,0.938,0.759,1.694,1.694,1.694V24.683c-0.936,0-1.694,0.759-1.694,1.696V76.806z"/>
<path fill="#F9FBFA" d="M23.475,30.69h-8.941h-0.39H5.205c-0.479,0-0.864,0.386-0.864,0.86v40.651v3.241v2.054
	c0,0.476,0.386,0.866,0.864,0.866h8.938h0.39h8.941c0.476,0,0.859-0.393,0.859-0.866v-2.054v-3.241v-40.65
	C24.334,31.076,23.949,30.69,23.475,30.69z"/>
<g>
	<path fill="#CCD7C8" d="M19.232,39.271c0,2.714-2.197,4.915-4.916,4.915c-2.715,0-4.914-2.201-4.914-4.915
		c0-2.715,2.199-4.916,4.914-4.916C17.035,34.356,19.232,36.557,19.232,39.271z"/>
	<path fill="#D9DCD5" d="M10.634,38.926c0,2.338,1.893,4.229,4.23,4.229c2.339,0,4.235-1.894,4.235-4.229
		c0-2.339-1.896-4.232-4.235-4.232C12.526,34.692,10.634,36.587,10.634,38.926z"/>
	<path fill="#E7E9E7" d="M11.702,38.508c0,1.978,1.604,3.582,3.583,3.582s3.584-1.604,3.584-3.582c0-1.981-1.604-3.586-3.584-3.586
		C13.307,34.922,11.702,36.525,11.702,38.508z"/>
	<circle fill="#242524" cx="14.317" cy="37.682" r="2.136"/>
</g>
<g>
	<path fill="#5A73FC" d="M29.195,28.39c0.117,0.205,0.664,0.245,0.8,0.419l0.032,0.025c0.223,0.339,0.479,0.64,0.865,0.805
		l0.004,0.003c0.113,0.189,0.151,0.415,0.295,0.591c0.074,0.087,0.149,0.178,0.221,0.265c0.074,0.096,0.138,0.195,0.191,0.298
		c0.059,0.112,0.099,0.23,0.131,0.352c0.226,0.93,0.543,1.831,0.787,2.758c0.043,0.135,0.074,0.271,0.098,0.409
		c0.087,1.391,0.076,2.779,0.02,4.167c-0.02,0.14-0.053,0.272-0.095,0.408c-0.063,0.194-0.149,0.377-0.239,0.558
		c-0.053,0.123-0.113,0.235-0.176,0.349c-0.229,0.374-0.346,0.803-0.488,1.215c-0.154,0.353-0.324,0.695-0.513,1.028
		c-0.071,0.111-0.16,0.211-0.263,0.298c-0.557,0.309-1.301,0.543-1.34,0.038c1.506-1.429,1.824-4.054,0.412-7.664
		c0.646-0.083,0.898-1.139-0.136-3.451c-0.101-0.225-0.606-1.277-0.606-1.277V28.39z"/>
	<path fill="#5F7BFC" d="M3.464,37.148c0.067,1.355,1.341,4.767,2.726,5.92c1.221,1.021,3.479,4.345,4.553,5.512
		c0.19,0.209,0.415,0.381,0.428,0.696c-0.021,0.145,0.111,0.248-0.184,0.365c-4.269,0.356-6.756-3.873-7.459-4.778
		c-0.093-0.106-0.171-0.224-0.242-0.347C2.521,43.219,1.7,41.962,1.09,40.573c-0.923-2.11-0.567-4.243-0.301-6.385
		c0.015-0.211,2.004-3.51,2.676-4.507L3.464,37.148L3.464,37.148z"/>
	<path fill="#5270DF" d="M5.912,47.247c0.798,0.818,1.798,1.323,2.799,1.842c0.652,0.336,1.311,0.477,2.03,0.43
		c0.087,0.074,0.245,0.123,0.245,0.123c-6.997,1.004-10.507-8.909-10.507-8.909c0.763-0.422,0.862,0.279,1.062,0.682
		c0.581,1.174,1.259,2.279,2.104,3.276l0,0C4.223,45.703,5.26,46.304,5.912,47.247z"/>
	<path fill="#5773EC" d="M3.646,44.69c-1.268-0.629-1.655-1.921-2.272-3.031c-0.224-0.401-0.28-0.92-0.894-0.927
		c-0.586-2.215-0.623-4.402,0.309-6.544c0.404,0.313,0.349,0.755,0.243,1.153c-0.649,2.418,0.064,4.555,1.169,6.687
		C2.665,42.924,3.532,43.611,3.646,44.69z"/>
	<path fill="#627EFD" d="M30.282,41.807c0.004,0.451,0.222,0.53,0.596,0.336c0.485,0.615,0.049,1.051-0.308,1.476
		c-0.549,0.654-1.231,1.167-1.844,1.747c-0.305,0.291-0.694,0.629-0.313,1.069c0.352,0.408,0.771,0.211,1.115-0.094
		c0.472-0.408,1.962-0.426,2.621-0.382c0,0-1.979,1.831-4.043,3.33c-0.313,0.228,0.035-0.196-1.433-0.244
		c-1.916-0.059-2.435-0.741-1.835-2.433C25.922,45.821,29.68,42.043,30.282,41.807z"/>
	<path fill="#6883FE" d="M31.785,46.147c-0.879-0.711-1.744,0.953-2.363,1.38c-0.281,0.194-0.086-0.188-0.591-0.454
		c-0.349-0.182-0.927,0.041-1.04-0.549c-0.094-0.491,0.021-0.898,0.455-1.246c0.693-0.559,1.328-1.194,1.998-1.791
		c0.4-0.362,0.711-0.759,0.634-1.347l0,0c1.915-2.694,2.875-5.59,1.769-8.886c-0.121-0.37-3.449-1.832-3.449-1.832v-3.184
		c0.73,0.486,3.099,2.015,4.892,5.967c1.578,4.263,0.984,8.212-1.937,11.752C32.152,45.959,31.909,46.086,31.785,46.147z"/>
	<path fill="#445AE7" d="M30.924,37.331c-0.246-1.323-1.18-2.697-1.729-3.9v-3.672c1.371,1.236,1.539,2.899,2.033,4.43
		c0.496,1.543,0.578,3.202,0.088,4.823C30.924,38.521,31.434,37.801,30.924,37.331z"/>
	<path fill="#627EFD" d="M32.282,31.375c0.091,0.093,0.182,0.189,0.276,0.285c0.021,0.222,0.078,0.429,0.279,0.566
		c-0.059,0.221-0.216,0.472-0.033,0.67c1.277,1.391,0.484,3.023,0.526,4.551c0.042,1.461-1.028,2.556-1.396,3.896
		c-0.125,0.467-0.524,0.775-1.06,0.799c0.046-0.449,0.202-0.848,0.569-1.135c0.271-0.439,0.318-0.971,0.563-1.42l0,0
		c0.173-0.148,0.121-0.41,0.283-0.566l0,0c0.474-1.702,0.431-3.404,0-5.106l0,0c-0.043-0.977-0.638-1.841-0.565-2.836
		C31.914,31.176,32.098,31.274,32.282,31.375z"/>
	<path fill="#5F78FF" d="M32.295,33.914c0.328,0.233,0.52,0.598,0.535,0.96c0.04,1.13,0.025,2.263,0.016,3.392
		c-0.004,0.362-0.232,0.6-0.551,0.756C32.295,37.318,32.295,35.616,32.295,33.914z"/>
	<path fill="#5F78FF" d="M31.164,30.51c0.094,0.094,0.186,0.187,0.279,0.283C31.35,30.696,31.258,30.603,31.164,30.51z"/>
	<path fill="#6783FC" d="M10.986,49.642c-0.554-0.653-0.874-1.629-1.93-1.668c-0.19-0.004-0.384-0.236-0.562-0.381
		c-1.181-0.957-2.393-1.871-3.508-2.899c-0.529-0.485-0.946-1.166-0.215-1.902c0.154-0.154,0.385-1.074,0.478-0.855
		C5.953,43.587,13.859,48.509,10.986,49.642z"/>
	<path fill="#5773EC" d="M5.912,47.247c-0.864-0.752-2.039-1.232-2.267-2.557c0.967,0.433,1.328,1.613,2.406,1.934
		C6.227,46.677,5.972,47.033,5.912,47.247z"/>
	<path fill="#5A76EF" d="M22.682,50.205c-2.822-0.962,0.371-2.678,0.371-2.678c1.42,0.212,2.371,1.649,3.899,1.305
		c0.287-0.063,1.065,0.115,1.155,0.457C26.953,50.384,23.311,50.44,22.682,50.205z"/>
	<path fill="#5B75FB" d="M22.43,48.021c0.648-0.711,1.867-0.993,2.985-1.881c0.092,0.002-0.501,2.504,1.052,2.525
		c0.096,0,0.194-0.013,0.282,0.003c0.548,0.103,1.21-0.34,1.622,0.048c0.512,0.487-1.932,1.387-1.225,1.038
		c0.188-0.091,0.285-0.229,0.262-0.435c-0.028-0.223-0.229-0.383-0.383-0.315c-1.104,0.476-2.082-0.134-3.109-0.313
		c-0.367-0.063-0.75,0.007-1.116-0.047C22.414,48.595,22.289,48.175,22.43,48.021z"/>
	<path fill="#627EFD" d="M24.35,46.961c-0.101,0.091-0.203,0.183-0.303,0.272C24.146,47.142,24.249,47.052,24.35,46.961z"/>
	<path fill="#627EFD" d="M24.639,46.685c-0.098,0.095-0.195,0.185-0.293,0.275C24.443,46.869,24.541,46.779,24.639,46.685z"/>
</g>
</svg>
