<?xml version="1.0" encoding="utf-8"?>
<!-- Generator: Adobe Illustrator 16.0.0, SVG Export Plug-In . SVG Version: 6.00 Build 0)  -->
<!DOCTYPE svg PUBLIC "-//W3C//DTD SVG 1.1//EN" "http://www.w3.org/Graphics/SVG/1.1/DTD/svg11.dtd">
<svg version="1.1" id="Layer_1" xmlns="http://www.w3.org/2000/svg" xmlns:xlink="http://www.w3.org/1999/xlink" x="0px" y="0px"
	 width="65px" height="85px" viewBox="-1.5 -6.5 65 85" enable-background="new -1.5 -6.5 65 85" xml:space="preserve">
<path fill="#19CFF9" d="M0.062,60.886c0,1.01,0.816,1.826,1.823,1.826h19.714c1.005,0,1.825-0.816,1.825-1.826V27.183
	c0-1.008-0.819-1.824-1.825-1.824H1.885c-1.007,0-1.823,0.816-1.823,1.824V60.886z"/>
<path fill="#5F78FF" d="M0.062,60.886c0,1.01,0.816,1.826,1.823,1.826V25.358c-1.007,0-1.823,0.816-1.823,1.824V60.886z"/>
<path fill="#00B9F2" d="M21.594,31.823h-9.622h-0.418H1.937c-0.515,0-0.931,0.413-0.931,0.926v23.186v3.488v2.208
	c0,0.513,0.416,0.933,0.931,0.933h9.617h0.418h9.622c0.512,0,0.927-0.42,0.927-0.933v-2.208v-3.488V32.749
	C22.521,32.236,22.105,31.823,21.594,31.823z"/>
<g>
	<path fill="#CCD7C8" d="M17.044,44.476c0,2.92-2.367,5.289-5.29,5.289c-2.921,0-5.289-2.369-5.289-5.289
		c0-2.918,2.368-5.287,5.289-5.287C14.677,39.188,17.044,41.558,17.044,44.476z"/>
	<path fill="#D9DCD5" d="M7.79,44.106c0,2.513,2.038,4.549,4.552,4.549c2.516,0,4.556-2.036,4.556-4.549
		c0-2.519-2.041-4.558-4.556-4.558C9.828,39.55,7.79,41.589,7.79,44.106z"/>
	<circle fill="#E7E9E7" cx="12.795" cy="43.653" r="3.856"/>
	<circle fill="#242524" cx="11.754" cy="42.768" r="2.298"/>
</g>
<g>
	<path fill="#7592FC" d="M35.211,61.233c0,1.103,0.889,1.99,1.986,1.99h17.012c1.098,0,1.986-0.889,1.986-1.99V4.061
		c0-1.1-0.891-1.985-1.986-1.985H37.197c-1.098,0-1.986,0.886-1.986,1.985V61.233z"/>
	<path fill="#556EE8" d="M35.291,61.468c0,0.938,0.759,1.696,1.693,1.696V2.076c-0.936,0-1.693,0.756-1.693,1.694V61.468z"/>
	<path fill="#5F78FF" d="M55.213,62.052c0,0.561-0.455,1.01-1.013,1.01H37.25c-0.561,0-1.014-0.449-1.014-1.01V10.128
		c0-0.557,0.453-1.014,1.014-1.014H54.2c0.558,0,1.013,0.457,1.013,1.014V62.052z"/>
</g>
<path fill="#FFFFFF" d="M30.463,71.806c0,0.938,0.758,1.694,1.693,1.694h18.318c0.938,0,1.697-0.757,1.697-1.694V21.384
	c0-0.938-0.761-1.695-1.697-1.695H32.156c-0.936,0-1.693,0.758-1.693,1.695V71.806z"/>
<path fill="#DCE2E1" d="M30.463,71.806c0,0.938,0.758,1.694,1.693,1.694V19.688c-0.936,0-1.693,0.758-1.693,1.695V71.806z"/>
<path fill="#F9FBFA" d="M50.473,25.694h-8.94h-0.39h-8.938c-0.479,0-0.863,0.387-0.863,0.861v40.646v3.241v2.054
	c0,0.476,0.386,0.866,0.863,0.866h8.938h0.39h8.94c0.476,0,0.859-0.393,0.859-0.866v-2.054v-3.241V26.556
	C51.332,26.081,50.947,25.694,50.473,25.694z"/>
<g>
	<circle fill="#CCD7C8" cx="41.316" cy="34.276" r="4.915"/>
	<path fill="#D9DCD5" d="M37.633,33.931c0,2.336,1.893,4.229,4.23,4.229c2.337,0,4.234-1.893,4.234-4.229
		c0-2.34-1.896-4.234-4.234-4.234S37.633,31.591,37.633,33.931z"/>
	<circle fill="#E7E9E7" cx="42.284" cy="33.511" r="3.583"/>
	<circle fill="#242524" cx="41.316" cy="32.686" r="2.136"/>
</g>
<g>
	<path fill="#5A73FC" d="M56.195,23.394c0.115,0.205,0.662,0.245,0.799,0.419l0.033,0.025c0.221,0.339,0.479,0.641,0.865,0.805
		l0.002,0.004c0.114,0.189,0.151,0.414,0.295,0.59c0.076,0.088,0.149,0.178,0.222,0.266c0.075,0.095,0.138,0.195,0.192,0.297
		c0.057,0.112,0.098,0.23,0.131,0.352c0.225,0.93,0.543,1.832,0.785,2.758c0.043,0.135,0.076,0.271,0.099,0.409
		c0.087,1.391,0.075,2.779,0.019,4.168c-0.019,0.139-0.053,0.272-0.094,0.408c-0.064,0.194-0.15,0.378-0.24,0.558
		c-0.053,0.122-0.113,0.234-0.175,0.348c-0.229,0.375-0.346,0.802-0.489,1.214c-0.154,0.353-0.324,0.696-0.512,1.029
		c-0.072,0.111-0.16,0.212-0.264,0.298c-0.557,0.309-1.299,0.543-1.34,0.038c1.506-1.429,1.826-4.054,0.414-7.663
		c0.645-0.084,0.897-1.14-0.138-3.451c-0.1-0.226-0.604-1.278-0.604-1.278V23.394L56.195,23.394z"/>
	<path fill="#5F7BFC" d="M30.463,32.153c0.066,1.355,1.342,4.766,2.725,5.92c1.223,1.02,3.48,4.343,4.555,5.51
		c0.189,0.207,0.415,0.381,0.427,0.695c-0.021,0.145,0.11,0.248-0.183,0.365c-4.27,0.356-6.757-3.871-7.459-4.776
		c-0.093-0.108-0.171-0.224-0.242-0.345c-0.765-1.3-1.586-2.556-2.196-3.945c-0.924-2.109-0.568-4.242-0.301-6.385
		c0.014-0.211,2.004-3.51,2.676-4.506L30.463,32.153L30.463,32.153z"/>
	<path fill="#5270DF" d="M32.911,42.25c0.798,0.817,1.798,1.321,2.798,1.841c0.652,0.336,1.313,0.477,2.031,0.43
		c0.087,0.074,0.244,0.123,0.244,0.123c-6.997,1.004-10.506-8.905-10.506-8.905c0.763-0.424,0.862,0.279,1.061,0.68
		c0.582,1.174,1.26,2.279,2.105,3.277l0,0C31.221,40.706,32.258,41.308,32.911,42.25z"/>
	<path fill="#5773EC" d="M30.645,39.694c-1.268-0.629-1.656-1.921-2.273-3.031c-0.223-0.4-0.279-0.92-0.893-0.926
		c-0.586-2.216-0.623-4.402,0.309-6.545c0.404,0.314,0.348,0.755,0.242,1.153c-0.648,2.419,0.065,4.556,1.17,6.687
		C29.664,37.93,30.531,38.615,30.645,39.694z"/>
	<path fill="#627EFD" d="M57.281,36.809c0.004,0.451,0.222,0.531,0.596,0.336c0.484,0.615,0.049,1.052-0.309,1.478
		c-0.547,0.654-1.23,1.166-1.844,1.746c-0.304,0.291-0.693,0.629-0.312,1.068c0.351,0.406,0.771,0.213,1.114-0.092
		c0.473-0.41,1.963-0.427,2.621-0.384c0,0-1.979,1.83-4.043,3.33c-0.313,0.228,0.035-0.196-1.432-0.246
		c-1.916-0.059-2.436-0.739-1.835-2.43C52.92,40.825,56.68,37.048,57.281,36.809z"/>
	<path fill="#6883FE" d="M58.784,41.151c-0.88-0.711-1.745,0.951-2.364,1.379c-0.281,0.193-0.085-0.188-0.59-0.454
		c-0.348-0.183-0.926,0.041-1.04-0.548c-0.095-0.492,0.021-0.898,0.454-1.246c0.695-0.559,1.328-1.193,1.999-1.791
		c0.401-0.362,0.71-0.759,0.634-1.347l0,0c1.914-2.694,2.875-5.589,1.77-8.884c-0.123-0.371-3.451-1.832-3.451-1.832v-3.184
		c0.73,0.485,3.1,2.014,4.892,5.967c1.578,4.261,0.983,8.211-1.937,11.75C59.15,40.962,58.908,41.089,58.784,41.151z"/>
	<path fill="#445AE7" d="M57.923,32.335c-0.246-1.323-1.18-2.697-1.728-3.9v-3.672c1.371,1.236,1.537,2.9,2.033,4.43
		c0.496,1.543,0.576,3.202,0.086,4.822C57.923,33.526,58.432,32.804,57.923,32.335z"/>
	<path fill="#627EFD" d="M59.281,26.38c0.091,0.092,0.182,0.189,0.277,0.284c0.021,0.222,0.078,0.429,0.278,0.566
		c-0.06,0.221-0.217,0.472-0.032,0.67c1.276,1.392,0.483,3.024,0.524,4.552c0.043,1.46-1.027,2.555-1.394,3.895
		c-0.125,0.467-0.525,0.777-1.061,0.799c0.046-0.449,0.202-0.846,0.568-1.134c0.272-0.44,0.318-0.971,0.564-1.419l0,0
		c0.174-0.148,0.121-0.41,0.283-0.568l0,0c0.475-1.701,0.43-3.404,0-5.105l0,0c-0.044-0.977-0.637-1.842-0.564-2.836
		C58.913,26.18,59.096,26.278,59.281,26.38z"/>
	<path fill="#5F78FF" d="M59.294,28.919c0.327,0.232,0.519,0.597,0.534,0.959c0.041,1.13,0.027,2.262,0.016,3.391
		c-0.004,0.363-0.232,0.6-0.55,0.756C59.294,32.323,59.294,30.62,59.294,28.919z"/>
	<path fill="#5F78FF" d="M58.162,25.515c0.095,0.094,0.188,0.186,0.281,0.283C58.35,25.7,58.257,25.608,58.162,25.515z"/>
	<path fill="#6783FC" d="M37.984,44.644c-0.553-0.652-0.873-1.627-1.93-1.666c-0.189-0.006-0.384-0.238-0.562-0.383
		c-1.183-0.955-2.394-1.869-3.509-2.898c-0.528-0.484-0.946-1.164-0.215-1.901c0.154-0.154,0.385-1.074,0.479-0.855
		C32.951,38.591,40.857,43.511,37.984,44.644z"/>
	<path fill="#5773EC" d="M32.911,42.25c-0.864-0.751-2.039-1.231-2.267-2.556c0.967,0.432,1.329,1.613,2.406,1.934
		C33.225,41.681,32.971,42.035,32.911,42.25z"/>
	<path fill="#5A76EF" d="M49.68,45.208c-2.822-0.963,0.371-2.678,0.371-2.678c1.42,0.211,2.371,1.648,3.9,1.305
		c0.287-0.064,1.064,0.113,1.156,0.457C53.951,45.386,50.309,45.444,49.68,45.208z"/>
	<path fill="#5B75FB" d="M49.43,43.022c0.646-0.709,1.866-0.993,2.984-1.879c0.092,0.002-0.502,2.504,1.051,2.524
		c0.098,0,0.195-0.014,0.283,0.002c0.547,0.104,1.21-0.34,1.622,0.048c0.512,0.487-1.931,1.387-1.226,1.038
		c0.188-0.092,0.287-0.229,0.263-0.436c-0.028-0.222-0.228-0.382-0.384-0.314c-1.104,0.476-2.082-0.135-3.108-0.313
		c-0.367-0.062-0.751,0.008-1.116-0.045C49.413,43.597,49.288,43.177,49.43,43.022z"/>
	<path fill="#627EFD" d="M51.348,41.964c-0.1,0.09-0.203,0.182-0.302,0.272C51.145,42.146,51.248,42.054,51.348,41.964z"/>
	<path fill="#627EFD" d="M51.637,41.688c-0.098,0.094-0.193,0.184-0.293,0.274C51.441,41.872,51.539,41.782,51.637,41.688z"/>
</g>
</svg>
