<?xml version="1.0" encoding="utf-8"?>
<!-- Generator: Adobe Illustrator 16.0.0, SVG Export Plug-In . SVG Version: 6.00 Build 0)  -->
<!DOCTYPE svg PUBLIC "-//W3C//DTD SVG 1.1//EN" "http://www.w3.org/Graphics/SVG/1.1/DTD/svg11.dtd">
<svg version="1.1" id="Layer_1" xmlns="http://www.w3.org/2000/svg" xmlns:xlink="http://www.w3.org/1999/xlink" x="0px" y="0px"
	 width="18px" height="45px" viewBox="7 37.5 18 45" enable-background="new 7 37.5 18 45" xml:space="preserve">
<g>
	<path fill="#19CFF9" d="M9.691,59.908c0,0.546,0.442,0.985,0.985,0.985h10.652c0.544,0,0.986-0.439,0.986-0.985V41.14
		c0-0.547-0.442-0.987-0.986-0.987H10.677c-0.543,0-0.985,0.44-0.985,0.987L9.691,59.908L9.691,59.908z"/>
	<path fill="#5F78FF" d="M9.691,59.908c0,0.546,0.442,0.985,0.985,0.985V40.152c-0.543,0-0.985,0.44-0.985,0.986V59.908z"/>
	<path fill="#00B9F2" d="M21.327,44.2h-5.199h-0.226h-5.197c-0.278,0-0.504,0.225-0.504,0.501v12.531v1.886v1.193
		c0,0.275,0.226,0.503,0.504,0.503h5.197h0.226h5.199c0.276,0,0.501-0.228,0.501-0.503v-1.193v-1.886V44.701
		C21.828,44.425,21.604,44.2,21.327,44.2z"/>
</g>
<line fill="none" stroke="#5F78FF" stroke-width="0.5" stroke-miterlimit="10" x1="16" y1="65.921" x2="16" y2="60.814"/>
<g>
	<g>
		<path fill="#5F78FF" d="M16,82.235c-4.602,0-8.346-3.745-8.346-8.346c0-4.603,3.744-8.347,8.346-8.347
			c4.603,0,8.347,3.743,8.347,8.347C24.347,78.49,20.603,82.235,16,82.235z M16,67.116c-3.734,0-6.772,3.038-6.772,6.773
			c0,3.734,3.038,6.772,6.772,6.772c3.735,0,6.772-3.038,6.772-6.772C22.771,70.154,19.734,67.116,16,67.116z"/>
	</g>
</g>
<g>
	<rect x="15.803" y="67.464" fill="#ABBBFF" width="0.394" height="12.851"/>
</g>
<g>
	<rect x="9.574" y="73.692" fill="#ABBBFF" width="12.85" height="0.394"/>
</g>
<g>
	
		<rect x="9.574" y="73.692" transform="matrix(-0.7071 -0.7071 0.7071 -0.7071 -24.9373 137.4476)" fill="#ABBBFF" width="12.85" height="0.394"/>
</g>
<g>
	
		<rect x="15.801" y="67.462" transform="matrix(-0.7071 -0.7071 0.7071 -0.7071 -24.9357 137.4467)" fill="#ABBBFF" width="0.394" height="12.85"/>
</g>
<g>
	<circle fill="#CCD7C8" cx="15.999" cy="50.638" r="2.858"/>
	<path fill="#D9DCD5" d="M13.856,50.436c0,1.359,1.101,2.46,2.46,2.46c1.359,0,2.463-1.101,2.463-2.46s-1.104-2.46-2.463-2.46
		S13.856,49.076,13.856,50.436z"/>
	<circle fill="#E7E9E7" cx="16.561" cy="50.191" r="2.083"/>
	<path fill="#242524" d="M17.241,49.712c0,0.688-0.557,1.244-1.243,1.244s-1.242-0.557-1.242-1.244c0-0.685,0.556-1.241,1.242-1.241
		S17.241,49.027,17.241,49.712z"/>
</g>
</svg>
