<?xml version="1.0" encoding="utf-8"?>
<!-- Generator: Adobe Illustrator 16.0.0, SVG Export Plug-In . SVG Version: 6.00 Build 0)  -->
<!DOCTYPE svg PUBLIC "-//W3C//DTD SVG 1.1//EN" "http://www.w3.org/Graphics/SVG/1.1/DTD/svg11.dtd">
<svg version="1.1" id="Layer_1" xmlns="http://www.w3.org/2000/svg" xmlns:xlink="http://www.w3.org/1999/xlink" x="0px" y="0px"
	 width="20px" height="45px" viewBox="7.5 33.5 20 45" enable-background="new 7.5 33.5 20 45" xml:space="preserve">
<g>
	<path fill="#7592FC" d="M12.583,72.007c0,0.583,0.471,1.053,1.051,1.053h9.006c0.58,0,1.051-0.471,1.051-1.053V41.736
		c0-0.583-0.471-1.051-1.051-1.051h-9.006c-0.581,0-1.051,0.468-1.051,1.051V72.007z"/>
	<path fill="#556EE8" d="M12.625,72.13c0,0.497,0.402,0.898,0.897,0.898V40.686c-0.496,0-0.897,0.4-0.897,0.896V72.13z"/>
	<path fill="#5F78FF" d="M23.172,72.439c0,0.297-0.24,0.534-0.536,0.534h-8.974c-0.296,0-0.536-0.237-0.536-0.534V44.948
		c0-0.295,0.24-0.537,0.536-0.537h8.974c0.296,0,0.536,0.242,0.536,0.537V72.439z"/>
</g>
<path fill="#FFFFFF" d="M10.069,77.603c0,0.497,0.402,0.897,0.897,0.897h9.697c0.497,0,0.899-0.4,0.899-0.897V50.907
	c0-0.496-0.403-0.898-0.899-0.898h-9.697c-0.496,0-0.897,0.402-0.897,0.898V77.603z"/>
<path fill="#DCE2E1" d="M10.069,77.603c0,0.497,0.402,0.897,0.897,0.897V50.009c-0.496,0-0.897,0.402-0.897,0.897V77.603z"/>
<path fill="#F9FBFA" d="M20.663,53.188h-4.734h-0.207h-4.732c-0.253,0-0.458,0.205-0.458,0.456v21.521v1.716v1.088
	c0,0.252,0.205,0.458,0.458,0.458h4.732h0.207h4.734c0.252,0,0.455-0.207,0.455-0.458v-1.088v-1.716V53.645
	C21.118,53.394,20.914,53.188,20.663,53.188z"/>
<g>
	<path fill="#CCD7C8" d="M18.417,57.732c0,1.437-1.163,2.602-2.602,2.602c-1.438,0-2.602-1.165-2.602-2.602
		c0-1.438,1.164-2.603,2.602-2.603C17.254,55.13,18.417,56.295,18.417,57.732z"/>
	<path fill="#D9DCD5" d="M13.865,57.549c0,1.238,1.002,2.239,2.24,2.239c1.238,0,2.242-1.003,2.242-2.239
		c0-1.238-1.004-2.24-2.242-2.24C14.867,55.308,13.865,56.311,13.865,57.549z"/>
	<path fill="#E7E9E7" d="M14.431,57.328c0,1.047,0.849,1.896,1.897,1.896c1.047,0,1.897-0.849,1.897-1.896
		c0-1.05-0.849-1.898-1.897-1.898C15.28,55.43,14.431,56.278,14.431,57.328z"/>
	<circle fill="#242524" cx="15.815" cy="56.891" r="1.131"/>
</g>
<g>
	<path fill="#5A73FC" d="M23.691,51.972c0.063,0.108,0.352,0.129,0.424,0.222l0.017,0.013c0.118,0.18,0.254,0.339,0.458,0.427
		l0.002,0.001c0.061,0.101,0.081,0.22,0.156,0.313c0.04,0.046,0.079,0.094,0.117,0.14c0.039,0.051,0.073,0.104,0.102,0.158
		c0.031,0.06,0.052,0.122,0.069,0.187c0.119,0.492,0.287,0.969,0.416,1.46c0.023,0.071,0.04,0.144,0.052,0.216
		c0.046,0.737,0.041,1.472,0.011,2.207c-0.011,0.073-0.028,0.144-0.05,0.216c-0.034,0.103-0.079,0.199-0.127,0.295
		c-0.028,0.065-0.061,0.125-0.093,0.185c-0.121,0.198-0.184,0.426-0.259,0.644c-0.082,0.187-0.172,0.368-0.271,0.544
		c-0.038,0.06-0.085,0.112-0.139,0.158c-0.295,0.163-0.689,0.287-0.71,0.021c0.798-0.757,0.966-2.146,0.219-4.058
		c0.342-0.044,0.476-0.604-0.072-1.827c-0.054-0.119-0.321-0.676-0.321-0.676V51.972z"/>
	<path fill="#5F7BFC" d="M10.069,56.608c0.036,0.717,0.71,2.523,1.443,3.134c0.646,0.54,1.842,2.3,2.411,2.918
		c0.101,0.11,0.22,0.201,0.227,0.368c-0.011,0.077,0.059,0.132-0.098,0.193c-2.26,0.189-3.577-2.05-3.949-2.529
		c-0.049-0.057-0.09-0.118-0.128-0.184c-0.405-0.688-0.84-1.353-1.163-2.088c-0.489-1.117-0.3-2.246-0.16-3.38
		c0.008-0.112,1.061-1.858,1.417-2.387L10.069,56.608L10.069,56.608z"/>
	<path fill="#5270DF" d="M11.365,61.954c0.422,0.434,0.952,0.701,1.482,0.976c0.345,0.178,0.694,0.252,1.075,0.228
		c0.046,0.039,0.129,0.064,0.129,0.064c-3.704,0.532-5.563-4.716-5.563-4.716c0.404-0.224,0.457,0.147,0.563,0.36
		c0.308,0.621,0.667,1.207,1.114,1.734l0,0C10.471,61.137,11.02,61.455,11.365,61.954z"/>
	<path fill="#5773EC" d="M10.166,60.601c-0.671-0.333-0.876-1.017-1.203-1.604c-0.119-0.213-0.148-0.487-0.474-0.49
		c-0.31-1.173-0.33-2.331,0.164-3.465c0.214,0.165,0.185,0.399,0.129,0.61c-0.344,1.28,0.034,2.411,0.619,3.54
		C9.646,59.666,10.105,60.029,10.166,60.601z"/>
	<path fill="#627EFD" d="M24.267,59.074c0.003,0.238,0.118,0.28,0.315,0.178c0.258,0.326,0.026,0.557-0.162,0.781
		c-0.291,0.347-0.652,0.618-0.977,0.925c-0.161,0.154-0.367,0.333-0.165,0.566c0.186,0.216,0.408,0.111,0.59-0.05
		c0.25-0.216,1.039-0.226,1.388-0.202c0,0-1.048,0.97-2.141,1.763c-0.165,0.121,0.02-0.104-0.758-0.129
		c-1.015-0.031-1.289-0.393-0.972-1.288C21.959,61.199,23.948,59.199,24.267,59.074z"/>
	<path fill="#6883FE" d="M25.063,61.372c-0.465-0.376-0.923,0.505-1.251,0.73c-0.148,0.104-0.046-0.1-0.313-0.24
		c-0.185-0.096-0.491,0.021-0.551-0.291c-0.05-0.26,0.012-0.476,0.241-0.659c0.367-0.296,0.703-0.633,1.058-0.948
		c0.212-0.191,0.376-0.401,0.335-0.713l0,0c1.015-1.427,1.522-2.959,0.937-4.704c-0.063-0.196-1.826-0.97-1.826-0.97v-1.686
		c0.387,0.257,1.641,1.066,2.59,3.158c0.836,2.257,0.521,4.348-1.025,6.222C25.257,61.272,25.128,61.34,25.063,61.372z"/>
	<path fill="#445AE7" d="M24.606,56.705c-0.13-0.701-0.624-1.428-0.915-2.065v-1.943c0.727,0.654,0.815,1.534,1.076,2.345
		c0.263,0.817,0.307,1.695,0.047,2.554C24.606,57.335,24.877,56.953,24.606,56.705z"/>
	<path fill="#627EFD" d="M25.326,53.552c0.048,0.049,0.096,0.1,0.146,0.15c0.011,0.118,0.041,0.228,0.147,0.3
		c-0.031,0.117-0.114,0.25-0.018,0.354c0.676,0.736,0.257,1.601,0.278,2.41c0.022,0.773-0.544,1.353-0.738,2.063
		c-0.066,0.247-0.278,0.41-0.562,0.423c0.024-0.238,0.107-0.449,0.302-0.601c0.144-0.232,0.169-0.514,0.298-0.752l0,0
		c0.092-0.078,0.064-0.217,0.15-0.3l0,0c0.251-0.901,0.228-1.803,0-2.703l0,0c-0.022-0.518-0.338-0.975-0.3-1.502
		C25.131,53.446,25.229,53.498,25.326,53.552z"/>
	<path fill="#5F78FF" d="M25.333,54.896c0.173,0.123,0.274,0.316,0.283,0.509c0.021,0.598,0.013,1.197,0.008,1.795
		c-0.002,0.192-0.123,0.317-0.291,0.4C25.333,56.698,25.333,55.797,25.333,54.896z"/>
	<path fill="#5F78FF" d="M24.734,53.094c0.049,0.05,0.098,0.099,0.147,0.149C24.832,53.192,24.783,53.143,24.734,53.094z"/>
	<path fill="#6783FC" d="M14.051,63.222c-0.293-0.346-0.463-0.862-1.021-0.883c-0.101-0.002-0.204-0.125-0.297-0.201
		c-0.625-0.507-1.267-0.991-1.857-1.535c-0.28-0.257-0.501-0.617-0.114-1.007c0.082-0.082,0.204-0.569,0.253-0.453
		C11.387,60.017,15.572,62.622,14.051,63.222z"/>
	<path fill="#5773EC" d="M11.365,61.954c-0.458-0.397-1.08-0.652-1.2-1.354c0.512,0.229,0.703,0.854,1.273,1.023
		C11.532,61.652,11.397,61.841,11.365,61.954z"/>
	<path fill="#5A76EF" d="M20.243,63.521c-1.494-0.51,0.196-1.418,0.196-1.418c0.752,0.112,1.256,0.873,2.064,0.69
		c0.152-0.033,0.564,0.062,0.611,0.242C22.505,63.615,20.576,63.645,20.243,63.521z"/>
	<path fill="#5B75FB" d="M20.109,62.364c0.344-0.377,0.989-0.526,1.581-0.996c0.049,0.001-0.266,1.325,0.557,1.337
		c0.051,0,0.103-0.007,0.149,0.002c0.29,0.054,0.641-0.181,0.858,0.024c0.271,0.259-1.022,0.734-0.647,0.55
		c0.1-0.048,0.15-0.121,0.138-0.229c-0.015-0.118-0.12-0.203-0.202-0.167c-0.585,0.251-1.103-0.071-1.646-0.166
		c-0.194-0.033-0.396,0.003-0.591-0.025C20.102,62.668,20.035,62.445,20.109,62.364z"/>
	<path fill="#627EFD" d="M21.126,61.803c-0.053,0.048-0.107,0.097-0.16,0.145C21.019,61.898,21.073,61.851,21.126,61.803z"/>
	<path fill="#627EFD" d="M21.279,61.656c-0.052,0.051-0.104,0.098-0.155,0.146C21.176,61.754,21.228,61.707,21.279,61.656z"/>
</g>
</svg>
