<?xml version="1.0" encoding="utf-8"?>
<!-- Generator: Adobe Illustrator 16.0.0, SVG Export Plug-In . SVG Version: 6.00 Build 0)  -->
<!DOCTYPE svg PUBLIC "-//W3C//DTD SVG 1.1//EN" "http://www.w3.org/Graphics/SVG/1.1/DTD/svg11.dtd">
<svg version="1.1" id="Layer_1" xmlns="http://www.w3.org/2000/svg" xmlns:xlink="http://www.w3.org/1999/xlink" x="0px" y="0px"
	 width="48px" height="45px" viewBox="20.5 35.5 48 45" enable-background="new 20.5 35.5 48 45" xml:space="preserve">
<g>
	<rect x="21.765" y="40.864" fill="#C9C9C9" width="45.469" height="28.197"/>
	<path fill="#C68C58" d="M68.029,69.855H20.971V40.07h47.058V69.855z M22.56,68.268H66.44V41.658H22.56V68.268z"/>
</g>
<g>
	<path fill="#19CFF9" d="M39.682,79.296c0,0.52,0.421,0.939,0.939,0.939h10.155c0.519,0,0.939-0.42,0.939-0.939V61.933
		c0-0.52-0.422-0.939-0.939-0.939H40.622c-0.519,0-0.939,0.42-0.939,0.939L39.682,79.296L39.682,79.296z"/>
	<path fill="#5F78FF" d="M39.682,79.296c0,0.52,0.421,0.939,0.939,0.939V60.992c-0.519,0-0.939,0.42-0.939,0.94V79.296z"/>
	<path fill="#00B9F2" d="M50.773,64.322h-4.956h-0.215h-4.954c-0.266,0-0.48,0.213-0.48,0.478v11.944v1.798v1.138
		c0,0.263,0.214,0.479,0.48,0.479h4.954h0.215h4.956c0.264,0,0.478-0.217,0.478-0.479v-1.138v-1.798V64.8
		C51.251,64.535,51.037,64.322,50.773,64.322z"/>
</g>
<circle fill="#CCD7C8" cx="45.699" cy="70.844" r="2.725"/>
<circle fill="#D9DCD5" cx="46.003" cy="70.651" r="2.346"/>
<circle fill="#E7E9E7" cx="46.235" cy="70.418" r="1.986"/>
<circle fill="#242524" cx="45.699" cy="69.962" r="1.184"/>
<g>
	<text transform="matrix(1 0 0 1 24.7842 54.5176)" fill="#FFFFFF" font-family="'CFAstyStd-Book'" font-size="11.6471">Αα</text>
</g>
</svg>
