<?xml version="1.0" encoding="utf-8"?>
<!-- Generator: Adobe Illustrator 16.0.0, SVG Export Plug-In . SVG Version: 6.00 Build 0)  -->
<!DOCTYPE svg PUBLIC "-//W3C//DTD SVG 1.1//EN" "http://www.w3.org/Graphics/SVG/1.1/DTD/svg11.dtd">
<svg version="1.1" id="Layer_1" xmlns="http://www.w3.org/2000/svg" xmlns:xlink="http://www.w3.org/1999/xlink" x="0px" y="0px"
	 width="51px" height="85px" viewBox="0 -16 51 85" enable-background="new 0 -16 51 85" xml:space="preserve">
<path fill="#FFE379" d="M48.836,6.508H30.375c-0.941,0-1.707,0.764-1.707,1.709v11.08h-7.243c-0.943,0-1.709,0.764-1.709,1.709
	v11.08h-7.242c-0.943,0-1.708,0.764-1.708,1.708v11.084H2.244c-0.944,0-1.707,0.765-1.707,1.709v10.619
	c0,0.942,0.763,1.707,1.707,1.707h46.594c0.941,0,1.707-0.765,1.707-1.707V8.217C50.545,7.272,49.779,6.508,48.836,6.508z"/>
<path fill="#EFCC60" d="M0.455,57.285C0.455,58.232,1.223,59,2.167,59V44.918c-0.945,0-1.713,0.766-1.713,1.715V57.285z"/>
<path fill="#EFCC60" d="M10.766,54.648c0,0.945,0.765,1.709,1.708,1.709V32.087c-0.943,0-1.708,0.765-1.708,1.708V54.648z"/>
<path fill="#EFCC60" d="M19.715,54.648c0,0.945,0.766,1.709,1.709,1.709v-37.06c-0.943,0-1.709,0.764-1.709,1.709V54.648z"/>
<path fill="#EFCC60" d="M28.666,54.648c0,0.945,0.768,1.709,1.707,1.709V6.508c-0.939,0-1.707,0.764-1.707,1.709V54.648z"/>
<path fill="#FFB160" d="M48.83,12.561h-9.008h-0.395h-9.006c-0.48,0-0.873,0.387-0.873,0.869v11.92h-8.078
	c-0.48,0-0.87,0.389-0.87,0.869V38.14h-8.08c-0.482,0-0.871,0.388-0.871,0.869v11.92h-0.353H2.291c-0.481,0-0.87,0.39-0.87,0.871
	v6.242c0,0.479,0.389,0.871,0.87,0.871h46.54c0.48,0,0.871-0.394,0.871-0.871V13.43C49.701,12.948,49.311,12.561,48.83,12.561z"/>
<path fill="#CCD7C8" d="M44.561,24.419c0,2.733-2.219,4.951-4.953,4.951c-2.736,0-4.955-2.218-4.955-4.951
	c0-2.738,2.219-4.955,4.955-4.955C42.342,19.464,44.561,21.68,44.561,24.419z"/>
<circle fill="#D9DCD5" cx="40.158" cy="24.067" r="4.265"/>
<circle fill="#E7E9E7" cx="40.58" cy="23.645" r="3.611"/>
<circle fill="#FAFCFC" cx="41.152" cy="23.071" r="2.731"/>
<circle fill="#242524" cx="39.607" cy="22.815" r="2.153"/>
</svg>
