<?xml version="1.0" encoding="utf-8"?>
<!-- Generator: Adobe Illustrator 16.0.0, SVG Export Plug-In . SVG Version: 6.00 Build 0)  -->
<!DOCTYPE svg PUBLIC "-//W3C//DTD SVG 1.1//EN" "http://www.w3.org/Graphics/SVG/1.1/DTD/svg11.dtd">
<svg version="1.1" id="Layer_1" xmlns="http://www.w3.org/2000/svg" xmlns:xlink="http://www.w3.org/1999/xlink" x="0px" y="0px"
	 width="22px" height="45px" viewBox="0 0 22 45" enable-background="new 0 0 22 45" xml:space="preserve">
<path fill-rule="evenodd" clip-rule="evenodd" fill="#EFCC60" d="M5.197,43.827c0,0.502,0.407,0.908,0.907,0.908V31.779
	c-0.5,0-0.907,0.405-0.907,0.908V43.827z"/>
<path fill-rule="evenodd" clip-rule="evenodd" fill="#FFE379" d="M17.52,43.827c0,0.502-0.406,0.908-0.907,0.908V31.779
	c0.501,0,0.907,0.405,0.907,0.908V43.827z"/>
<path fill-rule="evenodd" clip-rule="evenodd" fill="#FFB160" d="M6.111,35.466c-0.255,0-0.46,0.205-0.46,0.46v8.348
	c0,0.253,0.206,0.461,0.46,0.461V35.466z"/>
<path fill-rule="evenodd" clip-rule="evenodd" fill="#FFB160" d="M16.612,35.466c0.255,0,0.461,0.205,0.461,0.46v8.348
	c0,0.253-0.206,0.461-0.461,0.461V35.466z"/>
<rect x="6.095" y="31.749" fill="#FFE379" width="10.521" height="9.28"/>
<rect x="6.095" y="35.454" fill="#FFB160" width="10.521" height="9.28"/>
<g>
	<circle fill-rule="evenodd" clip-rule="evenodd" fill="#CCD7C8" cx="10.977" cy="39.965" r="2.8"/>
	<circle fill-rule="evenodd" clip-rule="evenodd" fill="#D9DCD5" cx="11.29" cy="39.768" r="2.411"/>
	<circle fill-rule="evenodd" clip-rule="evenodd" fill="#E7E9E7" cx="11.529" cy="39.528" r="2.042"/>
	<circle fill-rule="evenodd" clip-rule="evenodd" fill="#242524" cx="10.977" cy="39.06" r="1.217"/>
</g>
<path fill="#FFE379" d="M9.095,27.725c-0.014-0.497-0.021-4.045-0.021-4.294c0-1.461,0.207-2.723,0.621-3.784
	c0.303-0.8,0.792-1.606,1.468-2.419c0.496-0.594,1.389-1.458,2.678-2.596s2.127-2.044,2.513-2.72s0.579-1.413,0.579-2.213
	c0-1.447-0.565-2.719-1.695-3.815C14.106,4.788,12.721,4.77,11.08,4.77c-1.585,0-2.909-0.033-3.97,0.959
	c-1.062,0.993-1.758,2.544-2.089,4.653l-3.826,2.722V9.927c0.344-2.826,1.368-4.99,3.071-6.493s3.953-2.254,6.752-2.254
	c2.964,0,5.329,0.807,7.093,2.419c1.765,1.613,2.647,3.563,2.647,5.853c0,0.541,0.104,2.67,0,3.177
	c-0.15,0.732-0.563-0.177-0.931,0.483c-0.621,1.117-1.834,2.476-3.64,4.074c-1.214,1.075-2.006,1.868-2.379,2.378
	c-0.372,0.511-0.648,1.097-0.827,1.758c-0.179,0.662-0.282,4.914-0.31,6.403H9.095z"/>
<path fill="#FFB160" d="M9.095,27.725c-0.014-0.497-0.021-0.869-0.021-1.117c0-1.461,0.207-2.723,0.621-3.784
	c0.303-0.8,0.792-1.606,1.468-2.42c0.496-0.593,1.389-1.458,2.678-2.595c1.289-1.138,2.127-2.044,2.513-2.72
	s0.579-1.413,0.579-2.213c0-1.447-0.565-2.72-1.695-3.815c-1.131-1.096-2.517-1.645-4.157-1.645c-1.585,0-2.909,0.497-3.97,1.489
	c-1.062,0.993-1.758,2.544-2.089,4.653l-3.826-0.455c0.344-2.826,1.368-4.99,3.071-6.493s3.953-2.255,6.752-2.255
	c2.964,0,5.329,0.807,7.093,2.42s2.647,3.563,2.647,5.853c0,1.323-0.311,2.544-0.931,3.66c-0.621,1.117-1.834,2.475-3.64,4.074
	c-1.214,1.075-2.006,1.868-2.379,2.378c-0.372,0.511-0.648,1.097-0.827,1.758c-0.179,0.662-0.282,1.737-0.31,3.227H9.095z"/>
</svg>
