<?xml version="1.0" encoding="utf-8"?>
<!-- Generator: Adobe Illustrator 16.0.0, SVG Export Plug-In . SVG Version: 6.00 Build 0)  -->
<!DOCTYPE svg PUBLIC "-//W3C//DTD SVG 1.1//EN" "http://www.w3.org/Graphics/SVG/1.1/DTD/svg11.dtd">
<svg version="1.1" id="Layer_1" xmlns="http://www.w3.org/2000/svg" xmlns:xlink="http://www.w3.org/1999/xlink" x="0px" y="0px"
	 width="61px" height="85px" viewBox="0 -15.004 61 85" enable-background="new 0 -15.004 61 85" xml:space="preserve">
<path fill="#01E881" d="M29.57,56.986c0,1.021,0.826,1.842,1.847,1.842h19.937c1.02,0,1.848-0.82,1.848-1.842V6.852
	C53.2,5.83,52.372,5.004,51.354,5.004H31.417c-1.021,0-1.847,0.826-1.847,1.848V56.986z"/>
<path fill="#01DA76" d="M29.57,56.986c0,1.021,0.826,1.842,1.847,1.842V5.004c-1.021,0-1.847,0.826-1.847,1.848V56.986z"/>
<path fill="#00DF7E" d="M51.348,11.538H41.62h-0.425h-9.729c-0.522,0-0.939,0.422-0.939,0.939v20.181v3.533V57.74
	c0,0.521,0.417,0.947,0.939,0.947h9.729h0.425h9.729c0.516,0,0.938-0.427,0.938-0.947V36.191V32.66V12.478
	C52.288,11.96,51.863,11.538,51.348,11.538z"/>
<circle fill="#CCD7C8" cx="41.385" cy="24.346" r="5.349"/>
<path fill="#D9DCD5" d="M37.376,23.968c0,2.546,2.063,4.608,4.603,4.608c2.547,0,4.609-2.063,4.609-4.608s-2.063-4.604-4.609-4.604
	C39.439,19.364,37.376,21.422,37.376,23.968z"/>
<path fill="#E7E9E7" d="M38.538,23.511c0,2.153,1.746,3.899,3.897,3.899c2.158,0,3.904-1.746,3.904-3.899
	c0-2.153-1.746-3.898-3.904-3.898C40.284,19.612,38.538,21.358,38.538,23.511z"/>
<path fill="#FAFCFC" d="M40.109,22.893c0,1.631,1.32,2.95,2.945,2.95c1.631,0,2.95-1.319,2.95-2.95c0-1.625-1.319-2.95-2.95-2.95
	C41.43,19.942,40.109,21.268,40.109,22.893z"/>
<circle fill="#242524" cx="41.389" cy="22.617" r="2.325"/>
<path fill="#B871D9" d="M25.54,47.451c0,6.924-5.615,12.545-12.544,12.545c-6.929,0-12.544-5.621-12.544-12.545
	c0-6.926,5.615-12.536,12.544-12.536C19.924,34.915,25.54,40.525,25.54,47.451z"/>
<path fill="none" stroke="#00DF7E" stroke-width="4" stroke-linecap="round" stroke-miterlimit="10" d="M15.227,35.117
	c0,0,5.506,5.559,16.189-0.637"/>
<path fill="none" stroke="#00DF7E" stroke-width="4" stroke-linecap="round" stroke-miterlimit="10" d="M57.323,50.463
	c0,0,5.118-9.787-5.565-15.98"/>
</svg>
