<?xml version="1.0" encoding="utf-8"?>
<!-- Generator: Adobe Illustrator 16.0.0, SVG Export Plug-In . SVG Version: 6.00 Build 0)  -->
<!DOCTYPE svg PUBLIC "-//W3C//DTD SVG 1.1//EN" "http://www.w3.org/Graphics/SVG/1.1/DTD/svg11.dtd">
<svg version="1.1" id="Layer_1" xmlns="http://www.w3.org/2000/svg" xmlns:xlink="http://www.w3.org/1999/xlink" x="0px" y="0px"
	 width="37px" height="45px" viewBox="15.5 35.5 37 45" enable-background="new 15.5 35.5 37 45" xml:space="preserve">
<path fill="#C68C58" d="M30.277,62.998c0-1.401-1.228-2.539-2.745-2.539l0,0c-1.516,0-2.746,1.137-2.746,2.539v14.699
	c0,1.401,1.229,2.538,2.746,2.538l0,0c1.517,0,2.745-1.137,2.745-2.538V62.998L30.277,62.998z"/>
<path fill="#B1814A" d="M30.277,62.998c0-1.401-1.228-2.539-2.745-2.539l0,0c-1.516,0-2.746,1.137-2.746,2.539v14.699
	c0,1.005,0.633,1.875,1.552,2.285V67.27c0,0-0.474-3.722,3.938-3.335L30.277,62.998L30.277,62.998z"/>
<path fill="#01E881" d="M42.301,79.479c0,0.418,0.338,0.756,0.755,0.756h8.157c0.416,0,0.755-0.338,0.755-0.756V58.965
	c0-0.419-0.339-0.756-0.755-0.756h-8.158c-0.417,0-0.755,0.337-0.755,0.756L42.301,79.479L42.301,79.479z"/>
<path fill="#01DA76" d="M42.301,79.479c0,0.418,0.338,0.756,0.755,0.756V58.21c-0.417,0-0.755,0.337-0.755,0.755V79.479z"/>
<path fill="#00DF7E" d="M51.211,60.884h-3.981h-0.174h-3.98c-0.212,0-0.385,0.171-0.385,0.384v8.256v1.444v8.821
	c0,0.211,0.172,0.385,0.385,0.385h3.98h0.174h3.981c0.211,0,0.384-0.173,0.384-0.385v-8.822v-1.443v-8.256
	C51.594,61.055,51.422,60.884,51.211,60.884z"/>
<circle fill="#CCD7C8" cx="47.135" cy="66.124" r="2.189"/>
<circle fill="#D9DCD5" cx="47.378" cy="65.969" r="1.885"/>
<circle fill="#E7E9E7" cx="47.564" cy="65.781" r="1.596"/>
<circle fill="#FAFCFC" cx="47.818" cy="65.528" r="1.207"/>
<circle fill="#242524" cx="47.135" cy="65.415" r="0.951"/>
<path fill="#04D075" d="M39.029,51.769c0,6.351-5.146,11.497-11.499,11.497c-6.352,0-11.498-5.146-11.498-11.497
	S21.18,40.27,27.532,40.27C33.883,40.27,39.029,45.418,39.029,51.769z"/>
<path fill="#03DB7C" d="M18.912,50.956c0,5.468,4.432,9.897,9.896,9.897c5.472,0,9.9-4.43,9.9-9.897c0-5.47-4.429-9.898-9.9-9.898
	C23.343,41.058,18.912,45.486,18.912,50.956z"/>
<circle fill="#01E682" cx="29.791" cy="49.975" r="8.381"/>
<path fill="#03EE89" d="M24.783,48.644c0,3.501,2.838,6.34,6.338,6.34c3.498,0,6.339-2.839,6.339-6.34
	c0-3.499-2.841-6.337-6.339-6.337C27.621,42.307,24.783,45.145,24.783,48.644z"/>
</svg>
