<?xml version="1.0" encoding="utf-8"?>
<!-- Generator: Adobe Illustrator 16.0.0, SVG Export Plug-In . SVG Version: 6.00 Build 0)  -->
<!DOCTYPE svg PUBLIC "-//W3C//DTD SVG 1.1//EN" "http://www.w3.org/Graphics/SVG/1.1/DTD/svg11.dtd">
<svg version="1.1" id="Layer_1" xmlns="http://www.w3.org/2000/svg" xmlns:xlink="http://www.w3.org/1999/xlink" x="0px" y="0px"
	 width="28px" height="45px" viewBox="10.5 28 28 45" enable-background="new 10.5 28 28 45" xml:space="preserve">
<g>
	<path fill="#6FE085" d="M17.758,66.349c0,0.555,0.449,1.004,1.002,1.004H29.6c0.553,0,1.003-0.449,1.003-1.004V39.091
		c0-0.555-0.45-1.003-1.003-1.003H18.76c-0.553,0-1.002,0.448-1.002,1.003V66.349z"/>
	<path fill="#65CC71" d="M17.758,66.349c0,0.555,0.449,1.004,1.002,1.004V38.088c-0.553,0-1.002,0.448-1.002,1.003V66.349z"/>
	<path fill="#69D97E" d="M29.596,41.642h-5.29h-0.23h-5.288c-0.283,0-0.512,0.228-0.512,0.511V53.12v1.918v11.721
		c0,0.28,0.229,0.511,0.512,0.511h5.288h0.23h5.29c0.281,0,0.511-0.23,0.511-0.511V55.038V53.12V42.152
		C30.106,41.868,29.877,41.642,29.596,41.642z"/>
	<circle fill="#CCD7C8" cx="24.18" cy="48.602" r="2.908"/>
	<circle fill="#D9DCD5" cx="24.504" cy="48.397" r="2.503"/>
	<circle fill="#E7E9E7" cx="24.752" cy="48.148" r="2.12"/>
	<circle fill="#FAFCFC" cx="25.088" cy="47.812" r="1.603"/>
	<circle fill="#242524" cx="24.18" cy="47.662" r="1.264"/>
</g>
<polygon fill="#B871D9" points="24.754,70.353 24.754,56.91 34.813,52.482 34.813,65.912 "/>
<polygon fill="#B36AE2" points="26.226,56.071 33.225,51.595 33.225,52.815 "/>
<polygon fill="#B871D9" points="23.166,70.353 23.166,56.91 14.166,52.482 14.166,65.912 "/>
<polygon fill="#B36AE2" points="22.753,56.071 15.754,51.595 15.754,52.815 "/>
<g>
	<path fill="#69D97E" d="M35.534,62.889c-1.024,0-2.548-0.262-4.841-1.045c-0.588-0.201-0.901-0.84-0.7-1.428
		c0.2-0.589,0.841-0.901,1.429-0.701c1.444,0.492,3.007,0.85,3.907,0.915c-0.123-0.162-0.293-0.363-0.524-0.611l-0.002-2.844
		c0.223,0.03,0.438,0.126,0.615,0.29c1.657,1.532,3.078,3.139,2.263,4.504C37.512,62.253,37.133,62.889,35.534,62.889z"/>
</g>
<g>
	<path fill="#69D97E" d="M13.419,62.889c1.024,0,2.549-0.262,4.841-1.045c0.588-0.201,0.901-0.84,0.701-1.428
		c-0.201-0.589-0.841-0.901-1.429-0.701c-1.445,0.492-3.008,0.85-3.908,0.915c0.124-0.162,0.295-0.363,0.526-0.611v-2.844
		c-0.221,0.03-0.437,0.126-0.614,0.29c-1.658,1.532-3.078,3.139-2.263,4.504C11.442,62.253,11.821,62.889,13.419,62.889z"/>
</g>
</svg>
