<?xml version="1.0" encoding="utf-8"?>
<!-- Generator: Adobe Illustrator 16.0.0, SVG Export Plug-In . SVG Version: 6.00 Build 0)  -->
<!DOCTYPE svg PUBLIC "-//W3C//DTD SVG 1.1//EN" "http://www.w3.org/Graphics/SVG/1.1/DTD/svg11.dtd">
<svg version="1.1" id="Layer_1" xmlns="http://www.w3.org/2000/svg" xmlns:xlink="http://www.w3.org/1999/xlink" x="0px" y="0px"
	 width="27px" height="45px" viewBox="12 24 27 45" enable-background="new 12 24 27 45" xml:space="preserve">
<path fill="#FFE379" d="M37.854,35.916h-9.773c-0.499,0-0.904,0.404-0.904,0.904v5.866h-3.834c-0.499,0-0.905,0.404-0.905,0.905
	v5.865h-3.834c-0.499,0-0.904,0.404-0.904,0.904v5.868h-4.512c-0.5,0-0.904,0.405-0.904,0.904v5.622
	c0,0.499,0.404,0.904,0.904,0.904h24.667c0.498,0,0.903-0.405,0.903-0.904V36.82C38.759,36.32,38.354,35.916,37.854,35.916z"/>
<path fill="#EFCC60" d="M12.241,62.798c0,0.502,0.407,0.908,0.907,0.908v-7.455c-0.5,0-0.907,0.405-0.907,0.907V62.798z"/>
<path fill="#EFCC60" d="M17.699,61.402c0,0.5,0.405,0.904,0.904,0.904V49.458c-0.499,0-0.904,0.404-0.904,0.904V61.402z"/>
<path fill="#EFCC60" d="M22.438,61.402c0,0.5,0.406,0.904,0.905,0.904V42.688c-0.499,0-0.905,0.404-0.905,0.904V61.402z"/>
<path fill="#EFCC60" d="M27.176,61.402c0,0.5,0.406,0.904,0.904,0.904V35.916c-0.498,0-0.904,0.404-0.904,0.904V61.402z"/>
<path fill="#FFB160" d="M37.852,39.12h-4.77h-0.209h-4.768c-0.254,0-0.462,0.205-0.462,0.46v6.312h-4.277
	c-0.254,0-0.46,0.205-0.46,0.46v6.311h-4.278c-0.255,0-0.461,0.205-0.461,0.46v6.311H17.98h-4.768c-0.254,0-0.46,0.206-0.46,0.461
	v3.305c0,0.254,0.206,0.462,0.46,0.462h24.639c0.254,0,0.461-0.209,0.461-0.462V39.58C38.313,39.325,38.105,39.12,37.852,39.12z"/>
<path fill="#CCD7C8" d="M35.591,45.398c0,1.447-1.175,2.621-2.622,2.621c-1.449,0-2.623-1.174-2.623-2.621
	c0-1.45,1.174-2.623,2.623-2.623C34.416,42.775,35.591,43.948,35.591,45.398z"/>
<circle fill="#D9DCD5" cx="33.26" cy="45.212" r="2.258"/>
<circle fill="#E7E9E7" cx="33.483" cy="44.988" r="1.912"/>
<circle fill="#FAFCFC" cx="33.786" cy="44.684" r="1.446"/>
<circle fill="#242524" cx="32.969" cy="44.549" r="1.14"/>
</svg>
