<?xml version="1.0" encoding="utf-8"?>
<!-- Generator: Adobe Illustrator 16.0.0, SVG Export Plug-In . SVG Version: 6.00 Build 0)  -->
<!DOCTYPE svg PUBLIC "-//W3C//DTD SVG 1.1//EN" "http://www.w3.org/Graphics/SVG/1.1/DTD/svg11.dtd">
<svg version="1.1" id="Layer_1" xmlns="http://www.w3.org/2000/svg" xmlns:xlink="http://www.w3.org/1999/xlink" x="0px" y="0px"
	 width="38px" height="85px" viewBox="0 0 38 85" enable-background="new 0 0 38 85" xml:space="preserve">
<path fill-rule="evenodd" clip-rule="evenodd" fill="#EFCC60" d="M8.04,82.785c0,0.948,0.768,1.715,1.713,1.715V60.027
	c-0.945,0-1.713,0.766-1.713,1.715V82.785z"/>
<path fill-rule="evenodd" clip-rule="evenodd" fill="#FFE379" d="M31.314,82.785c0,0.948-0.768,1.715-1.713,1.715V60.027
	c0.945,0,1.713,0.766,1.713,1.715V82.785z"/>
<path fill-rule="evenodd" clip-rule="evenodd" fill="#FFB160" d="M9.766,66.99c-0.481,0-0.87,0.388-0.87,0.87v15.768
	c0,0.478,0.389,0.871,0.87,0.871V66.99z"/>
<path fill-rule="evenodd" clip-rule="evenodd" fill="#FFB160" d="M29.602,66.99c0.481,0,0.87,0.388,0.87,0.87v15.768
	c0,0.478-0.389,0.871-0.87,0.871V66.99z"/>
<rect x="9.735" y="59.97" fill="#FFE379" width="19.873" height="17.529"/>
<rect x="9.735" y="66.97" fill="#FFB160" width="19.873" height="17.529"/>
<g>
	<path fill-rule="evenodd" clip-rule="evenodd" fill="#CCD7C8" d="M24.246,75.489c0,2.92-2.365,5.289-5.29,5.289
		c-2.92,0-5.288-2.369-5.288-5.289c0-2.922,2.367-5.29,5.288-5.29C21.881,70.199,24.246,72.567,24.246,75.489z"/>
	<path fill-rule="evenodd" clip-rule="evenodd" fill="#D9DCD5" d="M14.993,75.116c0,2.516,2.037,4.553,4.552,4.553
		c2.517,0,4.558-2.037,4.558-4.553s-2.041-4.556-4.558-4.556C17.03,70.561,14.993,72.601,14.993,75.116z"/>
	<circle fill-rule="evenodd" clip-rule="evenodd" fill="#E7E9E7" cx="19.999" cy="74.665" r="3.856"/>
	<path fill-rule="evenodd" clip-rule="evenodd" fill="#242524" d="M21.255,73.778c0,1.268-1.026,2.299-2.299,2.299
		c-1.267,0-2.298-1.031-2.298-2.299c0-1.271,1.031-2.3,2.298-2.3C20.229,71.479,21.255,72.507,21.255,73.778z"/>
</g>
<path fill="#FFE379" d="M15.402,52.368c-0.026-0.938-0.039-7.641-0.039-8.109c0-2.761,0.391-5.144,1.172-7.148
	c0.572-1.511,1.497-3.034,2.773-4.57c0.938-1.12,2.623-2.754,5.059-4.902c2.435-2.148,4.017-3.86,4.746-5.137
	c0.729-1.276,1.094-2.669,1.094-4.18c0-2.734-1.068-5.137-3.203-7.207c-2.136-2.07-4.753-2.105-7.852-2.105
	c-2.995,0-5.495-0.063-7.5,1.813c-2.006,1.875-3.32,4.805-3.945,8.789L0.48,24.751v-6c0.65-5.339,2.584-9.427,5.801-12.266
	c3.216-2.839,7.467-4.258,12.753-4.258c5.599,0,10.064,1.523,13.398,4.57c3.333,3.047,5,6.731,5,11.055c0,1.021,0.196,5.043,0,6
	c-0.283,1.384-1.064-0.333-1.758,0.914c-1.172,2.109-3.464,4.675-6.875,7.695c-2.292,2.031-3.789,3.528-4.492,4.492
	s-1.225,2.07-1.563,3.32c-0.339,1.25-0.534,9.281-0.586,12.094H15.402z"/>
<path fill="#FFB160" d="M15.402,52.368c-0.026-0.938-0.039-1.641-0.039-2.109c0-2.761,0.391-5.144,1.172-7.148
	c0.572-1.511,1.497-3.034,2.773-4.57c0.938-1.12,2.623-2.754,5.059-4.902c2.435-2.148,4.017-3.86,4.746-5.137
	c0.729-1.276,1.094-2.669,1.094-4.18c0-2.734-1.068-5.137-3.203-7.207c-2.136-2.07-4.753-3.105-7.852-3.105
	c-2.995,0-5.495,0.938-7.5,2.813c-2.006,1.875-3.32,4.805-3.945,8.789L0.48,24.751c0.65-5.339,2.584-9.427,5.801-12.266
	c3.216-2.839,7.467-4.258,12.753-4.258c5.599,0,10.064,1.523,13.398,4.57c3.333,3.047,5,6.731,5,11.055
	c0,2.5-0.586,4.805-1.758,6.914s-3.464,4.675-6.875,7.695c-2.292,2.031-3.789,3.528-4.492,4.492s-1.225,2.07-1.563,3.32
	c-0.339,1.25-0.534,3.281-0.586,6.094H15.402z"/>
</svg>
