<?xml version="1.0" encoding="utf-8"?>
<!-- Generator: Adobe Illustrator 16.0.0, SVG Export Plug-In . SVG Version: 6.00 Build 0)  -->
<!DOCTYPE svg PUBLIC "-//W3C//DTD SVG 1.1//EN" "http://www.w3.org/Graphics/SVG/1.1/DTD/svg11.dtd">
<svg version="1.1" id="Layer_1" xmlns="http://www.w3.org/2000/svg" xmlns:xlink="http://www.w3.org/1999/xlink" x="0px" y="0px"
	 width="25px" height="85px" viewBox="-1 -24 25 85" enable-background="new -1 -24 25 85" xml:space="preserve">
<g>
	<path fill="#19CFF9" d="M0.135,49.226C0.135,50.207,0.93,51,1.909,51H21.09c0.979,0,1.775-0.793,1.775-1.774V16.429
		c0-0.982-0.797-1.775-1.775-1.775H1.909c-0.979,0-1.774,0.793-1.774,1.775V49.226z"/>
	<path fill="#5F78FF" d="M0.135,49.226C0.135,50.207,0.93,51,1.909,51V14.654c-0.979,0-1.774,0.793-1.774,1.775V49.226z"/>
	<path fill="#00B9F2" d="M21.084,20.943h-9.361h-0.407H1.958c-0.5,0-0.905,0.402-0.905,0.902v22.562v3.395v2.15
		c0,0.496,0.405,0.904,0.905,0.904h9.357h0.407h9.361c0.498,0,0.901-0.408,0.901-0.904v-2.15v-3.395V21.846
		C21.986,21.346,21.582,20.943,21.084,20.943z"/>
</g>
<circle fill="#CCD7C8" cx="11.5" cy="33.261" r="5.147"/>
<circle fill="#D9DCD5" cx="12.073" cy="32.898" r="4.431"/>
<circle fill="#E7E9E7" cx="12.511" cy="32.458" r="3.752"/>
<circle fill="#242524" cx="11.5" cy="31.596" r="2.237"/>
</svg>
