<?xml version="1.0" encoding="utf-8"?>
<!-- Generator: Adobe Illustrator 16.0.0, SVG Export Plug-In . SVG Version: 6.00 Build 0)  -->
<!DOCTYPE svg PUBLIC "-//W3C//DTD SVG 1.1//EN" "http://www.w3.org/Graphics/SVG/1.1/DTD/svg11.dtd">
<svg version="1.1" id="Layer_1" xmlns="http://www.w3.org/2000/svg" xmlns:xlink="http://www.w3.org/1999/xlink" x="0px" y="0px"
	 width="90px" height="85px" viewBox="-0.5 -4.5 90 85" enable-background="new -0.5 -4.5 90 85" xml:space="preserve">
<rect x="1.557" y="5.632" fill="#C9C9C9" stroke="#C68C58" stroke-width="3" stroke-miterlimit="10" width="85.887" height="53.261"/>
<g>
	<path fill="#19CFF9" d="M35.399,78.226c0,0.981,0.795,1.774,1.773,1.774h19.183c0.979,0,1.774-0.793,1.774-1.774V45.428
		c0-0.981-0.797-1.774-1.774-1.774H37.174c-0.979,0-1.773,0.793-1.773,1.774L35.399,78.226L35.399,78.226z"/>
	<path fill="#5F78FF" d="M35.399,78.226c0,0.981,0.795,1.774,1.773,1.774V43.652c-0.979,0-1.773,0.793-1.773,1.775V78.226z"/>
	<path fill="#00B9F2" d="M56.35,49.941h-9.361h-0.405h-9.357c-0.502,0-0.906,0.402-0.906,0.902v22.563v3.395v2.149
		c0,0.497,0.404,0.905,0.906,0.905h9.357h0.405h9.361c0.498,0,0.902-0.408,0.902-0.905v-2.149v-3.395V50.844
		C57.252,50.344,56.848,49.941,56.35,49.941z"/>
</g>
<circle fill="#CCD7C8" cx="46.766" cy="62.26" r="5.146"/>
<circle fill="#D9DCD5" cx="47.339" cy="61.896" r="4.431"/>
<circle fill="#E7E9E7" cx="47.777" cy="61.457" r="3.752"/>
<circle fill="#242524" cx="46.766" cy="60.596" r="2.236"/>
<g>
	<text transform="matrix(1 0 0 1 7.2588 31.4229)" fill="#FFFFFF" font-family="'CFAstyStd-Book'" font-size="22">Αα</text>
</g>
</svg>
