<?xml version="1.0" encoding="utf-8"?>
<!-- Generator: Adobe Illustrator 16.0.0, SVG Export Plug-In . SVG Version: 6.00 Build 0)  -->
<!DOCTYPE svg PUBLIC "-//W3C//DTD SVG 1.1//EN" "http://www.w3.org/Graphics/SVG/1.1/DTD/svg11.dtd">
<svg version="1.1" id="Layer_1" xmlns="http://www.w3.org/2000/svg" xmlns:xlink="http://www.w3.org/1999/xlink" x="0px" y="0px"
	 width="14px" height="45px" viewBox="4.5 16 14 45" enable-background="new 4.5 16 14 45" xml:space="preserve">
<g>
	<path fill="#19CFF9" d="M5.483,54.767c0,0.52,0.421,0.939,0.939,0.939h10.155c0.518,0,0.939-0.42,0.939-0.939V37.403
		c0-0.52-0.422-0.939-0.939-0.939H6.422c-0.518,0-0.939,0.42-0.939,0.939V54.767z"/>
	<path fill="#5F78FF" d="M5.483,54.767c0,0.52,0.421,0.939,0.939,0.939V36.464c-0.518,0-0.939,0.42-0.939,0.939V54.767z"/>
	<path fill="#00B9F2" d="M16.574,39.794h-4.956h-0.216H6.448c-0.265,0-0.479,0.213-0.479,0.478v11.944v1.797v1.139
		c0,0.263,0.214,0.479,0.479,0.479h4.954h0.216h4.956c0.264,0,0.478-0.216,0.478-0.479v-1.139v-1.797V40.271
		C17.052,40.007,16.838,39.794,16.574,39.794z"/>
</g>
<circle fill="#CCD7C8" cx="11.5" cy="46.315" r="2.725"/>
<circle fill="#D9DCD5" cx="11.804" cy="46.123" r="2.346"/>
<circle fill="#E7E9E7" cx="12.035" cy="45.89" r="1.986"/>
<circle fill="#242524" cx="11.5" cy="45.433" r="1.184"/>
</svg>
