<?xml version="1.0" encoding="utf-8"?>
<!-- Generator: Adobe Illustrator 16.0.0, SVG Export Plug-In . SVG Version: 6.00 Build 0)  -->
<!DOCTYPE svg PUBLIC "-//W3C//DTD SVG 1.1//EN" "http://www.w3.org/Graphics/SVG/1.1/DTD/svg11.dtd">
<svg version="1.1" id="Layer_1" xmlns="http://www.w3.org/2000/svg" xmlns:xlink="http://www.w3.org/1999/xlink" x="0px" y="0px"
	 width="70px" height="85px" viewBox="-1 -4.5 70 85" enable-background="new -1 -4.5 70 85" xml:space="preserve">
<path fill="#C68C58" d="M26.968,47.44c0-2.647-2.32-4.796-5.186-4.796l0,0c-2.863,0-5.186,2.147-5.186,4.796v27.765
	c0,2.647,2.322,4.795,5.186,4.795l0,0c2.865,0,5.186-2.147,5.186-4.795V47.44L26.968,47.44z"/>
<path fill="#B1814A" d="M26.968,47.44c0-2.647-2.32-4.796-5.186-4.796l0,0c-2.863,0-5.186,2.147-5.186,4.796v27.765
	c0,1.899,1.197,3.543,2.932,4.317V55.509c0,0-0.895-7.029,7.439-6.3L26.968,47.44L26.968,47.44z"/>
<path fill="#01E881" d="M49.68,78.573c0,0.789,0.639,1.427,1.426,1.427h15.408c0.786,0,1.426-0.638,1.426-1.427V39.822
	c0-0.791-0.64-1.427-1.426-1.427h-15.41c-0.787,0-1.426,0.636-1.426,1.427v38.751H49.68z"/>
<path fill="#01DA76" d="M49.68,78.573c0,0.789,0.639,1.427,1.426,1.427V38.396c-0.787,0-1.426,0.637-1.426,1.426V78.573z"/>
<path fill="#00DF7E" d="M66.509,43.446h-7.521h-0.327h-7.519c-0.401,0-0.727,0.324-0.727,0.727v15.594v2.728v16.663
	c0,0.398,0.324,0.727,0.727,0.727h7.519h0.327h7.521c0.398,0,0.726-0.327,0.726-0.727V62.493v-2.728V44.173
	C67.232,43.771,66.907,43.446,66.509,43.446z"/>
<circle fill="#CCD7C8" cx="58.811" cy="53.344" r="4.135"/>
<circle fill="#D9DCD5" cx="59.27" cy="53.052" r="3.561"/>
<circle fill="#E7E9E7" cx="59.622" cy="52.698" r="3.014"/>
<circle fill="#FAFCFC" cx="60.102" cy="52.22" r="2.279"/>
<circle fill="#242524" cx="58.811" cy="52.006" r="1.797"/>
<path fill="#04D075" d="M43.499,26.23c0,11.995-9.721,21.716-21.719,21.716c-11.998,0-21.718-9.721-21.718-21.716
	c0-11.996,9.721-21.72,21.719-21.72C33.779,4.51,43.499,14.234,43.499,26.23z"/>
<path fill="#03DB7C" d="M5.5,24.695c0,10.328,8.371,18.695,18.693,18.695c10.335,0,18.7-8.367,18.7-18.695
	c0-10.331-8.365-18.697-18.7-18.697C13.871,5.998,5.5,14.364,5.5,24.695z"/>
<circle fill="#01E682" cx="26.048" cy="22.841" r="15.83"/>
<path fill="#03EE89" d="M16.589,20.327c0,6.612,5.361,11.976,11.973,11.976c6.606,0,11.973-5.363,11.973-11.976
	c0-6.609-5.365-11.97-11.973-11.97C21.951,8.358,16.589,13.718,16.589,20.327z"/>
</svg>
