<?xml version="1.0" encoding="utf-8"?>
<!-- Generator: Adobe Illustrator 16.0.0, SVG Export Plug-In . SVG Version: 6.00 Build 0)  -->
<!DOCTYPE svg PUBLIC "-//W3C//DTD SVG 1.1//EN" "http://www.w3.org/Graphics/SVG/1.1/DTD/svg11.dtd">
<svg version="1.1" id="Layer_1" xmlns="http://www.w3.org/2000/svg" xmlns:xlink="http://www.w3.org/1999/xlink" x="0px" y="0px"
	 width="35px" height="45px" viewBox="13.5 33.5 35 45" enable-background="new 13.5 33.5 35 45" xml:space="preserve">
<path fill="#19CFF9" d="M14.621,69.175c0,0.534,0.432,0.967,0.965,0.967h10.437c0.532,0,0.966-0.433,0.966-0.967V51.332
	c0-0.533-0.434-0.966-0.966-0.966H15.586c-0.533,0-0.965,0.433-0.965,0.966V69.175z"/>
<path fill="#5F78FF" d="M14.621,69.175c0,0.534,0.432,0.967,0.965,0.967V50.366c-0.533,0-0.965,0.432-0.965,0.966V69.175z"/>
<path fill="#00B9F2" d="M26.02,53.789h-5.094h-0.221h-5.091c-0.273,0-0.493,0.219-0.493,0.49v12.274V68.4v1.169
	c0,0.271,0.22,0.494,0.493,0.494h5.091h0.221h5.094c0.271,0,0.491-0.223,0.491-0.494V68.4v-1.847V54.279
	C26.511,54.008,26.291,53.789,26.02,53.789z"/>
<g>
	<path fill="#CCD7C8" d="M23.611,60.487c0,1.546-1.253,2.8-2.8,2.8c-1.546,0-2.8-1.254-2.8-2.8c0-1.545,1.254-2.799,2.8-2.799
		C22.358,57.688,23.611,58.942,23.611,60.487z"/>
	<path fill="#D9DCD5" d="M18.712,60.292c0,1.33,1.079,2.408,2.41,2.408c1.332,0,2.412-1.078,2.412-2.408
		c0-1.334-1.081-2.413-2.412-2.413C19.792,57.879,18.712,58.959,18.712,60.292z"/>
	<circle fill="#E7E9E7" cx="21.362" cy="60.051" r="2.042"/>
	<circle fill="#242524" cx="20.811" cy="59.583" r="1.217"/>
</g>
<g>
	<path fill="#7592FC" d="M33.229,69.358c0,0.584,0.471,1.054,1.052,1.054h9.006c0.581,0,1.052-0.47,1.052-1.054V39.091
		c0-0.582-0.472-1.051-1.052-1.051h-9.006c-0.581,0-1.052,0.469-1.052,1.051V69.358z"/>
	<path fill="#556EE8" d="M33.271,69.483c0,0.496,0.402,0.897,0.896,0.897V38.04c-0.495,0-0.896,0.4-0.896,0.897V69.483z"/>
	<path fill="#5F78FF" d="M43.818,69.792c0,0.297-0.24,0.535-0.536,0.535h-8.974c-0.297,0-0.536-0.238-0.536-0.535V42.303
		c0-0.294,0.239-0.536,0.536-0.536h8.974c0.296,0,0.536,0.242,0.536,0.536V69.792z"/>
</g>
<path fill="#FFFFFF" d="M30.716,74.956c0,0.496,0.401,0.896,0.896,0.896h9.698c0.496,0,0.898-0.4,0.898-0.896V48.263
	c0-0.497-0.403-0.898-0.898-0.898h-9.698c-0.496,0-0.896,0.402-0.896,0.898V74.956z"/>
<path fill="#DCE2E1" d="M30.716,74.956c0,0.496,0.401,0.896,0.896,0.896V47.364c-0.496,0-0.896,0.401-0.896,0.897V74.956z"/>
<path fill="#F9FBFA" d="M41.309,50.544h-4.732h-0.207h-4.731c-0.254,0-0.457,0.205-0.457,0.456v21.519v1.716v1.087
	c0,0.252,0.204,0.459,0.457,0.459h4.731h0.207h4.732c0.252,0,0.455-0.208,0.455-0.459v-1.087v-1.716V51
	C41.764,50.749,41.561,50.544,41.309,50.544z"/>
<g>
	<circle fill="#CCD7C8" cx="36.462" cy="55.087" r="2.602"/>
	<path fill="#D9DCD5" d="M34.512,54.904c0,1.237,1.002,2.239,2.239,2.239s2.242-1.002,2.242-2.239c0-1.238-1.004-2.241-2.242-2.241
		C35.514,52.663,34.512,53.666,34.512,54.904z"/>
	<circle fill="#E7E9E7" cx="36.974" cy="54.682" r="1.897"/>
	<circle fill="#242524" cx="36.462" cy="54.246" r="1.131"/>
</g>
<g>
	<path fill="#5A73FC" d="M44.339,49.326c0.061,0.108,0.351,0.13,0.423,0.222l0.018,0.014c0.117,0.18,0.253,0.339,0.458,0.426
		l0.001,0.002c0.061,0.101,0.08,0.22,0.156,0.313c0.04,0.047,0.079,0.095,0.117,0.141c0.04,0.051,0.073,0.104,0.102,0.158
		c0.03,0.059,0.052,0.121,0.069,0.186c0.119,0.492,0.288,0.97,0.416,1.46c0.022,0.072,0.04,0.144,0.052,0.217
		c0.047,0.736,0.04,1.472,0.01,2.207c-0.01,0.073-0.027,0.144-0.049,0.216c-0.034,0.103-0.08,0.2-0.128,0.295
		c-0.027,0.065-0.06,0.124-0.092,0.185c-0.122,0.198-0.184,0.425-0.26,0.643c-0.081,0.188-0.171,0.368-0.271,0.545
		c-0.038,0.059-0.085,0.112-0.14,0.157c-0.295,0.164-0.688,0.288-0.709,0.021c0.797-0.756,0.967-2.146,0.219-4.057
		c0.342-0.045,0.476-0.604-0.072-1.827c-0.053-0.119-0.32-0.677-0.32-0.677V49.326L44.339,49.326z"/>
	<path fill="#5F7BFC" d="M30.716,53.964c0.035,0.717,0.71,2.522,1.442,3.134c0.647,0.54,1.843,2.299,2.411,2.917
		c0.101,0.109,0.22,0.201,0.226,0.368c-0.011,0.076,0.059,0.131-0.097,0.193c-2.26,0.188-3.577-2.05-3.949-2.529
		c-0.049-0.057-0.09-0.118-0.128-0.182c-0.405-0.688-0.84-1.354-1.163-2.089c-0.489-1.116-0.301-2.246-0.159-3.381
		c0.007-0.111,1.061-1.858,1.417-2.386L30.716,53.964L30.716,53.964z"/>
	<path fill="#5270DF" d="M32.012,59.309c0.423,0.433,0.952,0.7,1.481,0.975c0.345,0.178,0.694,0.253,1.075,0.228
		c0.046,0.039,0.129,0.065,0.129,0.065c-3.704,0.531-5.562-4.715-5.562-4.715c0.404-0.225,0.457,0.147,0.562,0.36
		c0.308,0.621,0.667,1.206,1.114,1.734l0,0C31.117,58.491,31.666,58.81,32.012,59.309z"/>
	<path fill="#5773EC" d="M30.812,57.956c-0.671-0.333-0.877-1.018-1.203-1.605c-0.118-0.211-0.148-0.486-0.473-0.489
		c-0.31-1.174-0.33-2.331,0.164-3.466c0.213,0.166,0.184,0.4,0.128,0.61c-0.343,1.281,0.035,2.412,0.62,3.541
		C30.293,57.021,30.752,57.385,30.812,57.956z"/>
	<path fill="#627EFD" d="M44.914,56.428c0.002,0.239,0.117,0.281,0.314,0.178c0.257,0.326,0.026,0.558-0.163,0.782
		c-0.289,0.347-0.651,0.618-0.976,0.925c-0.161,0.154-0.367,0.333-0.165,0.565c0.186,0.215,0.407,0.113,0.59-0.049
		c0.25-0.217,1.039-0.226,1.388-0.203c0,0-1.048,0.97-2.141,1.764c-0.165,0.12,0.019-0.104-0.758-0.131
		c-1.015-0.03-1.289-0.391-0.972-1.286C42.604,58.555,44.595,56.555,44.914,56.428z"/>
	<path fill="#6883FE" d="M45.709,58.728c-0.466-0.377-0.924,0.503-1.251,0.729c-0.149,0.103-0.045-0.099-0.313-0.24
		c-0.185-0.097-0.49,0.021-0.551-0.29c-0.05-0.261,0.011-0.476,0.24-0.66c0.368-0.295,0.703-0.631,1.059-0.947
		c0.212-0.192,0.376-0.402,0.335-0.714l0,0c1.014-1.426,1.522-2.959,0.938-4.703c-0.065-0.196-1.827-0.97-1.827-0.97v-1.686
		c0.387,0.257,1.641,1.066,2.59,3.159c0.835,2.256,0.521,4.347-1.025,6.22C45.903,58.627,45.775,58.694,45.709,58.728z"/>
	<path fill="#445AE7" d="M45.253,54.06c-0.13-0.7-0.624-1.428-0.914-2.064v-1.944c0.726,0.654,0.813,1.535,1.076,2.346
		c0.263,0.816,0.305,1.695,0.046,2.553C45.253,54.69,45.522,54.309,45.253,54.06z"/>
	<path fill="#627EFD" d="M45.973,50.907c0.048,0.049,0.096,0.1,0.146,0.15c0.011,0.117,0.041,0.227,0.147,0.3
		c-0.031,0.117-0.115,0.25-0.017,0.354c0.675,0.736,0.256,1.601,0.277,2.41c0.022,0.772-0.544,1.353-0.738,2.062
		c-0.065,0.248-0.277,0.411-0.562,0.424c0.024-0.238,0.107-0.448,0.302-0.601c0.144-0.233,0.168-0.515,0.299-0.752l0,0
		c0.092-0.078,0.063-0.217,0.149-0.301l0,0c0.251-0.9,0.228-1.802,0-2.702l0,0c-0.023-0.518-0.337-0.976-0.299-1.502
		C45.777,50.801,45.874,50.854,45.973,50.907z"/>
	<path fill="#5F78FF" d="M45.979,52.251c0.173,0.123,0.274,0.316,0.282,0.508c0.021,0.599,0.015,1.198,0.009,1.796
		c-0.002,0.191-0.123,0.317-0.291,0.399C45.979,54.054,45.979,53.151,45.979,52.251z"/>
	<path fill="#5F78FF" d="M45.38,50.449c0.05,0.05,0.1,0.099,0.149,0.149C45.479,50.547,45.43,50.498,45.38,50.449z"/>
	<path fill="#6783FC" d="M34.697,60.576c-0.292-0.346-0.462-0.861-1.021-0.882c-0.1-0.004-0.203-0.127-0.297-0.203
		c-0.626-0.506-1.268-0.989-1.857-1.534c-0.28-0.257-0.501-0.616-0.114-1.007c0.082-0.082,0.204-0.568,0.254-0.453
		C32.033,57.372,36.219,59.977,34.697,60.576z"/>
	<path fill="#5773EC" d="M32.012,59.309c-0.457-0.397-1.08-0.651-1.2-1.353c0.512,0.229,0.703,0.854,1.273,1.023
		C32.178,59.008,32.043,59.195,32.012,59.309z"/>
	<path fill="#5A76EF" d="M40.89,60.875c-1.494-0.51,0.196-1.418,0.196-1.418c0.752,0.112,1.255,0.873,2.064,0.69
		c0.152-0.033,0.563,0.061,0.612,0.242C43.15,60.969,41.223,61,40.89,60.875z"/>
	<path fill="#5B75FB" d="M40.757,59.718c0.343-0.375,0.988-0.525,1.58-0.995c0.049,0.001-0.266,1.326,0.557,1.337
		c0.052,0,0.103-0.007,0.149,0.001c0.29,0.056,0.641-0.18,0.858,0.025c0.271,0.258-1.021,0.734-0.648,0.55
		c0.1-0.049,0.152-0.122,0.139-0.23c-0.015-0.118-0.12-0.202-0.203-0.167c-0.584,0.252-1.102-0.071-1.646-0.166
		c-0.194-0.032-0.397,0.004-0.591-0.023C40.748,60.021,40.682,59.8,40.757,59.718z"/>
	<path fill="#627EFD" d="M41.772,59.157c-0.053,0.048-0.107,0.097-0.16,0.145C41.665,59.254,41.72,59.205,41.772,59.157z"/>
	<path fill="#627EFD" d="M41.926,59.012c-0.052,0.05-0.103,0.097-0.155,0.146C41.822,59.108,41.874,59.062,41.926,59.012z"/>
</g>
</svg>
