<?xml version="1.0" encoding="utf-8"?>
<!-- Generator: Adobe Illustrator 16.0.0, SVG Export Plug-In . SVG Version: 6.00 Build 0)  -->
<!DOCTYPE svg PUBLIC "-//W3C//DTD SVG 1.1//EN" "http://www.w3.org/Graphics/SVG/1.1/DTD/svg11.dtd">
<svg version="1.1" id="Layer_1" xmlns="http://www.w3.org/2000/svg" xmlns:xlink="http://www.w3.org/1999/xlink" x="0px" y="0px"
	 width="70px" height="85px" viewBox="0 0 70 85" enable-background="new 0 0 70 85" xml:space="preserve">
<g>
	<path fill-rule="evenodd" clip-rule="evenodd" fill="#7592FC" d="M5.954,82.843c0,1.102,0.889,1.99,1.986,1.99h17.008
		c1.098,0,1.986-0.889,1.986-1.99V25.666c0-1.101-0.889-1.986-1.986-1.986H7.94c-1.097,0-1.986,0.885-1.986,1.986V82.843z"/>
	<path fill-rule="evenodd" clip-rule="evenodd" fill="#556EE8" d="M6.034,83.076c0,0.938,0.759,1.696,1.695,1.696V23.68
		c-0.936,0-1.695,0.756-1.695,1.694V83.076z"/>
	<path fill="#5F78FF" d="M25.955,83.659c0,0.561-0.455,1.01-1.014,1.01H7.993c-0.559,0-1.012-0.449-1.012-1.01V31.732
		c0-0.556,0.453-1.014,1.012-1.014h16.948c0.559,0,1.014,0.458,1.014,1.014V83.659z"/>
</g>
<g>
	<path fill-rule="evenodd" clip-rule="evenodd" fill="#5A73FC" d="M26.966,44.999c0.117,0.205,0.664,0.244,0.799,0.419l0.035,0.025
		c0.221,0.339,0.479,0.64,0.863,0.805l0.004,0.003c0.115,0.189,0.152,0.414,0.295,0.591c0.074,0.087,0.15,0.178,0.221,0.265
		c0.076,0.096,0.139,0.195,0.193,0.298c0.057,0.112,0.096,0.23,0.131,0.351c0.223,0.931,0.541,1.832,0.785,2.758
		c0.043,0.136,0.074,0.271,0.098,0.41c0.086,1.391,0.076,2.779,0.018,4.168c-0.018,0.139-0.051,0.272-0.094,0.408
		c-0.064,0.193-0.148,0.377-0.24,0.557c-0.051,0.123-0.111,0.235-0.174,0.349c-0.229,0.374-0.346,0.802-0.49,1.214
		c-0.152,0.353-0.322,0.696-0.51,1.029c-0.074,0.111-0.162,0.211-0.264,0.298c-0.557,0.308-1.299,0.543-1.34,0.038
		c1.506-1.43,1.824-4.055,0.412-7.664c0.646-0.084,0.9-1.139-0.135-3.451c-0.102-0.225-0.607-1.277-0.607-1.277V44.999z"/>
	<path fill-rule="evenodd" clip-rule="evenodd" fill="#627EFD" d="M28.054,58.413c0.002,0.451,0.221,0.532,0.594,0.336
		c0.486,0.615,0.051,1.051-0.307,1.477c-0.549,0.654-1.232,1.166-1.844,1.746c-0.303,0.292-0.695,0.629-0.313,1.07
		c0.352,0.408,0.771,0.211,1.115-0.094c0.473-0.408,1.963-0.426,2.623-0.381c0,0-1.98,1.83-4.043,3.33
		c-0.313,0.227,0.035-0.197-1.432-0.244c-1.918-0.059-2.435-0.742-1.836-2.434C23.692,62.429,27.451,58.651,28.054,58.413z"/>
	<path fill-rule="evenodd" clip-rule="evenodd" fill="#6883FE" d="M29.556,62.757c-0.879-0.712-1.744,0.952-2.363,1.379
		c-0.283,0.195-0.086-0.188-0.59-0.455c-0.35-0.182-0.928,0.042-1.041-0.548c-0.094-0.491,0.021-0.898,0.455-1.246
		c0.693-0.56,1.328-1.194,1.998-1.792c0.4-0.361,0.711-0.758,0.633-1.346l0,0c1.916-2.695,2.875-5.59,1.77-8.885
		c-0.121-0.37-3.451-1.832-3.451-1.832v-3.184c0.732,0.486,3.1,2.015,4.893,5.967c1.578,4.262,0.984,8.211-1.936,11.752
		C29.923,62.567,29.681,62.694,29.556,62.757z"/>
	<path fill-rule="evenodd" clip-rule="evenodd" fill="#445AE7" d="M28.695,53.939c-0.246-1.323-1.18-2.698-1.729-3.901v-3.672
		c1.371,1.236,1.539,2.9,2.033,4.43c0.496,1.543,0.578,3.203,0.088,4.822C28.695,55.13,29.205,54.407,28.695,53.939z"/>
	<path fill-rule="evenodd" clip-rule="evenodd" fill="#627EFD" d="M30.052,47.983c0.092,0.092,0.182,0.189,0.277,0.285
		c0.021,0.221,0.078,0.429,0.279,0.566c-0.059,0.221-0.215,0.471-0.033,0.67c1.279,1.391,0.484,3.023,0.527,4.551
		c0.041,1.461-1.029,2.556-1.395,3.895c-0.125,0.468-0.525,0.777-1.061,0.799c0.047-0.448,0.203-0.846,0.57-1.133
		c0.273-0.44,0.318-0.971,0.564-1.42l0,0c0.172-0.148,0.121-0.41,0.283-0.568l0,0c0.473-1.701,0.43-3.404,0-5.105l0,0
		c-0.043-0.977-0.637-1.842-0.566-2.836C29.685,47.784,29.867,47.882,30.052,47.983z"/>
	<path fill-rule="evenodd" clip-rule="evenodd" fill="#5F78FF" d="M30.066,50.522c0.328,0.233,0.518,0.598,0.535,0.96
		c0.039,1.13,0.025,2.261,0.016,3.39c-0.004,0.364-0.234,0.6-0.551,0.756C30.066,53.927,30.066,52.224,30.066,50.522z"/>
	<path fill-rule="evenodd" clip-rule="evenodd" fill="#5F78FF" d="M28.935,47.118c0.094,0.094,0.186,0.186,0.279,0.283
		C29.121,47.304,29.029,47.212,28.935,47.118z"/>
	<path fill-rule="evenodd" clip-rule="evenodd" fill="#5A76EF" d="M20.451,66.813c-2.819-0.963,0.373-2.678,0.373-2.678
		c1.417,0.211,2.371,1.65,3.898,1.305c0.29-0.063,1.067,0.115,1.159,0.457C24.724,66.991,21.082,67.05,20.451,66.813z"/>
	<path fill-rule="evenodd" clip-rule="evenodd" fill="#5B75FB" d="M20.201,64.629c0.648-0.71,1.866-0.993,2.983-1.88
		c0.092,0.002-0.5,2.504,1.053,2.525c0.096,0,0.195-0.013,0.281,0.003c0.549,0.103,1.211-0.341,1.624,0.048
		c0.512,0.486-1.932,1.386-1.225,1.037c0.189-0.09,0.287-0.23,0.262-0.434c-0.029-0.223-0.227-0.382-0.383-0.315
		c-1.104,0.476-2.082-0.134-3.109-0.313c-0.367-0.063-0.75,0.006-1.115-0.047C20.186,65.203,20.061,64.783,20.201,64.629z"/>
	<path fill-rule="evenodd" clip-rule="evenodd" fill="#627EFD" d="M22.12,63.569c-0.102,0.09-0.203,0.182-0.302,0.272
		C21.917,63.751,22.019,63.659,22.12,63.569z"/>
	<path fill-rule="evenodd" clip-rule="evenodd" fill="#627EFD" d="M22.407,63.294c-0.096,0.094-0.193,0.184-0.291,0.275
		C22.214,63.478,22.312,63.388,22.407,63.294z"/>
</g>
<g>
	<path fill-rule="evenodd" clip-rule="evenodd" fill="#5A73FC" d="M6.013,44.999c-0.116,0.205-0.664,0.244-0.799,0.419l-0.034,0.025
		c-0.221,0.339-0.479,0.64-0.865,0.805l-0.003,0.003c-0.114,0.189-0.152,0.414-0.295,0.591c-0.075,0.087-0.15,0.178-0.221,0.265
		c-0.075,0.096-0.138,0.195-0.192,0.298c-0.057,0.112-0.097,0.23-0.131,0.351c-0.224,0.931-0.542,1.832-0.786,2.758
		c-0.043,0.136-0.075,0.271-0.098,0.41c-0.087,1.391-0.076,2.779-0.018,4.168c0.018,0.139,0.052,0.272,0.093,0.408
		c0.064,0.193,0.15,0.377,0.241,0.557c0.052,0.123,0.112,0.235,0.174,0.349c0.229,0.374,0.346,0.802,0.49,1.214
		c0.154,0.353,0.323,0.696,0.511,1.029c0.073,0.111,0.161,0.211,0.263,0.298c0.556,0.308,1.299,0.543,1.339,0.038
		c-1.505-1.43-1.825-4.055-0.413-7.664c-0.645-0.084-0.899-1.139,0.136-3.451c0.101-0.225,0.606-1.277,0.606-1.277V44.999z"/>
	<path fill-rule="evenodd" clip-rule="evenodd" fill="#6883FE" d="M3.424,62.757c0.879-0.712,1.745,0.952,2.364,1.379
		c0.282,0.195,0.085-0.188,0.59-0.455c0.348-0.182,0.926,0.042,1.04-0.548c0.094-0.491-0.021-0.898-0.455-1.246
		c-0.694-0.56-1.328-1.194-1.999-1.792c-0.401-0.361-0.71-0.758-0.633-1.346l0,0c-1.915-2.695-2.875-5.59-1.769-8.885
		c0.122-0.37,3.451-1.832,3.451-1.832v-3.184c-0.731,0.486-3.099,2.015-4.892,5.967c-1.578,4.262-0.984,8.211,1.936,11.752
		C3.057,62.567,3.3,62.694,3.424,62.757z"/>
	<path fill-rule="evenodd" clip-rule="evenodd" fill="#445AE7" d="M4.285,53.939c0.246-1.323,1.18-2.698,1.728-3.901v-3.672
		c-1.371,1.236-1.539,2.9-2.033,4.43c-0.496,1.543-0.578,3.203-0.087,4.822C4.285,55.13,3.776,54.407,4.285,53.939z"/>
	<path fill-rule="evenodd" clip-rule="evenodd" fill="#627EFD" d="M2.927,47.983c-0.091,0.092-0.182,0.189-0.277,0.285
		c-0.021,0.221-0.078,0.429-0.28,0.566c0.059,0.221,0.216,0.471,0.034,0.67c-1.278,1.391-0.484,3.023-0.526,4.551
		c-0.042,1.461,1.028,2.556,1.394,3.895c0.125,0.468,0.525,0.777,1.06,0.799c-0.046-0.448-0.203-0.846-0.569-1.133
		c-0.273-0.44-0.318-0.971-0.565-1.42l0,0c-0.173-0.148-0.121-0.41-0.283-0.568l0,0c-0.473-1.701-0.429-3.404,0-5.105l0,0
		c0.043-0.977,0.637-1.842,0.566-2.836C3.295,47.784,3.113,47.882,2.927,47.983z"/>
	<path fill-rule="evenodd" clip-rule="evenodd" fill="#5F78FF" d="M2.914,50.522c-0.328,0.233-0.518,0.598-0.535,0.96
		c-0.04,1.13-0.026,2.261-0.016,3.39c0.004,0.364,0.233,0.6,0.55,0.756C2.914,53.927,2.914,52.224,2.914,50.522z"/>
	<path fill-rule="evenodd" clip-rule="evenodd" fill="#5F78FF" d="M4.045,47.118c-0.094,0.094-0.186,0.186-0.28,0.283
		C3.859,47.304,3.951,47.212,4.045,47.118z"/>
	<path fill-rule="evenodd" clip-rule="evenodd" fill="#627EFD" d="M9.796,62.751c-1.497-1.244-4.348-4.132-4.87-4.338
		c-0.003,0.451-0.222,0.532-0.595,0.336c-0.486,0.615-0.049,1.051,0.308,1.477c0.548,0.654,1.231,1.166,1.844,1.746
		c0.303,0.292,0.694,0.629,0.312,1.07c-0.351,0.408-0.771,0.211-1.115-0.094c-0.472-0.408-1.962-0.426-2.622-0.381
		c0,0,5.201,5.229,9.472,4.246C15.434,66.145,10.602,63.42,9.796,62.751z"/>
</g>
<g>
	<g>
		<path fill="#5F78FF" d="M37.154,38.496c-9.616-6.351-12.272-19.344-5.92-28.957c6.354-9.615,19.348-12.268,28.959-5.917
			c9.615,6.352,12.268,19.343,5.916,28.958C59.758,42.194,46.768,44.849,37.154,38.496z M58.859,5.642
			c-8.5-5.617-19.986-3.271-25.604,5.233c-5.615,8.498-3.27,19.984,5.233,25.601c8.5,5.616,19.988,3.271,25.604-5.228
			C69.709,22.745,67.359,11.258,58.859,5.642z"/>
		<path fill="#5F78FF" d="M48.01,22.07c-0.057-0.038-0.117-0.083-0.164-0.131c-0.428-0.405-0.502-1.056-0.18-1.543l4.883-7.392
			c0.369-0.557,1.119-0.712,1.676-0.345c0.557,0.368,0.709,1.121,0.342,1.677l-1.088,1.646l6.301-4.681
			c0.537-0.395,1.299-0.287,1.691,0.252c0.398,0.535,0.289,1.295-0.248,1.69L49.4,22.031C48.982,22.338,48.426,22.345,48.01,22.07z"
			/>
		<path fill="#5F78FF" d="M58.473,6.229c0.369,0.243,0.469,0.735,0.225,1.103C58.455,7.7,57.963,7.8,57.596,7.556
			c-0.369-0.242-0.467-0.734-0.225-1.101C57.615,6.087,58.105,5.985,58.473,6.229z"/>
		<path fill="#5F78FF" d="M57.539,7.643c-0.414-0.274-0.525-0.834-0.256-1.245c0.275-0.415,0.832-0.528,1.246-0.253
			c0.414,0.273,0.529,0.83,0.256,1.244C58.514,7.8,57.953,7.916,57.539,7.643z M58.416,6.314c-0.318-0.211-0.75-0.127-0.963,0.195
			c-0.211,0.32-0.123,0.752,0.197,0.964c0.322,0.213,0.752,0.123,0.963-0.197C58.826,6.955,58.738,6.527,58.416,6.314z"/>
		<circle fill="#5F78FF" cx="49.604" cy="5.659" r="0.723"/>
		<path fill="#5F78FF" d="M42.428,6.935c0.18,0.359,0.033,0.794-0.326,0.971c-0.357,0.178-0.793,0.036-0.967-0.327
			c-0.182-0.351-0.033-0.791,0.322-0.969C41.814,6.432,42.248,6.579,42.428,6.935z"/>
		<path fill="#5F78FF" d="M34.947,11.031c0.369,0.243,0.467,0.739,0.223,1.108c-0.242,0.366-0.734,0.468-1.102,0.224
			c-0.367-0.242-0.469-0.736-0.227-1.102C34.083,10.893,34.582,10.789,34.947,11.031z"/>
		<path fill="#5F78FF" d="M34.011,12.449c-0.414-0.273-0.527-0.833-0.256-1.244c0.273-0.412,0.836-0.528,1.246-0.256
			c0.414,0.274,0.527,0.83,0.254,1.246C34.984,12.606,34.423,12.723,34.011,12.449z M34.892,11.116
			c-0.32-0.208-0.756-0.118-0.969,0.2c-0.209,0.318-0.121,0.752,0.199,0.963s0.754,0.122,0.963-0.196
			C35.298,11.76,35.212,11.328,34.892,11.116z"/>
		<path fill="#5F78FF" d="M33.32,19.405c0.398,0.027,0.701,0.368,0.678,0.768c-0.023,0.4-0.363,0.702-0.768,0.682
			c-0.398-0.026-0.705-0.371-0.678-0.768C32.578,19.685,32.921,19.383,33.32,19.405z"/>
		<path fill="#5F78FF" d="M34.548,27.307c0.361-0.179,0.795-0.034,0.971,0.324c0.182,0.359,0.037,0.791-0.32,0.968
			c-0.359,0.18-0.797,0.036-0.973-0.322C34.046,27.917,34.193,27.488,34.548,27.307z"/>
		<path fill="#5F78FF" d="M38.652,34.786c0.242-0.368,0.734-0.468,1.102-0.225c0.367,0.242,0.465,0.737,0.225,1.102
			c-0.244,0.369-0.738,0.47-1.104,0.228C38.508,35.647,38.408,35.154,38.652,34.786z"/>
		<path fill="#5F78FF" d="M38.82,35.974L38.82,35.974c-0.41-0.271-0.527-0.829-0.254-1.245c0.271-0.412,0.83-0.528,1.244-0.254
			c0.412,0.273,0.527,0.834,0.256,1.245C39.791,36.135,39.234,36.248,38.82,35.974z M39.699,34.647
			c-0.32-0.213-0.754-0.125-0.965,0.194c-0.211,0.321-0.123,0.753,0.197,0.964c0.322,0.213,0.752,0.123,0.963-0.197
			C40.105,35.289,40.02,34.858,39.699,34.647z"/>
		<path fill="#5F78FF" d="M47.027,36.413c0.021-0.399,0.361-0.702,0.764-0.676c0.396,0.023,0.703,0.365,0.68,0.768
			c-0.027,0.394-0.369,0.699-0.768,0.675C47.303,37.154,47,36.811,47.027,36.413z"/>
		<path fill="#5F78FF" d="M54.922,35.187c-0.178-0.364-0.033-0.797,0.324-0.975c0.355-0.18,0.793-0.033,0.971,0.322
			c0.18,0.359,0.031,0.797-0.324,0.974C55.533,35.685,55.104,35.539,54.922,35.187z"/>
		<path fill="#5F78FF" d="M62.402,31.085c-0.371-0.245-0.469-0.737-0.227-1.104c0.242-0.368,0.738-0.472,1.105-0.23
			c0.369,0.243,0.467,0.74,0.223,1.108C63.262,31.226,62.771,31.327,62.402,31.085z"/>
		<path fill="#5F78FF" d="M62.346,31.17L62.346,31.17c-0.412-0.276-0.525-0.836-0.256-1.245c0.133-0.201,0.336-0.34,0.57-0.383
			c0.236-0.048,0.477-0.003,0.676,0.128c0.414,0.273,0.527,0.829,0.252,1.245C63.316,31.324,62.758,31.439,62.346,31.17z
			 M63.23,29.839c-0.16-0.104-0.346-0.14-0.529-0.101c-0.184,0.037-0.338,0.143-0.441,0.3c-0.209,0.318-0.121,0.75,0.197,0.963
			c0.318,0.209,0.752,0.12,0.965-0.196C63.635,30.482,63.549,30.05,63.23,29.839z"/>
		<path fill="#5F78FF" d="M64.031,22.707c-0.4-0.017-0.705-0.364-0.68-0.762c0.023-0.4,0.365-0.703,0.768-0.68
			c0.398,0.022,0.705,0.369,0.68,0.763C64.771,22.431,64.428,22.736,64.031,22.707z"/>
		<path fill="#5F78FF" d="M62.801,14.813c-0.359,0.175-0.795,0.032-0.971-0.327c-0.184-0.356-0.035-0.79,0.322-0.969
			c0.357-0.182,0.791-0.031,0.971,0.323C63.301,14.199,63.156,14.632,62.801,14.813z"/>
	</g>
	<g>
		<path fill="#8DC3F1" d="M37.32,39.308c-9.616-6.352-12.272-19.343-5.92-28.957c6.356-9.616,19.346-12.269,28.961-5.916
			c9.613,6.352,12.266,19.342,5.914,28.958C59.924,43.007,46.934,45.66,37.32,39.308z M59.025,6.454
			c-8.5-5.617-19.986-3.272-25.606,5.231c-5.615,8.498-3.268,19.983,5.237,25.601c8.498,5.615,19.986,3.271,25.6-5.227
			C69.873,23.557,67.525,12.069,59.025,6.454z"/>
		<path fill="#8DC3F1" d="M48.176,22.88c-0.057-0.037-0.115-0.083-0.164-0.131c-0.428-0.404-0.504-1.056-0.182-1.542l4.885-7.395
			c0.367-0.555,1.119-0.712,1.676-0.343c0.559,0.368,0.709,1.12,0.342,1.676l-1.088,1.647l6.301-4.681
			c0.537-0.396,1.297-0.288,1.689,0.252c0.4,0.536,0.291,1.295-0.246,1.69l-11.824,8.789C49.146,23.149,48.592,23.156,48.176,22.88z
			"/>
		<path fill="#8DC3F1" d="M58.639,7.041c0.367,0.243,0.469,0.734,0.225,1.101c-0.242,0.368-0.734,0.47-1.102,0.226
			c-0.369-0.243-0.469-0.735-0.227-1.103C57.779,6.898,58.27,6.797,58.639,7.041z"/>
		<path fill="#8DC3F1" d="M57.705,8.454c-0.416-0.274-0.525-0.833-0.254-1.245c0.273-0.414,0.828-0.528,1.244-0.253
			c0.412,0.271,0.529,0.831,0.256,1.244C58.68,8.611,58.117,8.726,57.705,8.454z M58.584,7.125c-0.32-0.21-0.754-0.126-0.965,0.195
			c-0.213,0.321-0.121,0.753,0.197,0.965c0.322,0.213,0.752,0.124,0.963-0.197C58.992,7.767,58.904,7.337,58.584,7.125z"/>
		<circle fill="#8DC3F1" cx="49.77" cy="6.469" r="0.723"/>
		<path fill="#8DC3F1" d="M42.594,7.744c0.18,0.362,0.033,0.794-0.326,0.972c-0.355,0.179-0.793,0.036-0.969-0.326
			c-0.182-0.352-0.033-0.792,0.322-0.97C41.98,7.243,42.412,7.389,42.594,7.744z"/>
		<path fill="#8DC3F1" d="M35.113,11.843c0.367,0.243,0.467,0.738,0.223,1.108c-0.242,0.366-0.734,0.467-1.102,0.224
			c-0.367-0.243-0.471-0.737-0.229-1.103C34.251,11.703,34.746,11.601,35.113,11.843z"/>
		<path fill="#8DC3F1" d="M34.177,13.26c-0.414-0.273-0.527-0.833-0.256-1.244c0.273-0.414,0.836-0.528,1.246-0.256
			c0.414,0.274,0.527,0.83,0.252,1.247C35.148,13.417,34.591,13.534,34.177,13.26z M35.056,11.927
			c-0.32-0.21-0.754-0.119-0.967,0.201c-0.209,0.317-0.119,0.75,0.201,0.962c0.318,0.211,0.752,0.122,0.959-0.195
			C35.464,12.571,35.376,12.138,35.056,11.927z"/>
		<path fill="#8DC3F1" d="M33.486,20.216c0.398,0.027,0.701,0.368,0.678,0.768s-0.365,0.703-0.768,0.682
			c-0.4-0.025-0.705-0.371-0.678-0.768C32.746,20.496,33.087,20.194,33.486,20.216z"/>
		<path fill="#8DC3F1" d="M34.712,28.118c0.363-0.18,0.795-0.034,0.975,0.324s0.035,0.791-0.322,0.968
			c-0.359,0.179-0.797,0.036-0.973-0.323C34.214,28.727,34.357,28.298,34.712,28.118z"/>
		<path fill="#8DC3F1" d="M38.816,35.598c0.244-0.369,0.736-0.469,1.104-0.226c0.369,0.242,0.465,0.737,0.225,1.103
			c-0.244,0.367-0.738,0.468-1.104,0.227C38.674,36.458,38.574,35.964,38.816,35.598z"/>
		<path fill="#8DC3F1" d="M38.986,36.785L38.986,36.785c-0.412-0.272-0.527-0.829-0.254-1.244c0.271-0.412,0.828-0.529,1.244-0.254
			c0.412,0.271,0.527,0.834,0.256,1.245C39.959,36.946,39.398,37.057,38.986,36.785z M39.865,35.457
			c-0.32-0.212-0.756-0.125-0.967,0.195c-0.209,0.321-0.119,0.753,0.199,0.964c0.322,0.213,0.752,0.123,0.963-0.196
			C40.271,36.1,40.186,35.668,39.865,35.457z"/>
		<path fill="#8DC3F1" d="M47.191,37.224c0.023-0.398,0.363-0.702,0.764-0.675c0.398,0.022,0.703,0.363,0.68,0.767
			c-0.025,0.394-0.369,0.7-0.768,0.675S47.168,37.623,47.191,37.224z"/>
		<path fill="#8DC3F1" d="M55.088,35.998c-0.178-0.363-0.033-0.797,0.324-0.975c0.355-0.181,0.793-0.033,0.971,0.321
			c0.18,0.361,0.031,0.797-0.324,0.976C55.697,36.496,55.268,36.351,55.088,35.998z"/>
		<path fill="#8DC3F1" d="M62.568,31.896c-0.371-0.245-0.471-0.737-0.229-1.103c0.244-0.37,0.74-0.473,1.107-0.229
			c0.369,0.24,0.467,0.738,0.223,1.107C63.428,32.038,62.938,32.136,62.568,31.896z"/>
		<path fill="#8DC3F1" d="M62.512,31.981L62.512,31.981c-0.412-0.275-0.527-0.835-0.258-1.244c0.135-0.202,0.338-0.34,0.572-0.384
			c0.234-0.05,0.479-0.003,0.676,0.128c0.414,0.273,0.527,0.829,0.25,1.246C63.482,32.135,62.922,32.25,62.512,31.981z
			 M63.395,30.65c-0.158-0.105-0.344-0.141-0.529-0.102c-0.182,0.037-0.338,0.145-0.439,0.3c-0.211,0.317-0.121,0.75,0.197,0.963
			c0.318,0.208,0.752,0.12,0.963-0.196C63.801,31.293,63.713,30.86,63.395,30.65z"/>
		<path fill="#8DC3F1" d="M64.195,23.519c-0.398-0.018-0.703-0.364-0.678-0.762c0.023-0.4,0.365-0.703,0.768-0.68
			c0.4,0.022,0.703,0.368,0.68,0.764C64.938,23.24,64.594,23.547,64.195,23.519z"/>
		<path fill="#8DC3F1" d="M62.967,15.624c-0.359,0.175-0.797,0.032-0.971-0.326c-0.184-0.357-0.037-0.791,0.322-0.969
			c0.357-0.183,0.791-0.033,0.971,0.32C63.467,15.01,63.32,15.443,62.967,15.624z"/>
	</g>
	<path fill="#8DC3F1" d="M24.862,61.813c-0.9,0.74-4.039,2.322-4.039,2.322l-0.386-0.34l16.717-25.3l2.582,1.707L27.32,58.996
		C27.32,58.996,25.585,61.221,24.862,61.813z"/>
</g>
</svg>
