<?xml version="1.0" encoding="utf-8"?>
<!-- Generator: Adobe Illustrator 16.0.0, SVG Export Plug-In . SVG Version: 6.00 Build 0)  -->
<!DOCTYPE svg PUBLIC "-//W3C//DTD SVG 1.1//EN" "http://www.w3.org/Graphics/SVG/1.1/DTD/svg11.dtd">
<svg version="1.1" id="Layer_1" xmlns="http://www.w3.org/2000/svg" xmlns:xlink="http://www.w3.org/1999/xlink" x="0px" y="0px"
	 width="68px" height="76px" viewBox="0 0 68 76" enable-background="new 0 0 68 76" xml:space="preserve">
<path fill-rule="evenodd" clip-rule="evenodd" fill="#C68C58" d="M26.968,43.185c0-2.647-2.32-4.795-5.186-4.795l0,0
	c-2.863,0-5.186,2.147-5.186,4.795V70.95c0,2.647,2.322,4.795,5.186,4.795l0,0c2.865,0,5.186-2.147,5.186-4.795V43.185z"/>
<path fill-rule="evenodd" clip-rule="evenodd" fill="#B1814A" d="M26.968,43.185c0-2.647-2.32-4.795-5.186-4.795l0,0
	c-2.863,0-5.186,2.147-5.186,4.795V70.95c0,1.9,1.197,3.543,2.932,4.318V51.254c0,0-0.895-7.03,7.439-6.3V43.185z"/>
<path fill-rule="evenodd" clip-rule="evenodd" fill="#01E881" d="M49.679,74.318c0,0.789,0.639,1.427,1.426,1.427h15.408
	c0.787,0,1.426-0.638,1.426-1.427V35.567c0-0.79-0.639-1.427-1.426-1.427H51.104c-0.787,0-1.426,0.637-1.426,1.427V74.318z"/>
<path fill-rule="evenodd" clip-rule="evenodd" fill="#01DA76" d="M49.679,74.318c0,0.789,0.639,1.427,1.426,1.427V34.141
	c-0.787,0-1.426,0.637-1.426,1.427V74.318z"/>
<path fill-rule="evenodd" clip-rule="evenodd" fill="#00DF7E" d="M66.509,39.192h-7.52h-0.328h-7.518
	c-0.402,0-0.727,0.323-0.727,0.726v15.594v2.727v16.663c0,0.399,0.324,0.727,0.727,0.727h7.518h0.328h7.52
	c0.398,0,0.725-0.327,0.725-0.727V58.238v-2.727V39.918C67.233,39.516,66.907,39.192,66.509,39.192z"/>
<circle fill-rule="evenodd" clip-rule="evenodd" fill="#CCD7C8" cx="58.81" cy="49.089" r="4.135"/>
<circle fill-rule="evenodd" clip-rule="evenodd" fill="#D9DCD5" cx="59.27" cy="48.797" r="3.56"/>
<circle fill-rule="evenodd" clip-rule="evenodd" fill="#E7E9E7" cx="59.622" cy="48.443" r="3.014"/>
<circle fill-rule="evenodd" clip-rule="evenodd" fill="#FAFCFC" cx="60.101" cy="47.965" r="2.279"/>
<circle fill-rule="evenodd" clip-rule="evenodd" fill="#242524" cx="58.81" cy="47.751" r="1.797"/>
<path fill-rule="evenodd" clip-rule="evenodd" fill="#04D075" d="M43.499,21.975c0,11.995-9.721,21.716-21.719,21.716
	S0.062,33.97,0.062,21.975c0-11.996,9.721-21.72,21.719-21.72S43.499,9.979,43.499,21.975z"/>
<path fill-rule="evenodd" clip-rule="evenodd" fill="#03DB7C" d="M5.499,20.44c0,10.328,8.371,18.695,18.693,18.695
	c10.336,0,18.701-8.367,18.701-18.695c0-10.331-8.365-18.697-18.701-18.697C13.87,1.743,5.499,10.109,5.499,20.44z"/>
<circle fill-rule="evenodd" clip-rule="evenodd" fill="#01E682" cx="26.048" cy="18.586" r="15.83"/>
<path fill-rule="evenodd" clip-rule="evenodd" fill="#03EE89" d="M16.589,16.072c0,6.612,5.361,11.976,11.973,11.976
	c6.607,0,11.973-5.363,11.973-11.976c0-6.609-5.365-11.97-11.973-11.97C21.95,4.103,16.589,9.463,16.589,16.072z"/>
</svg>
