<?xml version="1.0" encoding="utf-8"?>
<!-- Generator: Adobe Illustrator 16.0.0, SVG Export Plug-In . SVG Version: 6.00 Build 0)  -->
<!DOCTYPE svg PUBLIC "-//W3C//DTD SVG 1.1//EN" "http://www.w3.org/Graphics/SVG/1.1/DTD/svg11.dtd">
<svg version="1.1" id="Layer_1" xmlns="http://www.w3.org/2000/svg" xmlns:xlink="http://www.w3.org/1999/xlink" x="0px" y="0px"
	 width="70px" height="85px" viewBox="0 0 70 85" enable-background="new 0 0 70 85" xml:space="preserve">
<g>
	<path fill="#7592FC" d="M5.954,83.01c0,1.103,0.889,1.99,1.986,1.99h17.008c1.098,0,1.986-0.89,1.986-1.99V25.833
		c0-1.101-0.889-1.986-1.986-1.986H7.94c-1.097,0-1.986,0.885-1.986,1.986V83.01z"/>
	<path fill="#556EE8" d="M6.034,83.243c0,0.938,0.759,1.695,1.695,1.695V23.847c-0.936,0-1.695,0.756-1.695,1.694V83.243z"/>
	<path fill="#5F78FF" d="M25.955,83.826c0,0.562-0.455,1.01-1.014,1.01H7.993c-0.559,0-1.012-0.448-1.012-1.01V31.899
		c0-0.556,0.453-1.014,1.012-1.014h16.948c0.559,0,1.014,0.458,1.014,1.014V83.826z"/>
</g>
<g>
	<path fill="#5A73FC" d="M26.966,45.166c0.117,0.205,0.664,0.244,0.799,0.419L27.8,45.61c0.221,0.339,0.479,0.64,0.863,0.805
		l0.004,0.003c0.115,0.188,0.152,0.414,0.295,0.591c0.074,0.088,0.15,0.178,0.221,0.266c0.076,0.096,0.139,0.194,0.193,0.297
		c0.057,0.113,0.096,0.23,0.131,0.352c0.223,0.932,0.541,1.832,0.785,2.758c0.043,0.137,0.074,0.271,0.098,0.41
		c0.086,1.391,0.076,2.779,0.018,4.168c-0.018,0.139-0.051,0.272-0.094,0.408c-0.064,0.193-0.148,0.377-0.24,0.557
		c-0.051,0.123-0.111,0.235-0.174,0.35c-0.229,0.373-0.346,0.802-0.49,1.214c-0.152,0.353-0.322,0.696-0.51,1.028
		c-0.074,0.111-0.162,0.211-0.264,0.299c-0.557,0.308-1.299,0.543-1.34,0.037c1.506-1.43,1.824-4.055,0.412-7.664
		c0.646-0.084,0.9-1.139-0.135-3.45c-0.102-0.226-0.607-1.277-0.607-1.277V45.166z"/>
	<path fill="#627EFD" d="M28.054,58.58c0.002,0.451,0.221,0.532,0.594,0.336c0.486,0.615,0.051,1.051-0.307,1.478
		c-0.549,0.653-1.232,1.166-1.844,1.746c-0.303,0.291-0.695,0.629-0.313,1.069c0.352,0.408,0.771,0.211,1.115-0.094
		c0.473-0.408,1.963-0.427,2.623-0.382c0,0-1.98,1.83-4.043,3.33c-0.313,0.228,0.035-0.196-1.432-0.244
		c-1.918-0.059-2.435-0.741-1.836-2.434C23.692,62.597,27.451,58.817,28.054,58.58z"/>
	<path fill="#6883FE" d="M29.556,62.924c-0.879-0.712-1.744,0.952-2.363,1.379c-0.283,0.195-0.086-0.188-0.59-0.454
		c-0.35-0.183-0.928,0.041-1.041-0.549c-0.094-0.49,0.021-0.898,0.455-1.246c0.693-0.56,1.328-1.193,1.998-1.791
		c0.4-0.361,0.711-0.759,0.633-1.347l0,0c1.916-2.694,2.875-5.59,1.77-8.885c-0.121-0.37-3.451-1.832-3.451-1.832v-3.185
		c0.732,0.486,3.1,2.016,4.893,5.967c1.578,4.263,0.984,8.211-1.936,11.752C29.923,62.733,29.681,62.86,29.556,62.924z"/>
	<path fill="#445AE7" d="M28.695,54.106c-0.246-1.323-1.18-2.698-1.729-3.901v-3.672c1.371,1.235,1.539,2.899,2.033,4.43
		c0.496,1.543,0.578,3.203,0.088,4.822C28.695,55.297,29.205,54.574,28.695,54.106z"/>
	<path fill="#627EFD" d="M30.052,48.149c0.092,0.093,0.182,0.189,0.277,0.285c0.021,0.222,0.078,0.43,0.279,0.566
		c-0.059,0.221-0.215,0.471-0.033,0.67c1.279,1.391,0.484,3.023,0.527,4.551c0.041,1.461-1.029,2.557-1.395,3.896
		c-0.125,0.468-0.525,0.776-1.061,0.799c0.047-0.448,0.203-0.847,0.57-1.133c0.273-0.44,0.318-0.972,0.564-1.421l0,0
		c0.172-0.147,0.121-0.409,0.283-0.567l0,0c0.473-1.701,0.43-3.403,0-5.104l0,0c-0.043-0.978-0.637-1.842-0.566-2.836
		C29.685,47.951,29.867,48.049,30.052,48.149z"/>
	<path fill="#5F78FF" d="M30.066,50.688c0.328,0.233,0.518,0.599,0.535,0.961c0.039,1.129,0.025,2.261,0.016,3.39
		c-0.004,0.364-0.234,0.601-0.551,0.756C30.066,54.094,30.066,52.392,30.066,50.688z"/>
	<path fill="#5F78FF" d="M28.935,47.285c0.094,0.094,0.186,0.187,0.279,0.282C29.121,47.472,29.029,47.379,28.935,47.285z"/>
	<path fill="#5A76EF" d="M20.451,66.979c-2.819-0.963,0.373-2.678,0.373-2.678c1.417,0.211,2.371,1.65,3.898,1.305
		c0.29-0.063,1.067,0.115,1.159,0.457C24.724,67.158,21.082,67.217,20.451,66.979z"/>
	<path fill="#5B75FB" d="M20.201,64.796c0.648-0.71,1.866-0.993,2.983-1.88c0.092,0.002-0.5,2.504,1.053,2.524
		c0.096,0,0.195-0.013,0.281,0.004c0.549,0.103,1.211-0.342,1.624,0.048c0.512,0.485-1.932,1.386-1.225,1.036
		c0.189-0.09,0.287-0.229,0.262-0.434c-0.029-0.223-0.227-0.382-0.383-0.314c-1.104,0.476-2.082-0.135-3.109-0.313
		c-0.367-0.063-0.75,0.007-1.115-0.047C20.186,65.37,20.061,64.95,20.201,64.796z"/>
	<path fill="#627EFD" d="M22.12,63.735c-0.102,0.091-0.203,0.183-0.302,0.272C21.917,63.918,22.019,63.826,22.12,63.735z"/>
	<path fill="#627EFD" d="M22.407,63.461c-0.096,0.095-0.193,0.185-0.291,0.274C22.214,63.646,22.312,63.556,22.407,63.461z"/>
</g>
<g>
	<path fill="#5A73FC" d="M6.013,45.166c-0.116,0.205-0.664,0.244-0.799,0.419L5.18,45.61c-0.221,0.339-0.479,0.64-0.865,0.805
		l-0.003,0.003c-0.114,0.188-0.152,0.414-0.295,0.591c-0.075,0.088-0.15,0.178-0.221,0.266c-0.075,0.096-0.138,0.194-0.192,0.297
		c-0.057,0.113-0.097,0.23-0.131,0.352c-0.224,0.932-0.542,1.832-0.786,2.758c-0.043,0.137-0.075,0.271-0.098,0.41
		c-0.087,1.391-0.076,2.779-0.018,4.168c0.018,0.139,0.052,0.272,0.093,0.408c0.064,0.193,0.15,0.377,0.241,0.557
		c0.052,0.123,0.112,0.235,0.174,0.35c0.229,0.373,0.346,0.802,0.49,1.214c0.154,0.353,0.323,0.696,0.511,1.028
		c0.073,0.111,0.161,0.211,0.263,0.299c0.556,0.308,1.299,0.543,1.339,0.037c-1.505-1.43-1.825-4.055-0.413-7.664
		c-0.645-0.084-0.899-1.139,0.136-3.45c0.101-0.226,0.606-1.277,0.606-1.277v-1.594H6.013z"/>
	<path fill="#6883FE" d="M3.424,62.924c0.879-0.712,1.745,0.952,2.364,1.379c0.282,0.195,0.085-0.188,0.59-0.454
		c0.348-0.183,0.926,0.041,1.04-0.549c0.094-0.49-0.021-0.898-0.455-1.246c-0.694-0.56-1.328-1.193-1.999-1.791
		c-0.401-0.361-0.71-0.759-0.633-1.347l0,0c-1.915-2.694-2.875-5.59-1.769-8.885c0.122-0.37,3.451-1.832,3.451-1.832v-3.185
		c-0.731,0.486-3.099,2.016-4.892,5.967c-1.578,4.263-0.984,8.211,1.936,11.752C3.057,62.733,3.3,62.86,3.424,62.924z"/>
	<path fill="#445AE7" d="M4.285,54.106c0.246-1.323,1.18-2.698,1.728-3.901v-3.672c-1.371,1.235-1.539,2.899-2.033,4.43
		c-0.496,1.543-0.578,3.203-0.087,4.822C4.285,55.297,3.776,54.574,4.285,54.106z"/>
	<path fill="#627EFD" d="M2.927,48.149c-0.091,0.093-0.182,0.189-0.277,0.285c-0.021,0.222-0.078,0.43-0.28,0.566
		c0.059,0.221,0.216,0.471,0.034,0.67c-1.278,1.391-0.484,3.023-0.526,4.551c-0.042,1.461,1.028,2.557,1.394,3.896
		c0.125,0.468,0.525,0.776,1.06,0.799c-0.046-0.448-0.203-0.847-0.569-1.133c-0.273-0.44-0.318-0.972-0.565-1.421l0,0
		c-0.173-0.147-0.121-0.409-0.283-0.567l0,0c-0.473-1.701-0.429-3.403,0-5.104l0,0c0.043-0.978,0.637-1.842,0.566-2.836
		C3.295,47.951,3.113,48.049,2.927,48.149z"/>
	<path fill="#5F78FF" d="M2.914,50.688c-0.328,0.233-0.518,0.599-0.535,0.961c-0.04,1.129-0.026,2.261-0.016,3.39
		c0.004,0.364,0.233,0.601,0.55,0.756C2.914,54.094,2.914,52.392,2.914,50.688z"/>
	<path fill="#5F78FF" d="M4.045,47.285c-0.094,0.094-0.186,0.187-0.28,0.282C3.859,47.472,3.951,47.379,4.045,47.285z"/>
	<path fill="#627EFD" d="M9.796,62.918c-1.497-1.244-4.348-4.132-4.87-4.338c-0.003,0.451-0.222,0.532-0.595,0.336
		c-0.486,0.615-0.049,1.051,0.308,1.478c0.548,0.653,1.231,1.166,1.844,1.746c0.303,0.291,0.694,0.629,0.312,1.069
		c-0.351,0.408-0.771,0.211-1.115-0.094c-0.472-0.408-1.962-0.427-2.622-0.382c0,0,5.201,5.229,9.472,4.246
		C15.434,66.312,10.602,63.587,9.796,62.918z"/>
</g>
<g>
	<g>
		<path fill="#5F78FF" d="M37.154,38.663c-9.616-6.351-12.272-19.344-5.92-28.957c6.354-9.615,19.348-12.268,28.959-5.917
			c9.615,6.352,12.268,19.343,5.916,28.958C59.758,42.361,46.768,45.017,37.154,38.663z M58.859,5.809
			c-8.5-5.617-19.986-3.271-25.604,5.233c-5.615,8.498-3.27,19.984,5.233,25.601c8.5,5.616,19.988,3.271,25.604-5.228
			C69.709,22.912,67.359,11.425,58.859,5.809z"/>
		<path fill="#5F78FF" d="M48.01,22.237c-0.057-0.038-0.117-0.083-0.164-0.131c-0.428-0.405-0.502-1.056-0.18-1.543l4.883-7.392
			c0.369-0.557,1.119-0.712,1.676-0.345c0.558,0.368,0.709,1.121,0.342,1.677l-1.088,1.646l6.301-4.681
			c0.537-0.395,1.3-0.287,1.691,0.252c0.398,0.535,0.289,1.295-0.248,1.69L49.4,22.198C48.982,22.505,48.426,22.512,48.01,22.237z"
			/>
		<path fill="#5F78FF" d="M58.473,6.396c0.369,0.243,0.469,0.735,0.226,1.103s-0.735,0.468-1.103,0.224
			c-0.369-0.242-0.467-0.734-0.225-1.101C57.615,6.254,58.105,6.152,58.473,6.396z"/>
		<path fill="#5F78FF" d="M57.539,7.81c-0.414-0.274-0.525-0.834-0.256-1.245c0.275-0.415,0.832-0.528,1.246-0.253
			c0.414,0.273,0.529,0.83,0.256,1.244C58.514,7.967,57.953,8.083,57.539,7.81z M58.416,6.481c-0.318-0.211-0.75-0.127-0.963,0.195
			c-0.211,0.32-0.123,0.752,0.197,0.964c0.322,0.213,0.752,0.123,0.963-0.197C58.826,7.122,58.738,6.694,58.416,6.481z"/>
		<circle fill="#5F78FF" cx="49.604" cy="5.826" r="0.723"/>
		<path fill="#5F78FF" d="M42.428,7.102c0.18,0.359,0.033,0.794-0.326,0.971c-0.356,0.178-0.793,0.036-0.967-0.327
			c-0.182-0.351-0.033-0.791,0.322-0.969C41.814,6.599,42.248,6.746,42.428,7.102z"/>
		<path fill="#5F78FF" d="M34.947,11.198c0.369,0.243,0.467,0.739,0.223,1.108c-0.242,0.366-0.734,0.468-1.102,0.224
			c-0.367-0.242-0.469-0.736-0.227-1.102C34.083,11.06,34.582,10.956,34.947,11.198z"/>
		<path fill="#5F78FF" d="M34.011,12.616c-0.414-0.273-0.527-0.833-0.256-1.244c0.273-0.412,0.836-0.528,1.246-0.256
			c0.414,0.274,0.526,0.83,0.254,1.246C34.984,12.773,34.423,12.89,34.011,12.616z M34.892,11.283
			c-0.32-0.208-0.756-0.118-0.969,0.2c-0.209,0.318-0.121,0.752,0.199,0.963c0.32,0.211,0.754,0.122,0.963-0.196
			C35.298,11.927,35.212,11.495,34.892,11.283z"/>
		<path fill="#5F78FF" d="M33.32,19.572c0.398,0.027,0.701,0.368,0.678,0.768c-0.023,0.4-0.363,0.702-0.768,0.682
			c-0.398-0.026-0.705-0.371-0.678-0.768C32.578,19.852,32.921,19.55,33.32,19.572z"/>
		<path fill="#5F78FF" d="M34.548,27.474c0.361-0.179,0.795-0.034,0.972,0.324c0.182,0.359,0.037,0.791-0.32,0.968
			c-0.359,0.18-0.797,0.036-0.973-0.322C34.046,28.084,34.193,27.655,34.548,27.474z"/>
		<path fill="#5F78FF" d="M38.652,34.953c0.242-0.368,0.734-0.468,1.102-0.225c0.367,0.242,0.465,0.737,0.225,1.102
			c-0.244,0.369-0.737,0.47-1.104,0.228C38.508,35.814,38.408,35.321,38.652,34.953z"/>
		<path fill="#5F78FF" d="M38.82,36.141L38.82,36.141c-0.41-0.271-0.527-0.829-0.254-1.245c0.271-0.412,0.83-0.528,1.244-0.254
			c0.412,0.273,0.526,0.834,0.256,1.245C39.791,36.302,39.234,36.415,38.82,36.141z M39.699,34.814
			c-0.32-0.213-0.754-0.125-0.965,0.194c-0.211,0.321-0.123,0.753,0.197,0.964c0.321,0.213,0.752,0.123,0.963-0.197
			C40.105,35.456,40.02,35.025,39.699,34.814z"/>
		<path fill="#5F78FF" d="M47.027,36.58c0.021-0.399,0.361-0.702,0.764-0.676c0.396,0.023,0.703,0.365,0.68,0.768
			c-0.027,0.394-0.369,0.699-0.768,0.675C47.303,37.321,47,36.978,47.027,36.58z"/>
		<path fill="#5F78FF" d="M54.922,35.354c-0.178-0.364-0.033-0.797,0.324-0.975c0.355-0.18,0.793-0.033,0.971,0.322
			c0.18,0.359,0.031,0.797-0.324,0.974C55.533,35.852,55.104,35.706,54.922,35.354z"/>
		<path fill="#5F78FF" d="M62.402,31.252c-0.371-0.245-0.469-0.737-0.228-1.104c0.242-0.368,0.738-0.472,1.104-0.23
			c0.369,0.243,0.468,0.74,0.224,1.108C63.262,31.393,62.771,31.494,62.402,31.252z"/>
		<path fill="#5F78FF" d="M62.346,31.337L62.346,31.337c-0.412-0.276-0.525-0.836-0.256-1.245c0.133-0.201,0.336-0.34,0.57-0.383
			c0.236-0.048,0.477-0.003,0.676,0.128c0.414,0.273,0.527,0.829,0.252,1.245C63.316,31.491,62.758,31.606,62.346,31.337z
			 M63.23,30.006c-0.16-0.104-0.347-0.14-0.529-0.101c-0.184,0.037-0.338,0.143-0.441,0.3c-0.209,0.318-0.121,0.75,0.197,0.963
			c0.318,0.209,0.752,0.12,0.965-0.196C63.635,30.649,63.549,30.217,63.23,30.006z"/>
		<path fill="#5F78FF" d="M64.031,22.874c-0.4-0.017-0.705-0.364-0.68-0.762c0.022-0.4,0.364-0.703,0.768-0.68
			c0.398,0.022,0.705,0.369,0.68,0.763C64.771,22.598,64.428,22.903,64.031,22.874z"/>
		<path fill="#5F78FF" d="M62.801,14.98c-0.359,0.175-0.795,0.032-0.971-0.327c-0.184-0.356-0.035-0.79,0.322-0.969
			c0.356-0.182,0.791-0.031,0.971,0.323C63.301,14.366,63.156,14.799,62.801,14.98z"/>
	</g>
	<g>
		<path fill="#8DC3F1" d="M37.32,39.475c-9.616-6.352-12.272-19.343-5.92-28.957c6.356-9.616,19.346-12.269,28.961-5.916
			c9.613,6.352,12.266,19.342,5.914,28.958C59.924,43.174,46.934,45.827,37.32,39.475z M59.025,6.621
			c-8.5-5.617-19.986-3.272-25.606,5.231c-5.615,8.498-3.268,19.983,5.237,25.601c8.498,5.615,19.986,3.271,25.6-5.227
			C69.873,23.724,67.525,12.236,59.025,6.621z"/>
		<path fill="#8DC3F1" d="M48.176,23.047c-0.057-0.037-0.115-0.083-0.164-0.131c-0.428-0.404-0.504-1.056-0.182-1.542l4.885-7.395
			c0.367-0.555,1.119-0.712,1.676-0.343c0.56,0.368,0.709,1.12,0.342,1.676l-1.088,1.647l6.301-4.681
			c0.537-0.396,1.298-0.288,1.689,0.252c0.4,0.536,0.291,1.295-0.246,1.69l-11.824,8.789C49.146,23.316,48.592,23.323,48.176,23.047
			z"/>
		<path fill="#8DC3F1" d="M58.639,7.208c0.367,0.243,0.469,0.734,0.225,1.101c-0.241,0.368-0.733,0.47-1.102,0.226
			c-0.369-0.243-0.469-0.735-0.227-1.103C57.779,7.065,58.27,6.964,58.639,7.208z"/>
		<path fill="#8DC3F1" d="M57.705,8.621c-0.416-0.274-0.525-0.833-0.254-1.245c0.273-0.414,0.828-0.528,1.244-0.253
			c0.412,0.271,0.529,0.831,0.256,1.244C58.68,8.778,58.117,8.893,57.705,8.621z M58.584,7.292c-0.32-0.21-0.754-0.126-0.965,0.195
			c-0.213,0.321-0.121,0.753,0.197,0.965c0.322,0.213,0.752,0.124,0.963-0.197C58.992,7.934,58.904,7.504,58.584,7.292z"/>
		<circle fill="#8DC3F1" cx="49.77" cy="6.636" r="0.723"/>
		<path fill="#8DC3F1" d="M42.594,7.911c0.18,0.362,0.033,0.794-0.326,0.972c-0.354,0.179-0.793,0.036-0.969-0.326
			c-0.182-0.352-0.033-0.792,0.322-0.97C41.98,7.41,42.412,7.556,42.594,7.911z"/>
		<path fill="#8DC3F1" d="M35.113,12.01c0.367,0.243,0.467,0.738,0.223,1.108c-0.242,0.366-0.734,0.467-1.102,0.224
			c-0.367-0.243-0.471-0.737-0.229-1.103C34.251,11.87,34.746,11.768,35.113,12.01z"/>
		<path fill="#8DC3F1" d="M34.177,13.427c-0.414-0.273-0.527-0.833-0.256-1.244c0.273-0.414,0.836-0.528,1.246-0.256
			c0.414,0.274,0.526,0.83,0.252,1.247C35.148,13.584,34.591,13.701,34.177,13.427z M35.056,12.094
			c-0.32-0.21-0.754-0.119-0.967,0.201c-0.209,0.317-0.119,0.75,0.201,0.962c0.318,0.211,0.752,0.122,0.959-0.195
			C35.464,12.738,35.376,12.305,35.056,12.094z"/>
		<path fill="#8DC3F1" d="M33.486,20.383c0.398,0.027,0.701,0.368,0.678,0.768s-0.365,0.703-0.768,0.682
			c-0.4-0.025-0.705-0.371-0.678-0.768C32.746,20.663,33.087,20.361,33.486,20.383z"/>
		<path fill="#8DC3F1" d="M34.712,28.285c0.363-0.18,0.795-0.034,0.976,0.324c0.18,0.358,0.035,0.791-0.322,0.968
			c-0.359,0.179-0.797,0.036-0.973-0.323C34.214,28.894,34.357,28.465,34.712,28.285z"/>
		<path fill="#8DC3F1" d="M38.816,35.765c0.244-0.369,0.735-0.469,1.104-0.226c0.369,0.242,0.465,0.737,0.225,1.103
			c-0.244,0.367-0.737,0.468-1.104,0.227C38.674,36.625,38.574,36.131,38.816,35.765z"/>
		<path fill="#8DC3F1" d="M38.986,36.952L38.986,36.952c-0.412-0.272-0.527-0.829-0.254-1.244c0.271-0.412,0.828-0.529,1.244-0.254
			c0.412,0.271,0.526,0.834,0.256,1.245C39.959,37.113,39.398,37.224,38.986,36.952z M39.865,35.624
			c-0.32-0.212-0.756-0.125-0.967,0.195c-0.209,0.321-0.119,0.753,0.199,0.964c0.321,0.213,0.752,0.123,0.963-0.196
			C40.271,36.267,40.186,35.835,39.865,35.624z"/>
		<path fill="#8DC3F1" d="M47.191,37.391c0.022-0.398,0.363-0.702,0.764-0.675c0.398,0.022,0.703,0.363,0.68,0.767
			c-0.025,0.394-0.369,0.7-0.768,0.675C47.468,38.133,47.168,37.79,47.191,37.391z"/>
		<path fill="#8DC3F1" d="M55.088,36.165c-0.178-0.363-0.033-0.797,0.324-0.975c0.355-0.181,0.793-0.033,0.971,0.321
			c0.18,0.361,0.031,0.797-0.324,0.976C55.697,36.663,55.268,36.518,55.088,36.165z"/>
		<path fill="#8DC3F1" d="M62.568,32.063c-0.371-0.245-0.471-0.737-0.229-1.103c0.244-0.37,0.74-0.473,1.106-0.229
			c0.369,0.24,0.468,0.738,0.224,1.107C63.428,32.205,62.938,32.303,62.568,32.063z"/>
		<path fill="#8DC3F1" d="M62.512,32.148L62.512,32.148c-0.412-0.275-0.527-0.835-0.258-1.244c0.135-0.202,0.338-0.34,0.572-0.384
			c0.234-0.05,0.479-0.003,0.676,0.128c0.414,0.273,0.527,0.829,0.25,1.246C63.482,32.302,62.922,32.417,62.512,32.148z
			 M63.395,30.817c-0.158-0.105-0.344-0.141-0.528-0.102c-0.183,0.037-0.339,0.145-0.439,0.3c-0.211,0.317-0.12,0.75,0.197,0.963
			c0.317,0.208,0.752,0.12,0.963-0.196C63.801,31.46,63.713,31.027,63.395,30.817z"/>
		<path fill="#8DC3F1" d="M64.195,23.686c-0.398-0.018-0.703-0.364-0.678-0.762c0.022-0.4,0.364-0.703,0.768-0.68
			c0.4,0.022,0.703,0.368,0.68,0.764C64.938,23.407,64.594,23.714,64.195,23.686z"/>
		<path fill="#8DC3F1" d="M62.967,15.791c-0.359,0.175-0.797,0.032-0.971-0.326c-0.184-0.357-0.037-0.791,0.322-0.969
			c0.356-0.183,0.791-0.033,0.971,0.32C63.467,15.177,63.32,15.61,62.967,15.791z"/>
	</g>
	<path fill="#8DC3F1" d="M24.862,61.979c-0.9,0.74-4.039,2.322-4.039,2.322l-0.386-0.34l16.717-25.3l2.582,1.707L27.32,59.163
		C27.32,59.163,25.585,61.388,24.862,61.979z"/>
</g>
</svg>
