<?xml version="1.0" encoding="utf-8"?>
<!-- Generator: Adobe Illustrator 16.0.0, SVG Export Plug-In . SVG Version: 6.00 Build 0)  -->
<!DOCTYPE svg PUBLIC "-//W3C//DTD SVG 1.1//EN" "http://www.w3.org/Graphics/SVG/1.1/DTD/svg11.dtd">
<svg version="1.1" id="Layer_1" xmlns="http://www.w3.org/2000/svg" xmlns:xlink="http://www.w3.org/1999/xlink" x="0px" y="0px"
	 width="35px" height="85px" viewBox="-1.5 -2.5 35 85" enable-background="new -1.5 -2.5 35 85" xml:space="preserve">
<g>
	<path fill="#19CFF9" d="M4.084,39.827c0,1.031,0.835,1.861,1.861,1.861h20.121c1.026,0,1.863-0.83,1.863-1.861V4.374
		c0-1.031-0.837-1.863-1.863-1.863H5.946c-1.026,0-1.861,0.832-1.861,1.863L4.084,39.827L4.084,39.827z"/>
	<path fill="#5F78FF" d="M4.084,39.827c0,1.031,0.835,1.861,1.861,1.861V2.51c-1.026,0-1.861,0.832-1.861,1.863V39.827z"/>
	<path fill="#00B9F2" d="M26.063,10.157h-9.82h-0.427H5.999c-0.525,0-0.951,0.423-0.951,0.946v23.669v3.562v2.255
		c0,0.521,0.426,0.95,0.951,0.95h9.816h0.427h9.82c0.522,0,0.945-0.43,0.945-0.95v-2.255v-3.562V11.103
		C27.008,10.58,26.585,10.157,26.063,10.157z"/>
</g>
<line fill="none" stroke="#5F78FF" stroke-width="0.5" stroke-miterlimit="10" x1="15.999" y1="51.185" x2="15.999" y2="41.539"/>
<g>
	<g>
		<path fill="#5F78FF" d="M15.999,82C7.308,82,0.234,74.927,0.234,66.235c0-8.693,7.072-15.765,15.765-15.765
			c8.694,0,15.767,7.07,15.767,15.765C31.766,74.926,24.693,82,15.999,82z M15.999,53.442c-7.054,0-12.792,5.738-12.792,12.793
			s5.738,12.793,12.792,12.793c7.056,0,12.792-5.738,12.792-12.793S23.055,53.442,15.999,53.442z"/>
	</g>
</g>
<g>
	<rect x="15.627" y="54.098" fill="#ABBBFF" width="0.744" height="24.274"/>
</g>
<g>
	<rect x="3.862" y="65.864" fill="#ABBBFF" width="24.271" height="0.742"/>
</g>
<g>
	
		<rect x="3.862" y="65.863" transform="matrix(-0.7071 -0.7071 0.7071 -0.7071 -19.5261 124.3805)" fill="#ABBBFF" width="24.273" height="0.744"/>
</g>
<g>
	
		<rect x="15.626" y="54.096" transform="matrix(-0.7071 -0.7071 0.7071 -0.7071 -19.5247 124.3775)" fill="#ABBBFF" width="0.743" height="24.274"/>
</g>
<g>
	<circle fill="#CCD7C8" cx="15.997" cy="22.316" r="5.399"/>
	<path fill="#D9DCD5" d="M11.951,21.934c0,2.568,2.08,4.646,4.646,4.646c2.567,0,4.651-2.078,4.651-4.646
		c0-2.568-2.084-4.647-4.651-4.647S11.951,19.366,11.951,21.934z"/>
	<circle fill="#E7E9E7" cx="17.059" cy="21.473" r="3.935"/>
	<path fill="#242524" d="M18.344,20.568c0,1.298-1.051,2.349-2.347,2.349s-2.346-1.051-2.346-2.349c0-1.294,1.05-2.346,2.346-2.346
		S18.344,19.274,18.344,20.568z"/>
</g>
</svg>
