<?xml version="1.0" encoding="utf-8"?>
<!-- Generator: Adobe Illustrator 16.0.0, SVG Export Plug-In . SVG Version: 6.00 Build 0)  -->
<!DOCTYPE svg PUBLIC "-//W3C//DTD SVG 1.1//EN" "http://www.w3.org/Graphics/SVG/1.1/DTD/svg11.dtd">
<svg version="1.1" id="Layer_1" xmlns="http://www.w3.org/2000/svg" xmlns:xlink="http://www.w3.org/1999/xlink" x="0px" y="0px"
	 width="60px" height="85px" viewBox="-5.5 -12 60 85" enable-background="new -5.5 -12 60 85" xml:space="preserve">
<g>
	<path fill="#6FE085" d="M11.766,60.436c0,1.048,0.848,1.896,1.893,1.896h20.473c1.045,0,1.896-0.849,1.896-1.896V8.95
		c0-1.049-0.851-1.895-1.896-1.895H13.659c-1.045,0-1.893,0.846-1.893,1.895V60.436z"/>
	<path fill="#65CC71" d="M11.766,60.436c0,1.048,0.848,1.896,1.893,1.896V7.055c-1.045,0-1.893,0.846-1.893,1.895V60.436z"/>
	<path fill="#69D97E" d="M34.125,13.768h-9.991H23.7h-9.988c-0.534,0-0.966,0.43-0.966,0.964v20.718v3.622v22.14
		c0,0.529,0.432,0.965,0.966,0.965H23.7h0.435h9.991c0.531,0,0.966-0.436,0.966-0.965v-22.14v-3.622V14.731
		C35.091,14.196,34.656,13.768,34.125,13.768z"/>
	<circle fill="#CCD7C8" cx="23.896" cy="26.915" r="5.493"/>
	<circle fill="#D9DCD5" cx="24.507" cy="26.527" r="4.729"/>
	<circle fill="#E7E9E7" cx="24.976" cy="26.058" r="4.004"/>
	<circle fill="#FAFCFC" cx="25.611" cy="25.423" r="3.028"/>
	<circle fill="#242524" cx="23.896" cy="25.138" r="2.388"/>
</g>
<polygon fill="#B871D9" points="24.98,68 24.98,42.608 43.979,34.244 43.979,59.612 "/>
<polygon fill="#B36AE2" points="27.759,41.024 40.979,32.567 40.979,34.873 "/>
<polygon fill="#B871D9" points="21.979,68 21.979,42.608 4.979,34.244 4.979,59.612 "/>
<polygon fill="#B36AE2" points="21.201,41.024 7.979,32.567 7.979,34.873 "/>
<g>
	<path fill="#69D97E" d="M45.343,53.901c-1.936,0-4.813-0.494-9.144-1.974c-1.11-0.381-1.703-1.588-1.323-2.698
		c0.379-1.111,1.589-1.702,2.698-1.324c2.729,0.931,5.681,1.604,7.381,1.729c-0.233-0.307-0.554-0.688-0.991-1.155l-0.003-5.371
		c0.421,0.058,0.827,0.237,1.161,0.547c3.131,2.896,5.814,5.929,4.275,8.508C49.078,52.699,48.361,53.901,45.343,53.901z"/>
</g>
<g>
	<path fill="#69D97E" d="M3.57,53.901c1.935,0,4.815-0.494,9.144-1.974c1.11-0.381,1.702-1.588,1.323-2.698
		c-0.38-1.111-1.589-1.702-2.698-1.324c-2.73,0.931-5.682,1.604-7.383,1.729c0.235-0.307,0.557-0.688,0.994-1.155v-5.371
		c-0.418,0.058-0.825,0.237-1.16,0.547c-3.131,2.896-5.814,5.929-4.275,8.508C-0.165,52.699,0.552,53.901,3.57,53.901z"/>
</g>
</svg>
